<svg id="Layer_1" data-name="Layer 1" xmlns="http://www.w3.org/2000/svg" viewBox="0 0 1000 128.1"><defs><style>.cls-1{fill:#fff;}</style></defs><title>Client-Logos-Master</title><g id="Versace"><path class="cls-1" d="M500.22,128.09c28.64-.11,50.21-14.48,50.24-40.35.18-23.1-24-29.76-45.84-34-17.88-3.44-33.95-10-34.13-25.31,0-.39,0-.81,0-1.22.92-12,14.86-18.63,27.78-18.66,12.51,0,21.8,5.28,30.23,15.21l13.05-10.29C522.13.3,512.81.05,498.27,0,490.13,0,478,2,468.1,7.65s-17.54,14.76-17.57,29.53c0,.22,0,.41,0,.6C450.7,64.32,481.7,69,491.68,71c12.08,2.53,35.39,7.75,35.65,27.93-.2,13.5-15.13,20.64-27.27,20.66h-.18c-10.57,0-27.07-2.24-38.28-18.07l-14.27,10.88c11.62,9.69,25.16,15.61,52.89,15.65"/><polygon class="cls-1" points="162.35 124.88 244.17 124.88 244.17 117.21 186.74 117.21 186.74 67.5 186.74 65.85 232.81 65.85 232.81 58.7 186.74 58.88 186.74 9.61 244.17 9.61 244.17 2 162.35 2 162.35 124.88"/><path class="cls-1" d="M750,63.9c.24,46.35,23.79,63.75,61.48,64,28,0,41.18-6.58,48-15.79a23,23,0,0,0,4.92-14.3H848c-.93,14-13.09,25.2-29.34,25.23-9.69,0-20.59-1.47-29-9.7s-14-22.8-14-48.22c0-27.26,5.46-42.59,13.11-51.2s17.35-10.07,24.72-10a30.59,30.59,0,0,1,20.8,7.62c5.4,4.94,9,12.41,9.39,22.32h21C863.84,15.67,852.55.31,813.43.07,773.28.34,750.28,17.5,750,63.9"/><polygon class="cls-1" points="43.95 124.88 66.59 124.88 112.41 2.02 100.44 2.02 62.58 108.34 60.97 112.89 24.79 2 0 2 43.95 124.88"/><path class="cls-1" d="M336.93,65.55l-16.7,0V7.91h20c19.52,0,32.29,12.41,32.32,27.35s-13.23,30.26-35.62,30.29m8.12,5.53,33.09,53.8H403L369.39,70.35l-1.06-1.72,1.9-.7c11.42-4.17,27.23-13.19,27.21-33.12s-15-32.6-54.9-32.79L295.86,2V124.88h24.37V71.08Z"/><path class="cls-1" d="M618.66,75l27.25-58.34,1.59-3.38L673,75Zm57.13,6.93,17.64,43h23.05L664.16,2H641.39l-56.9,122.88h10.8l19.8-42.06.43-.94Z"/><polygon class="cls-1" points="918.16 124.89 999.99 124.89 999.99 117.21 942.53 117.21 942.53 67.49 942.53 65.84 988.62 65.84 988.62 58.69 942.53 58.87 942.53 9.6 1000 9.6 1000 2.01 918.16 2.01 918.16 124.89"/></g></svg>