<svg id="Layer_1" data-name="Layer 1" xmlns="http://www.w3.org/2000/svg" viewBox="0 0 1000 206"><defs><style>.cls-1{fill:#fff;}</style></defs><title>Client-Logos-Master</title><g id="Ocean_Bay" data-name="Ocean Bay"><path class="cls-1" d="M12.2,71.2Q0,59,0,40.88T12.2,10.53Q24.38-1.66,42.54-1.66T72.89,10.53q12.19,12.2,12.19,30.35T72.89,71.23Q60.7,83.43,42.54,83.42T12.2,71.2Zm30.4-3.66q11.28,0,18.38-7.66t7.09-19q0-11.34-7.09-19t-18.5-7.66q-11.28,0-18.37,7.66T17,40.88q0,11.34,7.09,19T42.6,67.54Z"/><path class="cls-1" d="M131,71.2Q118.8,59,118.8,40.71q.06-17.92,12.25-30.15T161.29-1.66q18.19,0,31.25,11.34L181.19,22.1a31.39,31.39,0,0,0-19.9-6.8q-11.46.06-18.47,7.15t-7,18.15q0,11.85,7.09,18.83t18.49,7a30.4,30.4,0,0,0,19.79-6.75l11.35,12.43q-13,11.34-31.25,11.34Q143.25,83.36,131,71.2Z"/><path class="cls-1" d="M241.71,83.42v-85l62.5-.06V14.22H258.72V32.37h34.09V48.2H258.72V67.54H304.1V83.42Z"/><path class="cls-1" d="M352.29,83.42l34-85.08h17l34,85-18.09.06-5.11-13H375.55l-5.1,13Zm43-62.39L382.36,53.36h25.52Z"/><path class="cls-1" d="M482.55,83.42V-1.66h5.67l53.32,53.32V-1.66h17V83.42h-6.24L499.57,30.67V83.42Z"/><path class="cls-1" d="M741.37,38.55q11.18,7.5,11.85,19.46-1.14,24-25.69,25.47l-47.88-.06v-85H724.8q21.51,1.25,22.69,25Q747.1,34.75,741.37,38.55Zm-44.64,31.6h27.79q12-.18,12.25-12.31-.28-8.18-12.08-8.51h-28Zm0-37.67h23.82q10.26-.16,10.55-10.6-.29-6.24-10.38-6.58h-24Z"/><path class="cls-1" d="M798.23,83.42l34-85.08h17l34,85-18.09.06-5.11-13H821.48l-5.1,13Zm43-62.39L828.29,53.36h25.52Z"/><path class="cls-1" d="M920.59-1.66h20l19.73,27.79,20.2-27.79H1000L968.8,40.88V83.42h-17V40.88Z"/><path class="cls-1" d="M30.55,204.51a.79.79,0,0,0,.47.31l3.32.42.15,1.63h-6l-2.1-3.63-6.63-10.73s-5.26,0-5.26-.1v12.1c0,.26.1.26.26.31l4.05.42.16,1.63H7.25l.16-1.63,4.05-.42c.16,0,.26,0,.26-.31V176.37c0-.27-.05-.27-.26-.32l-4.05-.42L7.25,174H20.4c7.15,0,10.52,3.47,10.52,8,0,5.11-3.21,8.42-8.47,10Zm-12.2-28.77-3.84.1v14.57c0,.11,6.21.53,6.21.53,4.2-.74,7.2-3.47,7.2-8.1C27.92,178.05,25.08,175.53,18.35,175.74Z"/><path class="cls-1" d="M83.73,206.87h-24l.16-1.63,4.1-.42c.16,0,.21,0,.21-.31V176.37c0-.27,0-.27-.21-.32l-4.1-.42L59.69,174h24v8.89H81.94l-1-5.73c-.26-1.27-.63-1.48-11.73-1.48H67V189.2h3.37c5.25,0,5.36,0,5.57-.74L77.05,185h1.26l-1,10.15H76.05l-.32-3.41c0-.64-.1-.85-5.47-.85H67v14.31h1.21c12.62,0,12.94-.26,13.25-1.47l1.37-5.63h1.89Z"/><path class="cls-1" d="M123.23,207.66a38.59,38.59,0,0,1-8.94-1.1l-.9-9.1h1.79l1.95,7.36a20.61,20.61,0,0,0,6.47,1.11c5.36,0,8.62-3,8.62-6.84,0-3.63-1.84-5.42-8.62-7.89-6-2.16-9.47-4.37-9.47-9.15,0-5.31,4.21-8.79,10.57-8.79a30.7,30.7,0,0,1,5.79.53l2.78-.79v10.05h-1.78l-1.11-6.68a14.55,14.55,0,0,0-6.2-1.42c-5.05,0-7.63,3-7.63,6.31,0,4,2.79,5.68,8.68,7.78,6.2,2.21,9.41,4.21,9.41,9.26C134.64,203.87,129.91,207.66,123.23,207.66Z"/><path class="cls-1" d="M178.3,207.61c-9.42,0-16.57-6.63-16.57-16.94,0-9.25,6.47-17.41,16.83-17.41,9.31,0,16.52,6.63,16.52,17C195.08,199.46,188.61,207.61,178.3,207.61Zm0-32.61c-7.15,0-13.52,5.68-13.52,15.09,0,10.31,6.63,15.84,13.73,15.84s13.57-5.63,13.57-15.1C192.08,180.57,185.35,175,178.3,175Z"/><path class="cls-1" d="M246.1,204.51a.76.76,0,0,0,.47.31l3.31.42.16,1.63h-6l-2.11-3.63-6.62-10.73s-5.26,0-5.26-.1v12.1c0,.26.1.26.26.31l4.05.42.16,1.63H222.8l.16-1.63,4-.42c.15,0,.26,0,.26-.31V176.37c0-.27-.05-.27-.26-.32l-4-.42L222.8,174H236c7.15,0,10.52,3.47,10.52,8,0,5.11-3.21,8.42-8.47,10Zm-12.2-28.77-3.84.1v14.57c0,.11,6.2.53,6.2.53,4.21-.74,7.21-3.47,7.21-8.1C243.47,178.05,240.63,175.53,233.9,175.74Z"/><path class="cls-1" d="M302.33,183.68l-.95-6.52c-.21-1.32-.26-1.48-8.84-1.48h-.94v28.83c0,.26.1.26.26.31l4.58.42.15,1.63H283.81l.16-1.63,4.58-.42c.15,0,.26,0,.26-.31V175.68h-1.05c-8.52,0-8.42.27-8.68,1.48l-1.37,6.41h-1.79l.95-9.57H304v9.68Z"/><path class="cls-1" d="M342.35,207.66a38.73,38.73,0,0,1-8.94-1.1l-.89-9.1h1.79l1.94,7.36a20.61,20.61,0,0,0,6.47,1.11c5.37,0,8.63-3,8.63-6.84,0-3.63-1.84-5.42-8.63-7.89-6-2.16-9.46-4.37-9.46-9.15,0-5.31,4.2-8.79,10.57-8.79a30.66,30.66,0,0,1,5.78.53l2.79-.79v10.05h-1.79l-1.1-6.68A14.56,14.56,0,0,0,343.3,175c-5.05,0-7.63,3-7.63,6.31,0,4,2.79,5.68,8.68,7.78,6.21,2.21,9.42,4.21,9.42,9.26C353.77,203.87,349,207.66,342.35,207.66Z"/><path class="cls-1" d="M419.49,191v9.78h-2.37V191H407.5l.16-2.26h9.46V179h2.37v9.73h9.41l.16,2.26Z"/><path class="cls-1" d="M496.65,193.41a44,44,0,0,1-4.79-.27v11.37c0,.26.11.31.27.31l5.1.42.16,1.63H484.61l.15-1.63,4.05-.42c.16,0,.27,0,.27-.31V176.37c0-.27-.06-.32-.21-.32l-4.11-.42-.15-1.63h10.94c9.2,0,13.41,4,13.41,9.41C509,189.3,503.59,193.41,496.65,193.41Zm-1.47-17.67-3.32.1v15.52a28.86,28.86,0,0,0,4.9.52c6,0,9.25-3.1,9.25-8.1C506,178.47,502.17,175.53,495.18,175.74Z"/><path class="cls-1" d="M560.4,204.51a.76.76,0,0,0,.47.31l3.32.42.15,1.63h-6l-2.1-3.63-6.63-10.73s-5.26,0-5.26-.1v12.1c0,.26.1.26.26.31l4,.42.16,1.63H537.1l.16-1.63,4-.42c.16,0,.26,0,.26-.31V176.37c0-.27-.05-.27-.26-.32l-4-.42L537.1,174h13.15c7.15,0,10.52,3.47,10.52,8,0,5.11-3.21,8.42-8.47,10Zm-12.2-28.77-3.84.1v14.57c0,.11,6.21.53,6.21.53,4.2-.74,7.2-3.47,7.2-8.1C557.77,178.05,554.93,175.53,548.2,175.74Z"/><path class="cls-1" d="M606.16,207.61c-9.41,0-16.57-6.63-16.57-16.94,0-9.25,6.47-17.41,16.83-17.41,9.31,0,16.52,6.63,16.52,17C622.94,199.46,616.47,207.61,606.16,207.61Zm0-32.61c-7.15,0-13.52,5.68-13.52,15.09,0,10.31,6.63,15.84,13.73,15.84s13.57-5.63,13.57-15.1C619.94,180.57,613.21,175,606.16,175Z"/><path class="cls-1" d="M662.7,193.41a43.77,43.77,0,0,1-4.78-.27v11.37c0,.26.1.31.26.31l5.1.42.16,1.63H650.66l.16-1.63,4-.42c.16,0,.26,0,.26-.31V176.37c0-.27,0-.32-.21-.32l-4.1-.42-.16-1.63H661.6c9.2,0,13.41,4,13.41,9.41C675,189.3,669.65,193.41,662.7,193.41Zm-1.47-17.67-3.31.1v15.52a28.74,28.74,0,0,0,4.89.52c6,0,9.25-3.1,9.25-8.1C672.06,178.47,668.22,175.53,661.23,175.74Z"/><path class="cls-1" d="M727.19,206.87h-24l.16-1.63,4.1-.42c.16,0,.21,0,.21-.31V176.37c0-.27,0-.27-.21-.32l-4.1-.42-.16-1.63h24v8.89H725.4l-.95-5.73c-.26-1.27-.63-1.48-11.73-1.48h-2.31V189.2h3.37c5.26,0,5.36,0,5.57-.74l1.16-3.47h1.26l-1,10.15h-1.26l-.32-3.41c-.05-.64-.1-.85-5.47-.85h-3.31v14.31h1.21c12.62,0,12.94-.26,13.26-1.47l1.36-5.63h1.89Z"/><path class="cls-1" d="M782.05,204.51a.81.81,0,0,0,.48.31l3.31.42.15,1.63h-6l-2.1-3.63-6.63-10.73s-5.26,0-5.26-.1v12.1c0,.26.11.26.26.31l4.05.42.16,1.63H758.75l.16-1.63,4.05-.42c.16,0,.26,0,.26-.31V176.37c0-.27-.05-.27-.26-.32l-4.05-.42-.16-1.63H771.9c7.15,0,10.52,3.47,10.52,8,0,5.11-3.21,8.42-8.47,10Zm-12.2-28.77-3.84.1v14.57c0,.11,6.21.53,6.21.53,4.21-.74,7.2-3.47,7.2-8.1C779.42,178.05,776.58,175.53,769.85,175.74Z"/><path class="cls-1" d="M839.86,183.68l-1-6.52c-.21-1.32-.26-1.48-8.83-1.48h-1v28.83c0,.26.1.26.26.31l4.58.42.15,1.63H821.34l.16-1.63,4.58-.42c.16,0,.26,0,.26-.31V175.68h-1.05c-8.52,0-8.42.27-8.68,1.48l-1.37,6.41h-1.78l.94-9.57h27.14v9.68Z"/><path class="cls-1" d="M871.94,206.87l.16-1.63,4.58-.42c.16,0,.26,0,.26-.31V176.37c0-.27-.05-.27-.26-.32l-4.58-.42-.16-1.63h12.78l-.15,1.63-4.58.42c-.16,0-.26,0-.26.32v28.14c0,.26.1.26.26.31l4.58.42.15,1.63Z"/><path class="cls-1" d="M939.59,206.87h-24l.16-1.63,4.1-.42c.16,0,.21,0,.21-.31V176.37c0-.27,0-.27-.21-.32l-4.1-.42-.16-1.63h24v8.89H937.8l-.95-5.73c-.26-1.27-.63-1.48-11.73-1.48h-2.31V189.2h3.36c5.27,0,5.37,0,5.58-.74l1.16-3.47h1.26l-1,10.15h-1.26l-.32-3.41c-.05-.64-.1-.85-5.47-.85h-3.31v14.31H924c12.62,0,12.94-.26,13.25-1.47l1.37-5.63h1.89Z"/><path class="cls-1" d="M980.67,207.66a38.59,38.59,0,0,1-8.94-1.1l-.9-9.1h1.79l2,7.36a20.61,20.61,0,0,0,6.47,1.11c5.36,0,8.62-3,8.62-6.84,0-3.63-1.84-5.42-8.62-7.89-6-2.16-9.47-4.37-9.47-9.15,0-5.31,4.21-8.79,10.57-8.79a30.7,30.7,0,0,1,5.79.53l2.78-.79v10.05h-1.79l-1.1-6.68a14.55,14.55,0,0,0-6.2-1.42c-5.06,0-7.63,3-7.63,6.31,0,4,2.79,5.68,8.68,7.78,6.2,2.21,9.41,4.21,9.41,9.26C992.08,203.87,987.35,207.66,980.67,207.66Z"/></g></svg>