<?xml version="1.0" encoding="UTF-8"?>
<svg width="15px" height="15px" viewBox="0 0 15 15" version="1.1" xmlns="http://www.w3.org/2000/svg" xmlns:xlink="http://www.w3.org/1999/xlink">
    <defs>
        <polygon id="path-1" points="3.28227571e-05 0.0236980306 14.976302 0.0236980306 14.976302 14.9980306 3.28227571e-05 14.9980306"></polygon>
    </defs>
    <g id="Page-1" stroke="none" stroke-width="1" fill="none" fill-rule="evenodd">
        <g id="375-nav" transform="translate(-42.000000, -564.000000)">
            <g id="Instagram-icon-black" transform="translate(42.000000, 564.000000)">
                <g id="Group-3">
                    <mask id="mask-2" fill="white">
                        <use xlink:href="#path-1"></use>
                    </mask>
                    <g id="Clip-2"></g>
                    <path d="M7.48818381,0.0236323851 C5.4545186,0.0236323851 5.1995186,0.0321991247 4.40084245,0.0686980306 C3.60377462,0.105098468 3.05944201,0.23166302 2.58318381,0.416750547 C2.09074398,0.608107221 1.67314004,0.864157549 1.25684902,1.28044858 C0.840557987,1.69673961 0.584507659,2.11437637 0.393183807,2.60678337 C0.207997812,3.08310722 0.0814332604,3.62743982 0.0450984683,4.42447484 C0.00863238512,5.22315098 3.28227571e-05,5.47811816 3.28227571e-05,7.51178337 C3.28227571e-05,9.54551422 0.00863238512,9.8004814 0.0450984683,10.5991575 C0.0814332604,11.3961926 0.207997812,11.9405252 0.393183807,12.416849 C0.584507659,12.909256 0.840557987,13.3268928 1.25684902,13.7431838 C1.67314004,14.1594748 2.09074398,14.4155252 2.58318381,14.6068818 C3.05944201,14.7919694 3.60377462,14.9185339 4.40084245,14.9549344 C5.1995186,14.9913676 5.4545186,15 7.48818381,15 C9.52184902,15 9.77688184,14.9913676 10.575558,14.9549344 C11.372593,14.9185339 11.9169256,14.7919694 12.3932166,14.6068818 C12.8856565,14.4155252 13.3032276,14.1594748 13.7195186,13.7431838 C14.1358096,13.3268928 14.39186,12.909256 14.5832166,12.416849 C14.7683698,11.9405252 14.8949344,11.3961926 14.931302,10.5991575 C14.9677681,9.8004814 14.9763348,9.54551422 14.9763348,7.51178337 C14.9763348,5.47811816 14.9677681,5.22315098 14.931302,4.42447484 C14.8949344,3.62743982 14.7683698,3.08310722 14.5832166,2.60678337 C14.39186,2.11437637 14.1358096,1.69673961 13.7195186,1.28044858 C13.3032276,0.864157549 12.8856565,0.608107221 12.3932166,0.416750547 C11.9169256,0.23166302 11.372593,0.105098468 10.575558,0.0686980306 C9.77688184,0.0321991247 9.52184902,0.0236323851 7.48818381,0.0236323851 M7.48818381,1.37284464 C9.48761488,1.37284464 9.72439825,1.38045952 10.5140481,1.41646608 C11.2441247,1.44978118 11.6406236,1.57181619 11.9044858,1.67432166 C12.2540481,1.81017505 12.5035011,1.97245077 12.7654923,2.23447484 C13.0275821,2.49653173 13.1898578,2.74595186 13.3256455,3.0954814 C13.428151,3.35934354 13.550186,3.75587527 13.5835011,4.48591904 C13.6195077,5.27556893 13.6271554,5.5123523 13.6271554,7.51178337 C13.6271554,9.51128009 13.6195077,9.74806346 13.5835011,10.5376477 C13.550186,11.2677571 13.428151,11.6642888 13.3256455,11.928151 C13.1898578,12.2776477 13.0275821,12.5271007 12.7654923,12.7891575 C12.5035011,13.0511816 12.2540481,13.2134573 11.9044858,13.3492779 C11.6406236,13.4518162 11.2441247,13.5738512 10.5140481,13.6071007 C9.72452954,13.6431729 9.48777899,13.6507549 7.48818381,13.6507549 C5.48858862,13.6507549 5.25183807,13.6431729 4.46231947,13.6071007 C3.73227571,13.5738512 3.33574398,13.4518162 3.07188184,13.3492779 C2.7223523,13.2134573 2.47289934,13.0511816 2.21087527,12.7891575 C1.94888403,12.5271007 1.78660832,12.2776477 1.65075492,11.928151 C1.54821663,11.6642888 1.42621444,11.2677571 1.39286652,10.5376477 C1.35689278,9.74806346 1.34924508,9.51128009 1.34924508,7.51178337 C1.34924508,5.5123523 1.35689278,5.27556893 1.39286652,4.48591904 C1.42621444,3.75587527 1.54821663,3.35934354 1.65075492,3.0954814 C1.78660832,2.74595186 1.94888403,2.49653173 2.21087527,2.23447484 C2.47289934,1.97245077 2.7223523,1.81017505 3.07188184,1.67432166 C3.33574398,1.57181619 3.73227571,1.44978118 4.46231947,1.41646608 C5.25196937,1.38045952 5.48875274,1.37284464 7.48818381,1.37284464" id="Fill-1" fill="#FFFFFF" mask="url(#mask-2)"></path>
                </g>
                <path d="M7.48818381,10.0078556 C6.10966083,10.0078556 4.9921116,8.89033917 4.9921116,7.51178337 C4.9921116,6.13326039 6.10966083,5.01574398 7.48818381,5.01574398 C8.86673961,5.01574398 9.98425602,6.13326039 9.98425602,7.51178337 C9.98425602,8.89033917 8.86673961,10.0078556 7.48818381,10.0078556 M7.48818381,3.66653173 C5.3645186,3.66653173 3.64293217,5.38815098 3.64293217,7.51178337 C3.64293217,9.63551422 5.3645186,11.3570678 7.48818381,11.3570678 C9.61184902,11.3570678 11.3334354,9.63551422 11.3334354,7.51178337 C11.3334354,5.38815098 9.61184902,3.66653173 7.48818381,3.66653173" id="Fill-4" fill="#FFFFFF"></path>
                <path d="M12.3839934,3.51459519 C12.3839934,4.01084245 11.9816849,4.41318381 11.4854048,4.41318381 C10.9891575,4.41318381 10.5868162,4.01084245 10.5868162,3.51459519 C10.5868162,3.0183151 10.9891575,2.61600656 11.4854048,2.61600656 C11.9816849,2.61600656 12.3839934,3.0183151 12.3839934,3.51459519" id="Fill-5" fill="#0B0B09"></path>
            </g>
        </g>
    </g>
</svg>