<svg xmlns="http://www.w3.org/2000/svg" width="33.223" height="23.1" viewBox="0 0 33.223 23.1"><defs><style>.a,.b{fill:#142326;}.b{stroke:#142326;stroke-width:0.5px;}</style></defs><g transform="translate(-293.842 -719.827)"><circle class="a" cx="2.277" cy="2.277" r="2.277" transform="translate(301.442 726.315)"/><circle class="a" cx="2.277" cy="2.277" r="2.277" transform="translate(315.258 726.315)"/><g transform="translate(294.092 720.077)"><path class="b" d="M8.636,31.9a2.237,2.237,0,0,1-.836-.167A2.2,2.2,0,0,1,6.461,29.7V26.575H5.677a2.356,2.356,0,0,1-2.342-2.342l.028-12.591A2.356,2.356,0,0,1,5.7,9.3H33.716a2.356,2.356,0,0,1,2.342,2.342L36.03,24.233a2.356,2.356,0,0,1-2.342,2.342H14.881l-4.711,4.684A2.177,2.177,0,0,1,8.636,31.9ZM5.677,10.973a.678.678,0,0,0-.669.669L4.98,24.233a.678.678,0,0,0,.669.669H7.3a.839.839,0,0,1,.836.836v3.987a.532.532,0,0,0,.307.474A.509.509,0,0,0,9,30.088l4.934-4.934a.8.8,0,0,1,.585-.251H33.66a.678.678,0,0,0,.669-.669l.028-12.591a.678.678,0,0,0-.669-.669Z" transform="translate(-3.335 -9.3)"/></g></g></svg>