<svg xmlns="http://www.w3.org/2000/svg" viewBox="0 0 90.81 30.87"><defs><style>.cls-1{fill:#27c8fa;}</style></defs><title>資產 16</title><g id="圖層_2" data-name="圖層 2"><g id="Layer_1" data-name="Layer 1"><polygon class="cls-1" points="8.11 0.09 5.83 0.09 5.83 4.91 0.05 4.91 0.05 7.19 5.83 7.19 5.83 13.89 8.11 13.89 8.11 7.19 13.88 7.19 13.88 4.91 8.11 4.91 8.11 0.09"/><polygon class="cls-1" points="25.13 2.49 30.35 2.49 30.35 13.84 32.62 13.84 32.62 2.49 38.96 2.49 38.96 0.22 25.13 0.22 25.13 2.49"/><polygon class="cls-1" points="35.94 5.25 35.94 8.15 38.87 8.16 38.86 5.24 35.94 5.25"/><polygon class="cls-1" points="90.75 9.3 85.33 9.3 85.33 7.55 90.75 7.55 90.75 5.66 85.33 5.66 85.33 3.74 90.75 3.74 90.75 1.86 84.38 1.86 84.38 0.01 82.49 0.01 82.49 2.48 80.83 4.55 80.83 2.91 81.83 1.55 82.08 1.22 80.92 0.33 80.58 0.08 77.13 4.8 76.89 5.13 78.05 6 78.39 6.25 78.95 5.49 78.95 13.96 80.83 13.96 80.83 4.69 82.24 5.82 83.44 4.3 83.44 13.96 85.33 13.96 85.33 11.19 90.75 11.19 90.75 9.3"/><rect class="cls-1" x="60.28" y="1.84" width="1.59" height="9.63"/><polygon class="cls-1" points="62.77 0.05 62.77 12.39 60.27 12.39 60.27 13.98 64.35 13.98 64.35 0.05 62.77 0.05"/><path class="cls-1" d="M58.25,2.67c-.65-.51-1.32-1-1.91-1.51V0H54.75V1.16l-3.64,3,1,1.23.21-.18V9l-1.12,5.1H53l.72-3.67v2.23h0v1.46H58.9V11.37h0V9.91H53.78l.07-.36h5.07V5.25l.22.17,1-1.22L60,4C59.45,3.6,58.84,3.13,58.25,2.67Zm-3.1,10V11.37h2.29v1.25Zm2.18-5V8H54V7.57Zm0-2V6H54V5.55ZM53.9,4l1.65-1.38L57.3,4Z"/><rect class="cls-1" y="23.41" width="1.84" height="7.33"/><path class="cls-1" d="M8,23.29c-2.25,0-3.25,1.17-3.25,3.78s1,3.8,3.25,3.8,3.23-1.14,3.23-3.8a4.32,4.32,0,0,0-.75-2.85A3,3,0,0,0,8,23.29Zm0,5.94c-1,0-1.37-.32-1.37-2.16S7,24.93,8,24.93s1.35.3,1.35,2.14S8.91,29.23,8,29.23Z"/><rect class="cls-1" x="14.09" y="23.41" width="1.84" height="7.33"/><path class="cls-1" d="M22.05,23.29c-2.24,0-3.24,1.17-3.24,3.78s1,3.8,3.24,3.8,3.24-1.14,3.24-3.8a4.38,4.38,0,0,0-.75-2.85A3,3,0,0,0,22.05,23.29Zm1.36,3.78c0,1.84-.41,2.16-1.35,2.16s-1.36-.32-1.36-2.16c0-1.51.19-2.14,1.35-2.14C23,24.93,23.41,25.23,23.41,27.07Z"/><path class="cls-1" d="M37.11,29a3.57,3.57,0,0,1-1.35.26c-1.11,0-1.64-.33-1.64-2.21,0-1.61.38-2.11,1.61-2.11a4.08,4.08,0,0,1,1.36.23l.13.05.18-1.59-.07,0a5.34,5.34,0,0,0-1.69-.3,3.27,3.27,0,0,0-2.58,1A4.06,4.06,0,0,0,32.23,27c0,2.59,1.08,3.85,3.31,3.85a4.53,4.53,0,0,0,1.82-.4l.06,0-.18-1.52Z"/><path class="cls-1" d="M45.53,25.72c0-1.56-.9-2.31-2.75-2.31H40.06v7.32h1.82V28.08h.83L44,30.73h2.12l-1.69-3A2,2,0,0,0,45.53,25.72Zm-1.88.07c0,.67-.21.88-.89.88h-.88V24.94h.91C43.45,24.94,43.65,25.14,43.65,25.79Z"/><polygon class="cls-1" points="50.23 27.72 52.86 27.72 52.86 26.23 50.23 26.23 50.23 25.03 53.35 25.03 53.32 23.41 48.42 23.41 48.42 30.73 53.47 30.73 53.51 29.13 50.23 29.13 50.23 27.72"/><path class="cls-1" d="M60.12,23.41h-2l-2.54,7.32h1.92l.4-1.38h2.42l.4,1.38h2l-2.53-7.25Zm-1,1.67.11.41.64,2.31H58.3L59,25.49Z"/><polygon class="cls-1" points="63.9 23.41 63.86 25.06 65.77 25.06 65.77 30.73 67.59 30.73 67.59 25.06 69.51 25.06 69.47 23.41 63.9 23.41"/><rect class="cls-1" x="72.09" y="23.41" width="1.84" height="7.33"/><polygon class="cls-1" points="80.02 28.3 79.92 28.71 79.81 28.3 78.41 23.41 76.42 23.41 78.89 30.66 78.91 30.73 80.84 30.73 83.34 23.41 81.45 23.41 80.02 28.3"/><polygon class="cls-1" points="87.53 29.13 87.53 27.72 90.16 27.72 90.16 26.23 87.53 26.23 87.53 25.03 90.66 25.03 90.62 23.41 85.72 23.41 85.72 30.73 90.77 30.73 90.81 29.13 87.53 29.13"/></g></g></svg>