<svg xmlns="http://www.w3.org/2000/svg" width="12" height="16" viewBox="0 0 12 16"><defs><style>.a{fill:none;}.b,.c{stroke:none;}.c{fill:#3c3c3c;}</style></defs><g class="a" transform="translate(12) rotate(90)"><path class="b" d="M7.168,1.248a1,1,0,0,1,1.664,0l6.131,9.2A1,1,0,0,1,14.131,12H1.869a1,1,0,0,1-.832-1.555Z"/><path class="c" d="M 7.9998779296875 1.802953720092773 L 8 1.80277156829834 L 1.86851978302002 11.00000095367432 L 14.13147926330566 11.00000095367432 C 14.13147926330566 11.00000095367432 14.13147926330566 11.00000095367432 14.13148021697998 11.00000095367432 L 7.9998779296875 1.802953720092773 M 8 0.8027734756469727 C 8.317070007324219 0.8027734756469727 8.634140014648438 0.9512062072753906 8.832050323486328 1.248071670532227 L 14.96352958679199 10.4453010559082 C 15.40657043457031 11.1098518371582 14.93017959594727 12.00000095367432 14.13148021697998 12.00000095367432 L 1.86851978302002 12.00000095367432 C 1.069820404052734 12.00000095367432 0.5934295654296875 11.1098518371582 1.036470413208008 10.4453010559082 L 7.167949676513672 1.248071670532227 C 7.365859985351562 0.9512062072753906 7.682929992675781 0.8027734756469727 8 0.8027734756469727 Z"/></g></svg>