<svg xmlns="http://www.w3.org/2000/svg" viewBox="0 0 31.92 17.43"><defs><style>.cls-1{isolation:isolate;}.cls-2,.cls-3{mix-blend-mode:screen;}.cls-3{fill:#fff;}</style></defs><title>s_vr_icon</title><g class="cls-1"><g id="圖層_2" data-name="圖層 2"><g id="Layer_1" data-name="Layer 1"><g class="cls-2"><path class="cls-3" d="M28.85,17.43H17.94a1.05,1.05,0,0,1-.76-.34l-1.26-1.4L14.5,17.12a1,1,0,0,1-.73.31H3.07A3.07,3.07,0,0,1,0,14.36V3.07A3.06,3.06,0,0,1,3.07,0H28.85a3.06,3.06,0,0,1,3.07,3.07V14.36A3.07,3.07,0,0,1,28.85,17.43Zm-10.45-2H28.85a1,1,0,0,0,1-1V3.07a1,1,0,0,0-1-1H3.07a1,1,0,0,0-1,1V14.36a1,1,0,0,0,1,1H13.35l1.89-1.9a1,1,0,0,1,1.5.06Z"/><circle class="cls-3" cx="9.3" cy="8.71" r="2.2"/><circle class="cls-3" cx="22.62" cy="8.71" r="2.2"/></g></g></g></g></svg>