<svg xmlns="http://www.w3.org/2000/svg" viewBox="0 0 490.8 69.86"><defs><style>.cls-1{fill:#fff;}</style></defs><title>資產 14</title><g id="圖層_2" data-name="圖層 2"><g id="Layer_1" data-name="Layer 1"><path class="cls-1" d="M3.58,56a28.83,28.83,0,0,0,20.56,8.4c8.08,0,15.24-4.26,15.24-12.53C39.38,34.93,2.92,39.73,2.92,18c0-11.87,9.94-18,21.22-18C37.66,0,43.76,7.2,43.76,7.2l-3.32,4.54S35,5.47,23.74,5.47c-7.56,0-15,3.47-15,12.13,0,17.33,36.47,12.14,36.47,34.27,0,10.66-9,18-21.21,18-16,0-24-9.59-24-9.59Z"/><path class="cls-1" d="M85.25,18.81c11.6,0,17.44,6.92,17.44,6.92L100.16,29a21.17,21.17,0,0,0-14.91-6.23c-11.39,0-20.84,8.47-20.84,21.62,0,13,9.45,21.44,20.84,21.44a21.48,21.48,0,0,0,16.27-7l2.15,3.41s-6.34,7.6-18.42,7.6c-13.73,0-25.13-9.94-25.13-25.43S71.71,18.81,85.25,18.81Z"/><path class="cls-1" d="M122.08.5h4.09V28.55a20.41,20.41,0,0,1-.39,4H126a22.46,22.46,0,0,1,20.66-13.74c12.66,0,16.07,7.5,16.07,19V68.69h-4.09V39.27c0-8.47-1.07-16.46-12-16.46A20.65,20.65,0,0,0,127,38.3a24,24,0,0,0-.78,6.62V68.69h-4.09Z"/><path class="cls-1" d="M205.66,18.81A25.05,25.05,0,0,1,230.89,44c0,14.52-11.3,25.82-25.23,25.82S180.42,58.56,180.42,44A25.05,25.05,0,0,1,205.66,18.81Zm0,47.06c11.59,0,20.94-9.45,20.94-21.83a20.95,20.95,0,1,0-41.89,0C184.71,56.42,194.06,65.87,205.66,65.87Z"/><path class="cls-1" d="M270.92,18.81A25,25,0,0,1,296.15,44c0,14.52-11.29,25.82-25.23,25.82S245.69,58.56,245.69,44A25.05,25.05,0,0,1,270.92,18.81Zm0,47.06c11.59,0,20.95-9.45,20.95-21.83A20.95,20.95,0,1,0,250,44C250,56.42,259.33,65.87,270.92,65.87Z"/><path class="cls-1" d="M314.07.5h4.1V57.59c0,6.82,3.5,7.6,5.74,7.6a11.28,11.28,0,0,0,1.46-.1v3.8a9.39,9.39,0,0,1-1.75.19c-2.82,0-9.55-1.07-9.55-10.23Z"/><path class="cls-1" d="M420.56,3.34,394.73,68.6H373.6L349.53,3.34h22.89L386,47.18,399.63,3.34Z"/><path class="cls-1" d="M465.56,68.6,454.31,47.76h-6.85V68.6H427.9V3.34h33.94q11.94,0,18.65,5.39t6.7,16a22,22,0,0,1-3.29,11.45,17.25,17.25,0,0,1-9.34,7.63L490.8,68.6ZM464,32q1.81-1.95,1.81-6.36A7.91,7.91,0,0,0,464,20a6.1,6.1,0,0,0-4.59-2H447.46V34H459.4A6,6,0,0,0,464,32Z"/></g></g></svg>