<svg xmlns="http://www.w3.org/2000/svg" xmlns:xlink="http://www.w3.org/1999/xlink" viewBox="0 0 123.52 67.43"><defs><style>.cls-1{isolation:isolate;}.cls-2,.cls-3,.cls-4,.cls-5{mix-blend-mode:screen;}.cls-3{fill:url(#linear-gradient);}.cls-4{fill:url(#linear-gradient-2);}.cls-5{fill:url(#linear-gradient-3);}</style><linearGradient id="linear-gradient" x1="89.62" y1="81.98" x2="33.89" y2="-14.55" gradientUnits="userSpaceOnUse"><stop offset="0" stop-color="#1db0da" stop-opacity="0.9"/><stop offset="0.2" stop-color="#21b0d8" stop-opacity="0.9"/><stop offset="0.38" stop-color="#2cb1d1" stop-opacity="0.9"/><stop offset="0.54" stop-color="#40b1c7" stop-opacity="0.9"/><stop offset="0.7" stop-color="#5bb3b7" stop-opacity="0.9"/><stop offset="0.85" stop-color="#7fb4a4" stop-opacity="0.9"/><stop offset="1" stop-color="#aab68c" stop-opacity="0.9"/><stop offset="1" stop-color="#abb68b" stop-opacity="0.9"/></linearGradient><linearGradient id="linear-gradient-2" x1="16920.54" y1="2840.3" x2="16937.54" y2="2840.3" gradientTransform="translate(6040.73 16114.84) rotate(-120)" xlink:href="#linear-gradient"/><linearGradient id="linear-gradient-3" x1="16982.15" y1="2834.5" x2="16999.15" y2="2834.5" gradientTransform="translate(6128.12 16165.3) rotate(-120)" xlink:href="#linear-gradient"/></defs><title>資產 14</title><g class="cls-1"><g id="圖層_2" data-name="圖層 2"><g id="Layer_1" data-name="Layer 1"><g class="cls-2"><path class="cls-3" d="M111.64,67.43H69.43a4,4,0,0,1-3-1.31l-4.86-5.4-5.53,5.54a3.93,3.93,0,0,1-2.8,1.17H11.88A11.88,11.88,0,0,1,0,55.55V11.88A11.88,11.88,0,0,1,11.88,0h99.76a11.88,11.88,0,0,1,11.88,11.88V55.55A11.88,11.88,0,0,1,111.64,67.43ZM71.19,59.49h40.45a3.94,3.94,0,0,0,4-3.94V11.88a4,4,0,0,0-4-4H11.88a4,4,0,0,0-4,4V55.55a3.94,3.94,0,0,0,4,3.94H51.64L59,52.16A4,4,0,0,1,62.39,51a4.06,4.06,0,0,1,2.4,1.36Z"/><circle class="cls-4" cx="35.98" cy="33.71" r="8.5"/><circle class="cls-5" cx="87.54" cy="33.71" r="8.5"/></g></g></g></g></svg>