<svg xmlns="http://www.w3.org/2000/svg" viewBox="0 0 19.94 21.87"><defs><style>.cls-1{fill:#41ddf7;}</style></defs><title>資產 18</title><g id="圖層_2" data-name="圖層 2"><g id="Layer_1" data-name="Layer 1"><g id="ekaMal.tif"><path class="cls-1" d="M19.94,0V10.19c0,.15,0,.15-.15.15-.4,0-.79,0-1.19,0-.59,0-1.19,0-1.78,0s-1,0-1.55,0-1,0-1.48,0-1.21,0-1.81,0-.91,0-1.37,0-1.13,0-1.7,0l-.56,0c-.06,0-.08,0-.08-.09V2.46c0-.15,0-.15.16-.18l4.5-.9L17.07.56,19.85,0l0,0Z"/><path class="cls-1" d="M19.94,16.71v5.07c0,.08,0,.1-.1.08l-3.75-.74L12,20.3l-3.25-.64-.39-.08c-.06,0-.07,0-.07-.09a.81.81,0,0,0,0-.16V11.55c0-.14,0-.14.14-.14.42,0,.84,0,1.26,0,.71,0,1.42,0,2.12,0s1.09,0,1.64,0,1.07,0,1.6,0h1.58c.54,0,1.09,0,1.63,0s1,0,1.56,0c.14,0,.14,0,.14.14Z"/><path class="cls-1" d="M7.29,15.39v3.86c0,.13,0,.13-.12.1l-4.69-.93L.1,18c-.07,0-.1,0-.1-.12v-6.4c0-.08,0-.11.11-.11.68,0,1.36,0,2,0,.5,0,1,0,1.51,0s1.11,0,1.67,0,1,0,1.56,0h.33s.08,0,.07.07v3.91Z"/><path class="cls-1" d="M7.29,6.49v3.84c0,.13,0,.13-.12.14-.46,0-.93,0-1.39,0-.62,0-1.25,0-1.88,0H2.51c-.56,0-1.12,0-1.68,0l-.72,0c-.08,0-.11,0-.11-.11V4.05C0,4,0,3.94.11,3.93l4.05-.81,3-.59c.11,0,.11,0,.11.09V6.49Z"/></g></g></g></svg>