<?xml version="1.0" encoding="UTF-8"?>
<svg width="20px" height="15px" viewBox="0 0 20 15" version="1.1" xmlns="http://www.w3.org/2000/svg" xmlns:xlink="http://www.w3.org/1999/xlink">
    <defs>
        <polygon id="path-1" points="19.9998818 14.40008 0 14.40008 0 7.99999998e-05 19.9998818 7.99999998e-05"></polygon>
    </defs>
    <g id="Page-1" stroke="none" stroke-width="1" fill="none" fill-rule="evenodd">
        <g id="1440-home" transform="translate(-1370.000000, -1162.000000)">
            <g id="Group-5" transform="translate(1380.000000, 1187.000000) scale(1, -1) translate(-1380.000000, -1187.000000) translate(1370.000000, 1162.000000)">
                <g id="Page-1" transform="translate(0.000000, 35.000000)">
                    <mask id="mask-2" fill="white">
                        <use xlink:href="#path-1"></use>
                    </mask>
                    <path d="M19.90032,6.92404 L13.50032,0.12404 C13.34512,-0.03756 13.08032,-0.03876 12.93112,0.10524 C12.77952,0.25164 12.76872,0.52044 12.91232,0.67404 L18.67512,6.79924 L0.39992,6.79924 C0.17912,6.79924 -7.9999998e-05,6.97804 -7.9999998e-05,7.19924 C-7.9999998e-05,7.42004 0.17912,7.59924 0.39992,7.59924 L18.67512,7.59924 L12.91232,13.72444 C12.76832,13.87804 12.77712,14.14884 12.93112,14.29284 C13.08512,14.43724 13.33272,14.44084 13.50032,14.27444 L19.90032,7.47404 C20.05232,7.28684 20.01232,7.05764 19.90032,6.92404 Z" id="Fill-1" fill="#FFFFFF" mask="url(#mask-2)"></path>
                </g>
            </g>
        </g>
    </g>
</svg>