<?xml version="1.0" encoding="utf-8"?>
<!-- Generator: Adobe Illustrator 23.0.3, SVG Export Plug-In . SVG Version: 6.00 Build 0)  -->
<svg version="1.1" id="Layer_1" xmlns="http://www.w3.org/2000/svg" xmlns:xlink="http://www.w3.org/1999/xlink" x="0px" y="0px"
	 viewBox="0 0 1417.32 1417.32" style="enable-background:new 0 0 1417.32 1417.32;" xml:space="preserve">
<style type="text/css">
	.st0{fill:#FFFFFF;}
	.st1{fill:#FFF200;}
</style>
<g>
	<g>
		<path d="M-2779.56,2752.69l-32.18-0.09l0,0l-118.02-0.32l-0.09,32.19l0,0l-0.23,85.82h0l-0.09,32.19l32.18,0.09l0,0l118.02,0.32
			l0.09-32.19l0,0L-2779.56,2752.69z M-2897.67,2784.56l85.84,0.23l-0.23,85.82l-85.84-0.23L-2897.67,2784.56z"/>
		<polygon points="-3056.1,2968.87 -3088.3,2968.78 -3088.46,3027.8 -3147.45,3027.64 -3147.53,3059.83 -3088.54,3059.99 
			-3088.7,3119 -3056.51,3119.08 -3056.35,3060.07 -2997.33,3060.23 -2997.25,3028.04 -3056.26,3027.88 		"/>
		<polygon points="-2839.15,2969.46 -2871.35,2969.38 -2871.35,2969.38 -2930.36,2969.22 -2930.44,3001.4 -2871.44,3001.56 
			-2871.76,3119.58 -2839.56,3119.67 -2839.24,3001.64 -2780.24,3001.8 -2780.15,2969.62 -2839.15,2969.46 		"/>
		
			<rect x="-2813.07" y="3028.59" transform="matrix(2.708914e-03 -1 1 2.708914e-03 -5834.0693 239.4812)" width="32.19" height="32.19"/>
		
			<rect x="-3147.49" y="2810.75" transform="matrix(2.709351e-03 -1 1 2.709351e-03 -5890.8931 -253.2007)" width="150.2" height="32.18"/>
	</g>
	<g>
		<polygon points="-2457.22,2750.16 -2485.67,2750.08 -2485.83,2810.39 -2558.08,2810.2 -2558.15,2838.66 -2485.91,2838.85 
			-2486.14,2922.61 -2457.68,2922.69 -2457.46,2838.93 -2385.24,2839.12 -2385.16,2810.67 -2457.38,2810.47 		"/>
		<polygon points="-2073.17,2752.83 -2246.11,2752.36 -2246.18,2780.82 -2180.88,2781 -2181.26,2922.9 -2152.83,2922.97 
			-2152.44,2781.07 -2073.24,2781.29 		"/>
		<polygon points="-2079.48,2818.82 -2116.01,2818.86 -2116.11,2855.18 -2079.47,2855.32 		"/>
		<polygon points="-1578.89,2829.64 -1571.86,2820.13 -1572.14,2925.93 -1548.55,2925.99 -1548.24,2810.19 -1530.73,2824.33 
			-1515.66,2805.43 -1515.98,2926.08 -1492.37,2926.15 -1492.28,2891.58 -1424.45,2891.77 -1424.39,2868.17 -1492.22,2867.99 
			-1492.16,2846.03 -1424.33,2846.21 -1424.27,2822.62 -1492.09,2822.44 -1492.03,2798.5 -1424.2,2798.68 -1424.14,2775.1 
			-1503.88,2774.88 -1503.81,2751.85 -1527.42,2751.78 -1527.5,2782.61 -1548.23,2808.46 -1548.18,2787.91 -1535.66,2770.92 
			-1532.5,2766.78 -1547.09,2755.68 -1551.28,2752.56 -1594.61,2811.39 -1597.58,2815.5 -1583.12,2826.48 		"/>
		
			<rect x="-1855.47" y="2824.17" transform="matrix(2.707283e-03 -1 1 2.707283e-03 -4624.4971 1031.1508)" width="120.39" height="19.84"/>
		<polygon points="-1754.1,2751.57 -1773.96,2751.52 -1774.38,2905.84 -1805.57,2905.76 -1805.62,2925.63 -1754.57,2925.77 		"/>
		<path d="M-1918.55,2926.29l21.67,0.06l9.06-45.89l-0.08,27.89l-0.05,18.25l65.16,0.18l0.09-33.83l0.05-18.25l-64-0.19l0.87-4.44
			l63.4,0.17l0.15-53.82l2.73,2.17l12.94-15.3l-2.37-1.96c-6.61-5.49-14.24-11.44-21.63-17.21c-8.11-6.33-16.47-12.87-23.73-18.95
			l0.04-14.46l-19.9-0.05l-0.04,14.46l-45.57,37.87l12.86,15.42l2.72-2.26l-0.13,46.46L-1918.55,2926.29z M-1869.59,2892.82
			l28.67,0.08l-0.04,15.59l-28.67-0.08L-1869.59,2892.82z M-1842.17,2850.3l-42.23-0.11l0.01-4.88l42.23,0.11L-1842.17,2850.3z
			 M-1842.1,2825.55l-42.23-0.11l0.01-5.39l42.23,0.11L-1842.1,2825.55z M-1864.22,2782.94l21.79,17.36l-42.52-0.11
			L-1864.22,2782.94z"/>
		<rect x="-2553.91" y="3024.81" width="23.92" height="92.01"/>
		<path d="M-2423.71,3027.67c-7.73-3.95-16.03-5.92-24.89-5.92c-8.87,0-17.17,1.97-24.89,5.92c-7.73,3.95-13.99,9.58-18.79,16.9
			c-4.8,7.32-7.2,15.5-7.2,24.53c0,14.89,4.78,27.07,14.34,36.55c9.56,9.48,21.74,14.21,36.55,14.21c14.81,0,26.99-4.74,36.55-14.21
			c9.56-9.48,14.34-21.66,14.34-36.55c0-9.03-2.4-17.21-7.2-24.53C-2409.72,3037.25-2415.98,3031.62-2423.71,3027.67z
			 M-2430.18,3088.81c-5.04,5.25-11.19,7.87-18.42,7.87c-7.24,0-13.38-2.62-18.43-7.87c-5.05-5.25-7.56-11.78-7.56-19.59
			c0-6.42,2.56-12.08,7.69-16.96c5.13-4.88,11.23-7.32,18.31-7.32s13.18,2.44,18.3,7.32c5.12,4.88,7.69,10.54,7.69,16.96
			C-2422.61,3077.03-2425.13,3083.56-2430.18,3088.81z"/>
		<rect x="-2367.09" y="3024.81" width="23.92" height="92.01"/>
		<path d="M-2236.89,3027.67c-7.73-3.95-16.03-5.92-24.89-5.92c-8.87,0-17.17,1.97-24.89,5.92c-7.73,3.95-13.99,9.58-18.79,16.9
			c-4.8,7.32-7.2,15.5-7.2,24.53c0,14.89,4.78,27.07,14.34,36.55c9.56,9.48,21.74,14.21,36.55,14.21c14.81,0,26.99-4.74,36.55-14.21
			c9.56-9.48,14.34-21.66,14.34-36.55c0-9.03-2.4-17.21-7.2-24.53C-2222.9,3037.25-2229.16,3031.62-2236.89,3027.67z
			 M-2243.35,3088.81c-5.04,5.25-11.19,7.87-18.43,7.87c-7.24,0-13.38-2.62-18.43-7.87s-7.56-11.78-7.56-19.59
			c0-6.42,2.56-12.08,7.69-16.96c5.12-4.88,11.23-7.32,18.3-7.32c7.08,0,13.18,2.44,18.3,7.32c5.12,4.88,7.69,10.54,7.69,16.96
			C-2235.79,3077.03-2238.31,3083.56-2243.35,3088.81z"/>
		<path d="M-2093.87,3026.33c-6.18,2.64-11.55,6.28-16.11,10.92c-9.03,9.27-13.54,20.5-13.54,33.68c0,14.32,4.92,25.91,14.76,34.78
			c9.92,9.03,21.43,13.54,34.53,13.54c4.8,0,11.84-1.43,21.11-4.27v-28.68c-2.52,3.01-5.61,5.39-9.27,7.14s-7.44,2.62-11.35,2.62
			c-7.4,0-13.4-2.34-18-7.02c-4.6-4.68-6.89-10.68-6.89-18c0-7.24,2.27-13.3,6.83-18.18c4.56-4.88,10.45-7.32,17.69-7.32
			c4.15,0,8.07,0.88,11.77,2.62c3.7,1.75,6.77,4.25,9.21,7.51V3027c-7.49-3.09-14.77-4.64-21.84-4.64
			C-2081.39,3022.37-2087.69,3023.69-2093.87,3026.33z"/>
		<path d="M-1956.41,3070.2c3.54-4.8,5.31-10.49,5.31-17.08c0-9.44-2.93-16.51-8.79-21.23c-5.86-4.72-13.59-7.08-23.19-7.08h-35.75
			v92.01h23.92v-35.39h0.24l22.57,35.39h29.77l-28.92-37.71C-1964.89,3077.97-1959.95,3075-1956.41,3070.2z M-1992.59,3066.05h-2.32
			v-22.94h2.32c11.06,0,16.6,3.83,16.6,11.47C-1976,3062.23-1981.53,3066.05-1992.59,3066.05z"/>
		<polygon points="-1916.33,3116.81 -1863.98,3116.81 -1863.98,3096.56 -1892.41,3096.56 -1892.41,3080.69 -1865.44,3080.69 
			-1865.44,3060.44 -1892.41,3060.44 -1892.41,3045.06 -1863.98,3045.06 -1863.98,3024.81 -1916.33,3024.81 		"/>
		<path d="M-1805.04,3024.81l-35.39,92.01h25.38l6.35-15.99h32.95l5.98,15.99h25.5l-34.65-92.01H-1805.04z M-1802.11,3082.52
			l9.88-29.29h0.24l9.76,29.29H-1802.11z"/>
		<polygon points="-1734.15,3045.06 -1714.38,3045.06 -1714.38,3116.81 -1690.46,3116.81 -1690.46,3045.06 -1670.69,3045.06 
			-1670.69,3024.81 -1734.15,3024.81 		"/>
		<rect x="-1642.51" y="3024.81" width="23.92" height="92.01"/>
		<polygon points="-1544.89,3080.69 -1567.09,3024.81 -1593.09,3024.81 -1554.4,3116.81 -1535.86,3116.81 -1496.56,3024.81 
			-1522.56,3024.81 		"/>
		<polygon points="-1426.03,3045.06 -1426.03,3024.81 -1478.38,3024.81 -1478.38,3116.81 -1426.03,3116.81 -1426.03,3096.56 
			-1454.47,3096.56 -1454.47,3080.69 -1427.5,3080.69 -1427.5,3060.44 -1454.47,3060.44 -1454.47,3045.06 		"/>
	</g>
</g>
<g>
	<path d="M-1936.34,384.45l0.17-60.87l-285.46-0.77l-0.17,60.87h0l-0.61,223.15l61.16,0.16l0,0l163.14,0.44l0,0l61.16,0.16
		l0.17-60.86l0,0L-1936.34,384.45L-1936.34,384.45z M-1997.94,546.58l-163.14-0.44l0.44-162.29l163.14,0.44L-1997.94,546.58z"/>
	<polygon points="-2461.73,732.38 -2522.91,732.22 -2523.22,843.81 -2635.33,843.51 -2635.49,904.38 -2523.38,904.68 
		-2523.69,1016.27 -2462.5,1016.43 -2462.2,904.85 -2350.04,905.15 -2349.88,844.28 -2462.03,843.98 	"/>
	<polygon points="-2049.43,733.51 -2110.62,733.34 -2110.62,733.34 -2222.76,733.04 -2222.93,793.89 -2110.79,794.19 
		-2111.39,1017.38 -2050.2,1017.54 -2049.6,794.35 -1937.47,794.66 -1937.3,733.81 -2049.43,733.51 	"/>
	
		<rect x="-1999.7" y="845.17" transform="matrix(2.688751e-03 -1 1 2.688751e-03 -2839.7175 -1095.8584)" width="60.88" height="61.17"/>
	
		<rect x="-2634.7" y="433.22" transform="matrix(2.689170e-03 -1 1 2.689170e-03 -2949.7822 -2030.1232)" width="284.03" height="61.16"/>
</g>
<g>
	<path class="st0" d="M1251.54,260.61l0.26-95.42l-447.5-1.2l-0.26,95.42h0l-0.95,349.83l95.88,0.26v0l255.75,0.69l0,0l95.88,0.26
		l0.26-95.41l0,0L1251.54,260.61L1251.54,260.61z M1154.97,514.77l-255.75-0.69l0.69-254.42l255.75,0.69L1154.97,514.77z"/>
	<polygon class="st0" points="427.92,806.04 332.01,805.78 331.53,980.73 155.78,980.25 155.52,1075.68 331.27,1076.15 
		330.8,1251.08 426.71,1251.34 427.19,1076.41 603,1076.88 603.26,981.46 427.45,980.98 	"/>
	<polygon class="st0" points="1074.26,807.81 978.33,807.55 978.33,807.55 802.54,807.07 802.28,902.46 978.08,902.94 
		977.13,1252.82 1073.05,1253.08 1074,903.19 1249.78,903.67 1250.04,808.28 1074.26,807.81 	"/>
	
		<rect x="1152.22" y="982.85" transform="matrix(2.688751e-03 -1 1 2.688751e-03 165.9164 2227.9587)" class="st0" width="95.44" height="95.89"/>
	
		<rect x="156.77" y="337.06" transform="matrix(2.689170e-03 -1 1 2.689170e-03 -6.6286 763.3577)" class="st0" width="445.25" height="95.88"/>
</g>
<g>
	<g>
		<polygon points="-2555.96,1192.02 -2572.48,1191.98 -2572.58,1226.83 -2614.53,1226.72 -2614.57,1243.16 -2572.62,1243.27 
			-2572.75,1291.67 -2556.23,1291.71 -2556.1,1243.32 -2514.16,1243.43 -2514.12,1226.99 -2556.06,1226.88 		"/>
		<polygon points="-2433.42,1209.74 -2395.49,1209.84 -2395.72,1291.83 -2379.2,1291.88 -2378.98,1209.89 -2332.99,1210.01 
			-2332.95,1193.57 -2433.37,1193.3 		"/>
		<polygon points="-2357.82,1231.72 -2357.88,1252.71 -2336.61,1252.79 -2336.61,1231.7 		"/>
		<polygon points="-1956.21,1260.22 -1995.59,1260.11 -1995.56,1247.42 -1956.17,1247.52 -1956.13,1233.9 -1995.52,1233.79 
			-1995.48,1219.96 -1956.1,1220.06 -1956.06,1206.44 -2002.36,1206.31 -2002.33,1193 -2016.03,1192.97 -2016.08,1210.78 
			-2028.12,1225.71 -2028.09,1213.84 -2020.82,1204.02 -2018.98,1201.63 -2027.46,1195.21 -2029.89,1193.42 -2055.05,1227.4 
			-2056.77,1229.78 -2048.38,1236.13 -2045.93,1237.95 -2041.84,1232.46 -2042.01,1293.59 -2028.31,1293.62 -2028.12,1226.71 
			-2017.96,1234.88 -2009.2,1223.96 -2009.39,1293.68 -1995.68,1293.71 -1995.63,1273.74 -1956.24,1273.85 		"/>
		<g>
			
				<rect x="-2206.36" y="1234.76" transform="matrix(2.689354e-03 -1 1 2.689354e-03 -3406.2549 -934.3813)" width="69.56" height="11.52"/>
			<polygon points="-2159.2,1192.81 -2159.44,1281.98 -2177.55,1281.93 -2177.58,1293.42 -2147.94,1293.5 -2147.67,1192.84 			"/>
			<path d="M-2192.06,1211.65c-4.71-3.66-9.57-7.44-13.78-10.95l0.02-8.35l-11.55-0.03l-0.02,8.35l-26.46,21.88l7.47,8.91l1.58-1.31
				l-0.07,26.85l-8.28,36.79l12.59,0.03l5.26-26.51l-0.04,16.12l0,0l-0.03,10.54l37.84,0.1l0.05-19.55l0,0l0.03-10.55l-37.16-0.11
				l0.51-2.57l36.82,0.1l0.08-31.1l1.58,1.26l7.51-8.84l-1.38-1.13C-2183.34,1218.42-2187.77,1214.98-2192.06,1211.65z
				 M-2214.76,1283.46l0.02-9.01l16.65,0.04l-0.02,9.01L-2214.76,1283.46z M-2198.8,1247.07l-0.01,2.82l-24.53-0.07l0.01-2.82
				L-2198.8,1247.07z M-2198.76,1232.48l-0.01,3.11l-24.53-0.07l0.01-3.11L-2198.76,1232.48z M-2223.65,1220.93l12.04-9.97
				l12.65,10.03L-2223.65,1220.93z"/>
		</g>
	</g>
	<g>
		<g>
			<path d="M-2593.58,1350.72v53.16h-13.89v-53.16H-2593.58z"/>
			<path d="M-2560.77,1352.37c4.49-2.28,9.31-3.42,14.45-3.42c5.15,0,9.97,1.14,14.46,3.42c4.49,2.28,8.12,5.53,10.91,9.77
				c2.79,4.23,4.18,8.95,4.18,14.17c0,8.6-2.78,15.64-8.33,21.12c-5.55,5.48-12.62,8.21-21.22,8.21s-15.67-2.74-21.22-8.21
				c-5.55-5.48-8.33-12.52-8.33-21.12c0-5.22,1.39-9.94,4.18-14.17C-2568.89,1357.91-2565.26,1354.66-2560.77,1352.37z
				 M-2535.68,1366.58c-2.98-2.82-6.52-4.23-10.63-4.23c-4.11,0-7.65,1.41-10.63,4.23c-2.98,2.82-4.46,6.09-4.46,9.8
				c0,4.51,1.46,8.28,4.39,11.32c2.93,3.03,6.5,4.55,10.7,4.55c4.2,0,7.77-1.52,10.7-4.55c2.93-3.03,4.39-6.8,4.39-11.32
				C-2531.22,1372.67-2532.71,1369.4-2535.68,1366.58z"/>
			<path d="M-2485.09,1350.72v53.16h-13.89v-53.16H-2485.09z"/>
			<path d="M-2452.28,1352.37c4.49-2.28,9.31-3.42,14.45-3.42c5.15,0,9.97,1.14,14.46,3.42c4.49,2.28,8.12,5.53,10.91,9.77
				c2.79,4.23,4.18,8.95,4.18,14.17c0,8.6-2.78,15.64-8.33,21.12c-5.55,5.48-12.62,8.21-21.22,8.21s-15.67-2.74-21.22-8.21
				c-5.55-5.48-8.33-12.52-8.33-21.12c0-5.22,1.39-9.94,4.18-14.17C-2460.41,1357.91-2456.77,1354.66-2452.28,1352.37z
				 M-2427.2,1366.58c-2.98-2.82-6.52-4.23-10.63-4.23c-4.11,0-7.65,1.41-10.63,4.23c-2.98,2.82-4.46,6.09-4.46,9.8
				c0,4.51,1.46,8.28,4.39,11.32c2.93,3.03,6.5,4.55,10.7,4.55c4.2,0,7.77-1.52,10.7-4.55c2.93-3.03,4.39-6.8,4.39-11.32
				C-2422.73,1372.67-2424.22,1369.4-2427.2,1366.58z"/>
			<path d="M-2316.66,1351.99v16.57c-1.42-1.88-3.2-3.32-5.35-4.34c-2.15-1.01-4.43-1.52-6.84-1.52c-4.2,0-7.63,1.41-10.27,4.23
				c-2.65,2.82-3.97,6.32-3.97,10.51c0,4.23,1.33,7.7,4,10.4c2.67,2.7,6.15,4.05,10.45,4.05c2.27,0,4.46-0.5,6.59-1.52
				c2.13-1.01,3.92-2.39,5.39-4.13v16.57c-5.39,1.64-9.47,2.47-12.26,2.47c-7.61,0-14.29-2.61-20.05-7.83
				c-5.72-5.12-8.57-11.82-8.57-20.09c0-7.62,2.62-14.1,7.87-19.46c2.64-2.68,5.76-4.78,9.35-6.31c3.59-1.53,7.25-2.29,10.98-2.29
				C-2325.23,1349.31-2321,1350.2-2316.66,1351.99z"/>
			<path d="M-2269.11,1382.09l16.79,21.79h-17.29l-13.11-20.45h-0.14v20.45h-13.89v-53.16h20.76c5.57,0,10.06,1.36,13.46,4.09
				c3.4,2.73,5.1,6.82,5.1,12.27c0,3.81-1.03,7.1-3.08,9.87C-2262.56,1379.72-2265.43,1381.44-2269.11,1382.09z M-2282.86,1361.29
				v13.26h1.35c6.42,0,9.64-2.21,9.64-6.63s-3.21-6.63-9.64-6.63H-2282.86z"/>
			<path d="M-2206.83,1362.42h-16.51v8.88h15.66v11.7h-15.66v9.17h16.51v11.7h-30.4v-53.16h30.4V1362.42z"/>
			<path d="M-2155.6,1394.64h-19.13l-3.68,9.24h-14.74l20.55-53.16h15.16l20.12,53.16h-14.81L-2155.6,1394.64z M-2159.35,1384.07
				l-5.67-16.92h-0.14l-5.74,16.92H-2159.35z"/>
			<path d="M-2106.07,1362.42v41.46h-13.89v-41.46h-11.48v-11.7h36.85v11.7H-2106.07z"/>
			<path d="M-2064.33,1350.72v53.16h-13.89v-53.16H-2064.33z"/>
			<path d="M-2034.43,1350.72l12.9,32.29l12.97-32.29h15.09l-22.82,53.16h-10.77l-22.46-53.16H-2034.43z"/>
			<path d="M-1952.52,1362.42h-16.51v8.88h15.66v11.7h-15.66v9.17h16.51v11.7h-30.4v-53.16h30.4V1362.42z"/>
		</g>
	</g>
</g>
<g>
	<g>
		<g>
			<polygon class="st1" points="-2633.41,-1244.78 -2631.54,-1936.55 -1939.78,-1934.69 			"/>
			<g>
				<g>
					<g>
						
							<rect x="-2111.69" y="-2046.25" transform="matrix(2.702822e-03 -1 1 2.702822e-03 -171.0065 -3980.9526)" width="60.65" height="283.02"/>
					</g>
				</g>
				<g>
					<g>
						
							<rect x="-2112.29" y="-1823.89" transform="matrix(2.702822e-03 -1 1 2.702822e-03 -393.9626 -3759.7971)" width="60.64" height="283.02"/>
					</g>
				</g>
				<g>
					<g>
						
							<rect x="-2111.98" y="-1823.58" transform="matrix(2.702822e-03 -1 1 2.702822e-03 -171.8933 -3758.8872)" width="283.01" height="60.64"/>
					</g>
				</g>
				<g>
					<g>
						
							<rect x="-2334.36" y="-1824.18" transform="matrix(2.702822e-03 -1 1 2.702822e-03 -393.0721 -3981.8665)" width="283.01" height="60.64"/>
					</g>
				</g>
			</g>
			<g>
				<g>
					<g>
						
							<rect x="-2521.85" y="-1527.42" transform="matrix(2.702822e-03 -1 1 2.702822e-03 -1098.8783 -3873.6838)" width="60.65" height="283.01"/>
					</g>
				</g>
				<g>
					<g>
						
							<rect x="-2633.06" y="-1416.25" transform="matrix(2.702822e-03 -1 1 2.702822e-03 -1098.8955 -3873.7087)" width="283.04" height="60.66"/>
					</g>
				</g>
			</g>
			<g>
				<g>
					<g>
						
							<rect x="-2112.79" y="-1637.51" transform="matrix(2.702822e-03 -1 1 2.702822e-03 -580.8564 -3574.4285)" width="60.63" height="283.02"/>
					</g>
				</g>
				<g>
					<g>
						
							<rect x="-2224.28" y="-1415.14" transform="matrix(2.702822e-03 -1 1 2.702822e-03 -692.3453 -3463.8315)" width="283.02" height="60.67"/>
					</g>
				</g>
				<g>
					<g>
						
							<rect x="-2002.91" y="-1414.82" transform="matrix(2.702822e-03 -1 1 2.702822e-03 -582.7538 -3353.3254)" width="60.66" height="60.64"/>
					</g>
				</g>
			</g>
			<g>
				<g>
					<g>
						
							<rect x="-2633.03" y="-1825.29" transform="matrix(2.702822e-03 -1 1 2.702822e-03 -689.8254 -4281.6328)" width="283.01" height="60.64"/>
					</g>
				</g>
			</g>
		</g>
	</g>
	<g>
		<g>
			<path d="M-1936.34-1875.97l0.17-60.87l-285.46-0.77l-0.17,60.87h0l-0.61,223.15l61.16,0.16l0,0l163.14,0.44l0,0l61.16,0.16
				l0.17-60.86l0,0L-1936.34-1875.97L-1936.34-1875.97z M-1997.94-1713.84l-163.14-0.44l0.44-162.29l163.14,0.44L-1997.94-1713.84z"
				/>
			<polygon points="-2461.73,-1528.04 -2522.91,-1528.21 -2523.22,-1416.61 -2635.33,-1416.91 -2635.49,-1356.04 -2523.38,-1355.74 
				-2523.69,-1244.15 -2462.5,-1243.99 -2462.2,-1355.58 -2350.04,-1355.28 -2349.88,-1416.15 -2462.03,-1416.45 			"/>
			<polygon points="-2049.43,-1526.92 -2110.62,-1527.08 -2110.62,-1527.08 -2222.76,-1527.38 -2222.93,-1466.54 -2110.79,-1466.23 
				-2111.39,-1243.05 -2050.2,-1242.88 -2049.6,-1466.07 -1937.47,-1465.77 -1937.3,-1526.62 -2049.43,-1526.92 			"/>
			
				<rect x="-1999.7" y="-1415.26" transform="matrix(2.688751e-03 -1 1 2.688751e-03 -579.3014 -3350.2048)" width="60.88" height="61.17"/>
			
				<rect x="-2634.7" y="-1827.2" transform="matrix(2.689170e-03 -1 1 2.689170e-03 -689.3662 -4284.4688)" width="284.03" height="61.16"/>
		</g>
		<g>
			<g>
				<polygon points="-2555.96,-1068.4 -2572.48,-1068.44 -2572.58,-1033.59 -2614.53,-1033.71 -2614.57,-1017.26 -2572.62,-1017.15 
					-2572.75,-968.76 -2556.23,-968.71 -2556.1,-1017.11 -2514.16,-1016.99 -2514.12,-1033.44 -2556.06,-1033.55 				"/>
				<polygon points="-2433.42,-1050.68 -2395.49,-1050.58 -2395.72,-968.59 -2379.2,-968.55 -2378.98,-1050.53 -2332.99,-1050.41 
					-2332.95,-1066.85 -2433.37,-1067.12 				"/>
				<polygon points="-2357.82,-1028.7 -2357.88,-1007.72 -2336.61,-1007.63 -2336.61,-1028.73 				"/>
				<polygon points="-1956.21,-1000.21 -1995.59,-1000.31 -1995.56,-1013.01 -1956.17,-1012.9 -1956.13,-1026.53 -1995.52,-1026.64 
					-1995.48,-1040.47 -1956.1,-1040.36 -1956.06,-1053.99 -2002.36,-1054.11 -2002.33,-1067.42 -2016.03,-1067.46 
					-2016.08,-1049.65 -2028.12,-1034.71 -2028.09,-1046.58 -2020.82,-1056.4 -2018.98,-1058.8 -2027.46,-1065.21 
					-2029.89,-1067.01 -2055.05,-1033.02 -2056.77,-1030.64 -2048.38,-1024.3 -2045.93,-1022.47 -2041.84,-1027.97 
					-2042.01,-966.84 -2028.31,-966.8 -2028.12,-1033.71 -2017.96,-1025.54 -2009.2,-1036.46 -2009.39,-966.75 -1995.68,-966.71 
					-1995.63,-986.68 -1956.24,-986.58 				"/>
				<g>
					
						<rect x="-2206.36" y="-1025.66" transform="matrix(2.689354e-03 -1 1 2.689354e-03 -1145.8389 -3188.7266)" width="69.56" height="11.52"/>
					<polygon points="-2159.2,-1067.61 -2159.44,-978.44 -2177.55,-978.49 -2177.58,-967.01 -2147.94,-966.93 -2147.67,-1067.58 
											"/>
					<path d="M-2192.06-1048.77c-4.71-3.66-9.57-7.44-13.78-10.95l0.02-8.35l-11.55-0.03l-0.02,8.35l-26.46,21.88l7.47,8.91
						l1.58-1.31l-0.07,26.85l-8.28,36.79l12.59,0.03l5.26-26.51l-0.04,16.12l0,0l-0.03,10.54l37.84,0.1l0.05-19.55l0,0l0.03-10.55
						l-37.16-0.11l0.51-2.57l36.82,0.1l0.08-31.1l1.58,1.26l7.51-8.84l-1.38-1.13C-2183.34-1042-2187.77-1045.44-2192.06-1048.77z
						 M-2214.76-976.96l0.02-9.01l16.65,0.04l-0.02,9.01L-2214.76-976.96z M-2198.8-1013.35l-0.01,2.82l-24.53-0.07l0.01-2.82
						L-2198.8-1013.35z M-2198.76-1027.95l-0.01,3.11l-24.53-0.07l0.01-3.11L-2198.76-1027.95z M-2223.65-1039.49l12.04-9.97
						l12.65,10.03L-2223.65-1039.49z"/>
				</g>
			</g>
			<g>
				<g>
					<path d="M-2593.58-909.71v53.16h-13.89v-53.16H-2593.58z"/>
					<path d="M-2560.77-908.05c4.49-2.28,9.31-3.42,14.45-3.42c5.15,0,9.97,1.14,14.46,3.42c4.49,2.28,8.12,5.53,10.91,9.77
						c2.79,4.23,4.18,8.95,4.18,14.17c0,8.6-2.78,15.64-8.33,21.12c-5.55,5.48-12.62,8.21-21.22,8.21s-15.67-2.74-21.22-8.21
						c-5.55-5.48-8.33-12.52-8.33-21.12c0-5.22,1.39-9.94,4.18-14.17C-2568.89-902.51-2565.26-905.77-2560.77-908.05z
						 M-2535.68-893.84c-2.98-2.82-6.52-4.23-10.63-4.23c-4.11,0-7.65,1.41-10.63,4.23c-2.98,2.82-4.46,6.09-4.46,9.8
						c0,4.51,1.46,8.28,4.39,11.32c2.93,3.03,6.5,4.55,10.7,4.55c4.2,0,7.77-1.52,10.7-4.55c2.93-3.03,4.39-6.8,4.39-11.32
						C-2531.22-887.75-2532.71-891.02-2535.68-893.84z"/>
					<path d="M-2485.09-909.71v53.16h-13.89v-53.16H-2485.09z"/>
					<path d="M-2452.28-908.05c4.49-2.28,9.31-3.42,14.45-3.42c5.15,0,9.97,1.14,14.46,3.42c4.49,2.28,8.12,5.53,10.91,9.77
						c2.79,4.23,4.18,8.95,4.18,14.17c0,8.6-2.78,15.64-8.33,21.12c-5.55,5.48-12.62,8.21-21.22,8.21s-15.67-2.74-21.22-8.21
						c-5.55-5.48-8.33-12.52-8.33-21.12c0-5.22,1.39-9.94,4.18-14.17C-2460.41-902.51-2456.77-905.77-2452.28-908.05z
						 M-2427.2-893.84c-2.98-2.82-6.52-4.23-10.63-4.23c-4.11,0-7.65,1.41-10.63,4.23c-2.98,2.82-4.46,6.09-4.46,9.8
						c0,4.51,1.46,8.28,4.39,11.32c2.93,3.03,6.5,4.55,10.7,4.55c4.2,0,7.77-1.52,10.7-4.55c2.93-3.03,4.39-6.8,4.39-11.32
						C-2422.73-887.75-2424.22-891.02-2427.2-893.84z"/>
					<path d="M-2316.66-908.44v16.57c-1.42-1.88-3.2-3.32-5.35-4.34c-2.15-1.01-4.43-1.52-6.84-1.52c-4.2,0-7.63,1.41-10.27,4.23
						c-2.65,2.82-3.97,6.32-3.97,10.51c0,4.23,1.33,7.7,4,10.4c2.67,2.7,6.15,4.05,10.45,4.05c2.27,0,4.46-0.5,6.59-1.52
						c2.13-1.01,3.92-2.39,5.39-4.13v16.57c-5.39,1.64-9.47,2.47-12.26,2.47c-7.61,0-14.29-2.61-20.05-7.83
						c-5.72-5.12-8.57-11.82-8.57-20.09c0-7.62,2.62-14.1,7.87-19.46c2.64-2.68,5.76-4.78,9.35-6.31c3.59-1.53,7.25-2.29,10.98-2.29
						C-2325.23-911.12-2321-910.22-2316.66-908.44z"/>
					<path d="M-2269.11-878.33l16.79,21.79h-17.29l-13.11-20.45h-0.14v20.45h-13.89v-53.16h20.76c5.57,0,10.06,1.36,13.46,4.09
						c3.4,2.73,5.1,6.82,5.1,12.27c0,3.81-1.03,7.1-3.08,9.87C-2262.56-880.7-2265.43-878.99-2269.11-878.33z M-2282.86-899.13
						v13.26h1.35c6.42,0,9.64-2.21,9.64-6.63c0-4.42-3.21-6.63-9.64-6.63H-2282.86z"/>
					<path d="M-2206.83-898h-16.51v8.88h15.66v11.7h-15.66v9.17h16.51v11.7h-30.4v-53.16h30.4V-898z"/>
					<path d="M-2155.6-865.78h-19.13l-3.68,9.24h-14.74l20.55-53.16h15.16l20.12,53.16h-14.81L-2155.6-865.78z M-2159.35-876.36
						l-5.67-16.92h-0.14l-5.74,16.92H-2159.35z"/>
					<path d="M-2106.07-898v41.46h-13.89V-898h-11.48v-11.7h36.85v11.7H-2106.07z"/>
					<path d="M-2064.33-909.71v53.16h-13.89v-53.16H-2064.33z"/>
					<path d="M-2034.43-909.71l12.9,32.29l12.97-32.29h15.09l-22.82,53.16h-10.77l-22.46-53.16H-2034.43z"/>
					<path d="M-1952.52-898h-16.51v8.88h15.66v11.7h-15.66v9.17h16.51v11.7h-30.4v-53.16h30.4V-898z"/>
				</g>
			</g>
		</g>
	</g>
</g>
</svg>
