<?xml version="1.0" encoding="utf-8"?>
<!-- Generator: Adobe Illustrator 24.1.0, SVG Export Plug-In . SVG Version: 6.00 Build 0)  -->
<svg version="1.1" id="Layer_1" xmlns="http://www.w3.org/2000/svg" xmlns:xlink="http://www.w3.org/1999/xlink" x="0px" y="0px"
	 viewBox="0 0 100 100" style="enable-background:new 0 0 100 125;" xml:space="preserve">
<style type="text/css">
	.st0{fill:#FFFFFF;}
</style>
<path class="st0" d="M50,90c-22.1,0-40-17.9-40-40s17.9-40,40-40s40,17.9,40,40S72.1,90,50,90z M50,14c-19.9,0-36,16.1-36,36
	s16.1,36,36,36s36-16.1,36-36S69.9,14,50,14z"/>
<path class="st0" d="M49.6,67.8L49.6,67.8c-0.6,0-1.2-0.3-1.5-0.7L29.3,44.4c-0.7-0.9-0.6-2.1,0.3-2.8s2.1-0.6,2.8,0.3l17.2,20.8
	l18-21.7c0.7-0.8,2-1,2.8-0.3s1,2,0.3,2.8L51.1,67C50.7,67.5,50.2,67.8,49.6,67.8z"/>
</svg>
