<?xml version="1.0" encoding="utf-8"?>
<!-- Generator: Adobe Illustrator 22.1.0, SVG Export Plug-In . SVG Version: 6.00 Build 0)  -->
<svg version="1.1" id="Capa_1" xmlns="http://www.w3.org/2000/svg" xmlns:xlink="http://www.w3.org/1999/xlink" x="0px" y="0px"
	 viewBox="0 0 150 150" style="enable-background:new 0 0 150 150;" xml:space="preserve">
<style type="text/css">
	.st0{fill:#083C8E;}
	.st1{fill:#FFFFFF;}
</style>
<rect y="0" class="st0" width="150" height="150"/>
<g>
	<path class="st1" d="M30.3,49.4c-0.9-0.9-2.3-1.7-4.2-2c-3.6-0.8-8.9-1.2-8.9-3.5c0-1.7,2.1-1.8,3.4-1.8c1,0,1.9,0.2,2.5,0.6
		c0.7,0.4,1,1.1,1,2.1h7.3c-0.1-2.3-0.9-4-2.1-5.1c-2.1-2-5.6-2.7-8.9-2.7c-3,0-6.7,0.7-9,2.7l0,0c-1.2,1.1-2,2.6-2,4.7
		c0,2.5,0.9,4,2.3,5.1c2.3,1.7,5.8,2.1,8.9,2.8c1.4,0.3,3.9,0.7,3.9,2.6c0,0.4-0.1,0.8-0.3,1.1l0,0c-0.7,1-2.2,1.4-3.4,1.4
		c-1.1,0-2.2-0.3-2.9-0.8c-0.2-0.2-0.4-0.4-0.6-0.6c-0.4-0.5-0.7-1.2-0.7-2.1H9.1c0,0.8,0.1,1.5,0.3,2.1l0,0c1.3,5,6.4,6.5,11.5,6.5
		c4.8,0,10.2-1.7,11.3-6.5l0,0c0.2-0.6,0.2-1.3,0.2-2.1C32.2,52.7,31.8,50.9,30.3,49.4"/>
	<path class="st1" d="M73.2,39.6c-0.4,0.4-0.8,0.9-1,1.3v-1.3l-0.1-2h-7.7v2V49v0.4v6.5v5.8h7.9v-5.8v-6.5V49v-0.4
		c0-2.6,1.3-5.2,4.3-5.2c3.8,0,4,2.6,4,5.5l0,0c0,0.2,0,0.9,0,1.1v5.8v5.8h7.9v-5.8v-6.5V49v-2.7c0-2-0.2-4.7-1.8-6.7
		c-1.3-1.5-3.4-2.7-6.9-2.7C77.4,37,74.8,38,73.2,39.6"/>
	<path class="st1" d="M58.8,55.9c0.9-1.8,1.5-3.9,1.5-6.2c0-0.1,0-0.2,0-0.3c-0.1-4-1.8-7.5-4.7-9.8l0,0c-2.1-1.7-4.9-2.7-8-2.7
		s-5.9,1-8,2.7l0,0c-2.8,2.2-4.6,5.7-4.6,9.8c0,0.1,0,0.2,0,0.3c0,2.3,0.5,4.4,1.5,6.2l0,0c2,4,6.1,6.5,11.2,6.5
		C52.7,62.5,56.8,59.9,58.8,55.9 M52.4,49.7c0,2.4-0.7,5.1-2.7,6.2c-0.6,0.3-1.3,0.5-2.1,0.5s-1.5-0.2-2.1-0.5
		c-2-1.1-2.7-3.8-2.7-6.2c0-0.1,0-0.2,0-0.3c0.1-3,1.2-6.4,4.8-6.4c3.5,0,4.7,3.4,4.8,6.4C52.4,49.5,52.4,49.6,52.4,49.7"/>
	<rect x="44.2" y="25.1" class="st1" width="6.5" height="9.5"/>
	<path class="st1" d="M121.4,49.4v6.5v5.8h7.9v-5.8v-6.1c0-0.1,0-0.3,0-0.4c0.2-2.8,2.2-5.3,5.9-5.3c1.1,0,2,0.2,3,0.5v-5v-2.2
		c-0.6-0.1-1.3-0.2-1.9-0.2c-2.4,0-4.5,0.8-5.9,2.4c-0.6,0.6-1,1.4-1.3,2.3l-0.1-2.3v-2h-7.7v2L121.4,49.4L121.4,49.4z"/>
	<path class="st1" d="M141.5,27.2c-0.2-0.5-0.5-0.9-0.8-1.2c-0.3-0.3-0.8-0.6-1.2-0.8c-0.5-0.2-1-0.3-1.5-0.3s-1,0.1-1.5,0.3
		c-0.5,0.2-0.9,0.5-1.2,0.8c-0.4,0.3-0.6,0.8-0.8,1.2c-0.2,0.5-0.3,1-0.3,1.5c0,0.6,0.1,1.1,0.3,1.5c0.2,0.5,0.5,0.9,0.8,1.2
		c0.4,0.3,0.8,0.6,1.2,0.8c0.5,0.2,1,0.3,1.5,0.3s1-0.1,1.5-0.3s0.9-0.5,1.2-0.8s0.6-0.8,0.8-1.2c0.2-0.5,0.3-1,0.3-1.5
		S141.7,27.7,141.5,27.2 M140.9,30c-0.2,0.4-0.4,0.8-0.7,1.1c-0.3,0.3-0.6,0.5-1,0.7c-0.4,0.2-0.8,0.3-1.3,0.3s-0.9-0.1-1.3-0.3
		c-0.4-0.2-0.7-0.4-1-0.7c-0.3-0.3-0.5-0.7-0.7-1.1s-0.2-0.9-0.2-1.3c0-0.5,0.1-0.9,0.2-1.3c0.2-0.4,0.4-0.8,0.7-1.1
		c0.3-0.3,0.6-0.5,1-0.7s0.8-0.3,1.3-0.3s0.9,0.1,1.3,0.3c0.4,0.2,0.7,0.4,1,0.7c0.3,0.3,0.5,0.7,0.7,1.1s0.2,0.8,0.2,1.3
		C141.2,29.2,141.1,29.6,140.9,30"/>
	<path class="st1" d="M137.4,28.5h0.9c0.4,0,0.6-0.2,0.6-0.5c0-0.4-0.2-0.5-0.6-0.5h-0.9V28.5z M136.6,26.7h2.1c0.7,0,1.1,0.5,1.1,1
		c0,0.4-0.2,0.8-0.6,1l0,0c0.4,0.1,0.5,0.5,0.6,0.9c0,0.2,0,0.7,0.2,0.9h-1c-0.1-0.2-0.1-0.6-0.1-0.9c-0.1-0.4-0.2-0.6-0.6-0.6h-0.8
		v1.5h-0.8L136.6,26.7L136.6,26.7z"/>
	<path class="st1" d="M100.2,54.9c0-1.9,1.5-2.6,3.2-3.1s3.8-0.6,4.9-1.3c0.2,5-1.1,7.1-4.8,7.1C101.8,57.6,100.2,56.8,100.2,54.9z
		 M100.7,45.1c0.4-2,1.8-3,3.9-3c1.6,0,3.8,0.7,3.8,2.5c0,1.5-0.7,2-2.1,2.2c-5.5,1.1-14,0.5-14,8.4c0,5,3.6,7.3,8.2,7.3
		c2.9,0,5.9-0.8,7.9-3c0.1,0.8,0.2,1.5,0.5,2.3h7.9c-0.9-1.9-0.9-4.1-0.9-6.2V45.1c0-6.8-5.5-8.1-11.2-8.1c-2.7,0-5.5,0.5-7.7,1.7
		c-2.1,1.3-3.6,3.3-3.8,6.5h7.5C100.7,45.2,100.7,45.1,100.7,45.1z"/>
	<path class="st1" d="M53,98.1c0-3.4,1.5-6.5,4.1-8.8c2.3-2,4.8-3.3,6.9-4.6c2-1.3,3.4-2.6,3.4-4.4c0-2.1-1.3-3.3-3.4-3.3
		c-3.4,0-4.4,2.5-4.4,5.3h-6c-0.4-6.5,3.8-11,10.4-11c5.2,0,9.9,2.7,9.9,8.4c0,5.1-3.6,6.9-7.5,9.3c-2,1.2-3,1.9-4.8,3.6h12.5V98
		L53,98.1L53,98.1z"/>
	<path class="st1" d="M76.8,84.9c0-7.1,2.9-13.5,10.3-13.5c7.7,0,10.7,6.4,10.7,13.5c0,7-3,13.5-10.7,13.5
		C79.6,98.4,76.8,91.9,76.8,84.9z M91.6,84.9c0-3.4-0.1-8.3-4.3-8.3c-4.1,0-4.3,4.8-4.3,8.3s0.2,8.3,4.3,8.3
		C91.5,93.2,91.6,88.3,91.6,84.9z"/>
	<path class="st1" d="M100.2,81.9v-4.7c3.7,0.1,7.5-1.3,7.8-5.4h5.3v26.3h-6.8V81.9H100.2z"/>
	<path class="st1" d="M123.4,91.2c0.2,0.9,0.6,1.4,1.3,1.9c0.6,0.4,1.5,0.6,2.3,0.6c3.5,0,4.7-3.2,4.9-6.7h-0.1
		c-1.2,2-3.6,2.8-5.9,2.8c-5.3,0-8.8-3.8-8.8-9c0-5.6,4.6-9.5,10.1-9.5c7.7,0,11,5.8,11,12.9c0,7.6-3.2,14.1-11.5,14.1
		c-4.8,0-8.3-2.3-9.2-7.2L123.4,91.2z M131.7,80.8c0-2.4-1.7-4.2-4.4-4.2c-2.4,0-4.2,1.9-4.2,4.1c0,2.5,1.6,4.4,4.2,4.4
		C130,85.1,131.7,83.2,131.7,80.8z"/>
	<path class="st1" d="M41.1,117.1h3v5.3h5.6v-5.3h3v13.7h-3v-5.9h-5.6v5.9h-3V117.1z"/>
	<path class="st1" d="M59.4,120.6c3.1,0,5.2,2.1,5.2,5.3c0,3.2-2,5.2-5.2,5.2c-3.1,0-5.1-2.1-5.1-5.2
		C54.2,122.7,56.3,120.6,59.4,120.6z M59.4,129c1.9,0,2.4-1.6,2.4-3.2s-0.6-3.2-2.4-3.2c-1.8,0-2.4,1.6-2.4,3.2
		C57,127.5,57.5,129,59.4,129z"/>
	<path class="st1" d="M65.8,120.9h2.6v1.4h0.1c0.7-1.1,1.9-1.7,3-1.7c2.9,0,3.6,1.6,3.6,4.1v6.1h-2.7v-5.6c0-1.6-0.5-2.4-1.8-2.4
		c-1.5,0-2.1,0.8-2.1,2.8v5.2h-2.7V120.9z"/>
	<path class="st1" d="M86.3,130.2c0,1.6-0.6,4.4-5.2,4.4c-2,0-4.2-0.9-4.4-3.2h2.7c0.3,1,1.1,1.4,2,1.4c1.5,0,2.2-1,2.2-2.5V129l0,0
		c-0.6,1.1-1.8,1.5-3,1.5c-3,0-4.3-2.3-4.3-5c0-2.6,1.5-4.9,4.3-4.9c1.3,0,2.3,0.4,3,1.6l0,0v-1.3h2.6v9.3H86.3z M83.7,125.7
		c0-1.6-0.6-3.1-2.3-3.1c-1.5,0-2.2,1.3-2.2,2.8c0,1.4,0.5,3,2.2,3C83,128.5,83.7,127.2,83.7,125.7z"/>
	<path class="st1" d="M93.2,117.1h3v5.7l5.4-5.7h3.8l-5.4,5.4l5.9,8.3h-3.8l-4.1-6.2l-1.7,1.8v4.4h-3v-13.7
		C93.3,117.1,93.2,117.1,93.2,117.1z"/>
	<path class="st1" d="M111.2,120.6c3.1,0,5.2,2.1,5.2,5.3c0,3.2-2,5.2-5.2,5.2c-3.1,0-5.1-2.1-5.1-5.2
		C106,122.7,108,120.6,111.2,120.6z M111.2,129c1.9,0,2.4-1.6,2.4-3.2s-0.6-3.2-2.4-3.2s-2.4,1.6-2.4,3.2
		C108.8,127.5,109.3,129,111.2,129z"/>
	<path class="st1" d="M117.6,120.9h2.6v1.4h0.1c0.7-1.1,1.9-1.7,3-1.7c2.9,0,3.6,1.6,3.6,4.1v6.1h-2.7v-5.6c0-1.6-0.5-2.4-1.8-2.4
		c-1.5,0-2.1,0.8-2.1,2.8v5.2h-2.7V120.9z"/>
	<path class="st1" d="M138.1,130.2c0,1.6-0.6,4.4-5.2,4.4c-2,0-4.2-0.9-4.4-3.2h2.7c0.3,1,1.1,1.4,2,1.4c1.5,0,2.2-1,2.2-2.5V129
		l0,0c-0.6,1.1-1.8,1.5-3,1.5c-3,0-4.3-2.3-4.3-5c0-2.6,1.5-4.9,4.3-4.9c1.3,0,2.3,0.4,3,1.6l0,0v-1.3h2.6L138.1,130.2L138.1,130.2z
		 M135.5,125.7c0-1.6-0.6-3.1-2.3-3.1c-1.5,0-2.2,1.3-2.2,2.8c0,1.4,0.5,3,2.2,3C134.7,128.5,135.5,127.2,135.5,125.7z"/>
</g>
</svg>
