<?xml version="1.0" encoding="utf-8"?>
<!-- Generator: Adobe Illustrator 22.1.0, SVG Export Plug-In . SVG Version: 6.00 Build 0)  -->
<svg version="1.1" id="Capa_1" xmlns="http://www.w3.org/2000/svg" xmlns:xlink="http://www.w3.org/1999/xlink" x="0px" y="0px"
	 viewBox="0 0 150 150" style="enable-background:new 0 0 150 150;" xml:space="preserve">
<style type="text/css">
	.st0{fill:#083C8E;}
	.st1{fill:#FFFFFF;}
</style>
<g>
	<rect y="0" class="st0" width="150" height="150"/>
	<g>
		<g>
			<polygon class="st1" points="45.3,122.3 40.2,122.3 64.5,32.4 65.7,32.4 			"/>
			<polygon class="st1" points="71.8,122.3 66.9,122.3 72.6,32.4 73.8,32.4 			"/>
			<polygon class="st1" points="57.6,122.3 55,122.3 59.1,95.3 61.1,95.3 			"/>
			<polygon class="st1" points="63.4,78.5 61.6,78.5 63.6,65.6 65.1,65.6 			"/>
			<polygon class="st1" points="66.4,55.7 65.1,55.7 66,49.4 67.3,49.4 			"/>
			<polygon class="st1" points="68.1,43.1 67,43.1 67.7,38.6 68.7,38.6 			"/>
			<polygon class="st1" points="69.3,34.1 68.4,34.1 68.6,32.4 69.5,32.4 			"/>
		</g>
		<g>
			<polygon class="st1" points="104.7,122.3 109.8,122.3 85.5,32.4 84.3,32.4 			"/>
			<polygon class="st1" points="78.2,122.3 83.1,122.3 77.4,32.4 76.2,32.4 			"/>
			<polygon class="st1" points="92.4,122.3 95,122.3 90.9,95.3 88.9,95.3 			"/>
			<polygon class="st1" points="86.6,78.5 88.4,78.5 86.4,65.6 84.9,65.6 			"/>
			<polygon class="st1" points="83.6,55.7 84.9,55.7 84,49.4 82.7,49.4 			"/>
			<polygon class="st1" points="81.9,43.1 83,43.1 82.3,38.6 81.3,38.6 			"/>
			<polygon class="st1" points="80.7,34.1 81.6,34.1 81.4,32.4 80.5,32.4 			"/>
		</g>
	</g>
</g>
</svg>
