<?xml version="1.0" encoding="utf-8"?>
<!-- Generator: Adobe Illustrator 22.1.0, SVG Export Plug-In . SVG Version: 6.00 Build 0)  -->
<svg version="1.1" id="Layer_1" xmlns="http://www.w3.org/2000/svg" xmlns:xlink="http://www.w3.org/1999/xlink" x="0px" y="0px"
	 viewBox="0 0 35 33" style="enable-background:new 0 0 35 33;" xml:space="preserve">
<style type="text/css">
	.st0{fill:#231F20;}
</style>
<g>
	<path class="st0" d="M27.2,14.4h2.1v-2.1V6.8V4.7h-2.1h-5.5h-2.1v2.1v5.5v2.1h2.1H27.2z M21.7,6.8h5.5v5.5h-5.5V6.8z"/>
	<polygon class="st0" points="11.6,18.6 9.5,18.6 9.5,22.4 5.7,22.4 5.7,24.5 9.5,24.5 9.5,28.3 11.6,28.3 11.6,24.5 15.4,24.5 
		15.4,22.4 11.6,22.4 	"/>
	<polygon class="st0" points="29.3,20.7 29.3,18.6 25.5,18.6 23.4,18.6 19.6,18.6 19.6,20.7 23.4,20.7 23.4,28.3 25.5,28.3 
		25.5,20.7 	"/>
	<rect x="27.2" y="22.4" class="st0" width="2.1" height="2.1"/>
	<rect x="9.5" y="4.7" class="st0" width="2.1" height="9.6"/>
</g>
</svg>
