<svg id="Layer_1" data-name="Layer 1" xmlns="http://www.w3.org/2000/svg" viewBox="0 0 1000 137.4"><defs><style>.cls-1{fill:#fff;}</style></defs><title>Client-Logos-Master</title><g id="Eden"><path class="cls-1" d="M0,86.11C0,70.63,4.84,58.25,14.32,48.77,24,39.28,36.19,34.64,51.09,34.64c14.12,0,25.73,4.64,34.64,14.13,9.09,9.48,13.54,21.09,13.54,35,0,2.9-.19,5.61-.39,8.13H23c.77,15.48,12.19,25.54,29.41,25.54,10.06,0,18.77-3.67,26.32-11.22l13.93,13.55c-11,11.61-24.58,17.41-41,17.41-15.29,0-27.87-4.64-37.35-13.74S0,102.17,0,86.89ZM75.66,75.66c0-5.8-2.51-10.83-7.35-14.9a25,25,0,0,0-17.22-6.38,30,30,0,0,0-18.77,6.19q-7.84,6.09-8.71,15.09Z"/><path class="cls-1" d="M189.68,51.48V0H212.9V105.46c0,8.33,1.93,11.42,7.16,11.42,1.35,0,3.1-.19,4.84-.38v18.77c-2.52,1-6.39,1.54-11.42,1.54-5.61,0-10.06-1-13.55-3.09A18,18,0,0,1,192,121.91c-6.77,10.26-18,15.29-33.48,15.29-13.74,0-25.35-4.84-34.83-14.71-9.29-9.86-13.93-21.86-13.93-36.38s4.64-26.51,13.93-36.18c9.48-9.87,21.09-14.71,34.83-14.71C174.2,35.22,186,42.19,189.68,51.48Zm-7,55.92c5.81-5.61,8.71-12.77,8.71-21.29s-2.9-15.67-8.71-21.28a28.86,28.86,0,0,0-21.09-8.52,28,28,0,0,0-20.71,8.52c-5.42,5.61-8.13,12.77-8.13,21.28s2.71,15.68,8.13,21.29a28,28,0,0,0,20.71,8.51A28.89,28.89,0,0,0,182.71,107.4Z"/><path class="cls-1" d="M228.83,86.11c0-15.48,4.84-27.86,14.32-37.34,9.68-9.49,21.87-14.13,36.77-14.13,14.13,0,25.74,4.64,34.64,14.13,9.1,9.48,13.55,21.09,13.55,35,0,2.9-.2,5.61-.39,8.13H251.86c.78,15.48,12.19,25.54,29.41,25.54,10.07,0,18.78-3.67,26.32-11.22l13.94,13.55c-11,11.61-24.58,17.41-41,17.41-15.29,0-27.86-4.64-37.35-13.74s-14.32-21.29-14.32-36.57ZM304.5,75.66c0-5.8-2.52-10.83-7.36-14.9a25,25,0,0,0-17.22-6.38,30,30,0,0,0-18.77,6.19q-7.83,6.09-8.71,15.09Z"/><path class="cls-1" d="M441.46,115.53c-5.22,0-6.58-2.71-6.58-10.26V74.5c0-24.19-13.35-39.09-36.38-39.09-13.71,0-24.53,6.37-29.19,15.82-.83-5.06-2.94-9.44-8-12.65-3.44-2.19-7.93-3.1-13.54-3.1a45.14,45.14,0,0,0-13.55,2.32V56.57c1.74-.19,3.48-.39,4.84-.39,5.22,0,7.2,3.1,7.2,11.42v67.28h23V78.76c0-13.35,9.09-22.64,22.06-22.64s20.51,8.32,20.51,21.67V110.3c0,17,7.55,25.55,22.84,25.55a37,37,0,0,0,10.06-1.16V115.14A17.35,17.35,0,0,1,441.46,115.53Z"/><path class="cls-1" d="M542.52,134.93V77.85c0-13.36-7.16-21.68-19.55-21.68-12.58,0-21.48,9.29-21.48,22.64v56.12h-23V.05h23V51c4.45-9.29,15.1-15.48,28.45-15.48,22.45,0,35.61,14.9,35.61,39.09v60.37Z"/><path class="cls-1" d="M977,134.93V77.85c0-13.36-7.16-21.68-19.54-21.68-12.58,0-21.48,9.29-21.48,22.64v56.12h-23V.05h23V51c4.45-9.29,15.09-15.48,28.44-15.48,22.45,0,35.61,14.9,35.61,39.09v60.37Z"/><path class="cls-1" d="M579.11,86.17c0-15.48,4.84-27.87,14.32-37.35,9.68-9.48,21.87-14.13,36.77-14.13,14.13,0,25.74,4.65,34.64,14.13,9.1,9.48,13.55,21.09,13.55,35,0,2.91-.2,5.62-.39,8.13H602.14c.78,15.48,12.19,25.55,29.42,25.55,10.06,0,18.77-3.68,26.31-11.23l13.94,13.55c-11,11.61-24.58,17.41-41,17.41-15.29,0-27.86-4.64-37.35-13.73s-14.32-21.29-14.32-36.58Zm75.67-10.45c0-5.81-2.52-10.84-7.36-14.9a25,25,0,0,0-17.22-6.39,30,30,0,0,0-18.77,6.19q-7.83,6.1-8.71,15.1Z"/><path class="cls-1" d="M772.32,134.93V122c-6.77,10.25-18,15.28-33.47,15.28-13.74,0-25.35-4.83-34.84-14.7-9.29-9.87-13.93-21.87-13.93-36.38S694.72,59.66,704,50c9.49-9.87,21.1-14.71,34.84-14.71,15.67,0,27.47,7,31.15,16.26V37.4h23.22v97.53ZM763,107.45c5.81-5.61,8.71-12.77,8.71-21.28s-2.9-15.68-8.71-21.29a28.89,28.89,0,0,0-21.09-8.51,28,28,0,0,0-20.7,8.51c-5.42,5.61-8.13,12.77-8.13,21.29s2.71,15.67,8.13,21.28a28,28,0,0,0,20.7,8.52A28.86,28.86,0,0,0,763,107.45Z"/><path class="cls-1" d="M809,134.93V.05h23.22V134.93Z"/><path class="cls-1" d="M856.29,58.39H844.13v-21h12.16V.05h23.19V37.34h21.44v21H879.48v43.47c0,10.62,3.67,14.49,12.17,14.49a36.14,36.14,0,0,0,8.11-.78v20.67a53.11,53.11,0,0,1-12,1.16c-21,0-31.49-11-31.49-33Z"/></g></svg>