<svg id="Layer_1" data-name="Layer 1" xmlns="http://www.w3.org/2000/svg" viewBox="0 0 1000 862.57"><defs><style>.cls-1{fill:#fff;}</style></defs><title>Client-Logos-Master</title><g id="Madaluxe"><polygon class="cls-1" points="337.66 303.45 404.6 347.65 404.6 61.68 337.66 105.88 337.66 303.45"/><polygon class="cls-1" points="422.82 117.18 422.82 359.69 500.01 410.65 577.19 360.11 577.19 117.18 500.01 357.63 422.82 117.18"/><polygon class="cls-1" points="422.82 49.64 500.01 294.64 577.19 49.64 500.01 -1.32 422.82 49.64"/><polygon class="cls-1" points="595.41 61.68 595.41 347.65 662.35 303.45 662.35 105.88 595.41 61.68"/><path class="cls-1" d="M265.33,861.25c-18.8,0-31.72-13.2-31.72-31.06V830c0-17.17,13.35-31.22,31.63-31.22,10.86,0,17.42,2.93,23.73,8.28l-8.38,10.08c-4.65-3.88-8.8-6.12-15.78-6.12-9.65,0-17.33,8.55-17.33,18.81V830c0,11,7.59,19.14,18.28,19.14a21.2,21.2,0,0,0,12.5-3.62v-8.62H264.91V825.46h26.22v26.22a39.32,39.32,0,0,1-25.8,9.57"/><path class="cls-1" d="M394,860.21,381.08,840.9H370.63v19.31H357.36V799.85H385c14.23,0,22.77,7.5,22.77,19.91v.17c0,9.75-5.25,15.88-12.94,18.72l14.74,21.56Zm.25-39.75c0-5.71-4-8.64-10.43-8.64h-13.2v17.34h13.46c6.47,0,10.17-3.44,10.17-8.53Z"/><path class="cls-1" d="M502.5,861.25c-18.62,0-32-13.9-32-31V830c0-17.15,13.54-31.21,32.17-31.21s32,13.88,32,31.05V830c0,17.17-13.54,31.23-32.17,31.23M520.79,830c0-10.36-7.59-19-18.29-19s-18.1,8.46-18.1,18.81V830c0,10.36,7.58,19,18.28,19s18.11-8.46,18.11-18.8Z"/><path class="cls-1" d="M625.15,861.15c-16.22,0-26.13-9-26.13-26.82V799.84h13.26V834c0,9.83,4.93,14.91,13,14.91s13-4.91,13-14.49V799.84h13.28V833.9c0,18.29-10.25,27.25-26.46,27.25"/><path class="cls-1" d="M742,842.11H731.91v18.1H718.63V799.85H743.3c14.39,0,23.11,8.53,23.11,20.86v.17c0,14-10.87,21.23-24.41,21.23M753,821c0-6-4.14-9.14-10.77-9.14H731.91v18.46h10.53c6.64,0,10.52-4,10.52-9.15Z"/><polygon class="cls-1" points="337.66 303.45 404.6 347.65 404.6 61.68 337.66 105.88 337.66 303.45"/><polygon class="cls-1" points="422.82 117.18 422.82 359.69 500.01 410.65 577.19 360.11 577.19 117.18 500.01 357.63 422.82 117.18"/><polygon class="cls-1" points="422.82 49.64 500.01 294.64 577.19 49.64 500.01 -1.32 422.82 49.64"/><polygon class="cls-1" points="595.41 61.68 595.41 347.65 662.35 303.45 662.35 105.88 595.41 61.68"/><path class="cls-1" d="M709.34,729.7c-27.09,0-42-14.08-42-39.65V498.38l30.73-1.28V690.61c0,13.51,10.86,15.69,17.35,15.79h0c5.71,0,9.4-1.09,11.84-3.31,2.73-2.5,4.06-6.57,4.06-12.48V497.24h17.07V689c0,26.62-13.51,40.69-39.08,40.69"/><polygon class="cls-1" points="931.51 726.87 931.51 497.23 999.04 497.23 999.04 513.85 961.68 513.85 961.68 602.38 994.89 602.38 994.89 618.93 961.68 618.93 961.68 710.25 1000 710.25 1000 726.87 931.51 726.87"/><polygon class="cls-1" points="860.82 726.87 837.56 645.45 818.08 726.46 801.08 726.46 828.34 613.55 793.93 497.23 824.82 497.23 848.93 578.89 866.69 497.23 883.6 497.23 858.65 611.95 892.24 726.87 860.82 726.87"/><polygon class="cls-1" points="560.98 726.87 560.98 497.23 591.48 497.23 591.48 709.75 625.63 709.75 625.63 726.87 560.98 726.87"/><polygon class="cls-1" points="485.13 726.87 460.96 583.11 439.31 726.87 422.83 726.87 458.88 497.23 476.26 497.23 514.7 726.87 485.13 726.87"/><path class="cls-1" d="M336,497.24H295.74V726.87H336c29.88,0,46.32-14.58,46.32-41V538.28c0-26.47-16.44-41-46.32-41m15.81,189.22c0,15.44-5.85,23.29-17.4,23.29h-8.14V514.49h8.14c11.55,0,17.4,7.78,17.4,23.15Z"/><polygon class="cls-1" points="223.5 726.87 199.33 583.11 177.68 726.87 161.2 726.87 197.25 497.23 214.63 497.23 253.08 726.87 223.5 726.87"/><polygon class="cls-1" points="84.09 726.87 84.09 602.37 52.78 705.18 16.63 601.68 16.63 726.87 0 726.87 0 497.23 17.18 497.23 58.39 628.85 97.77 497.23 115.01 497.23 115.01 726.87 84.09 726.87"/><path class="cls-1" d="M265.33,861.25c-18.8,0-31.72-13.2-31.72-31.06V830c0-17.17,13.35-31.22,31.63-31.22,10.86,0,17.42,2.93,23.73,8.28l-8.38,10.08c-4.65-3.88-8.8-6.12-15.78-6.12-9.65,0-17.33,8.55-17.33,18.81V830c0,11,7.59,19.14,18.28,19.14a21.2,21.2,0,0,0,12.5-3.62v-8.62H264.91V825.46h26.22v26.22a39.32,39.32,0,0,1-25.8,9.57"/><path class="cls-1" d="M394,860.21,381.08,840.9H370.63v19.31H357.36V799.85H385c14.23,0,22.77,7.5,22.77,19.91v.17c0,9.75-5.25,15.88-12.94,18.72l14.74,21.56Zm.25-39.75c0-5.71-4-8.64-10.43-8.64h-13.2v17.34h13.46c6.47,0,10.17-3.44,10.17-8.53Z"/><path class="cls-1" d="M502.5,861.25c-18.62,0-32-13.9-32-31V830c0-17.15,13.54-31.21,32.17-31.21s32,13.88,32,31.05V830c0,17.17-13.54,31.23-32.17,31.23M520.79,830c0-10.36-7.59-19-18.29-19s-18.1,8.46-18.1,18.81V830c0,10.36,7.58,19,18.28,19s18.11-8.46,18.11-18.8Z"/><path class="cls-1" d="M625.15,861.15c-16.22,0-26.13-9-26.13-26.82V799.84h13.26V834c0,9.83,4.93,14.91,13,14.91s13-4.91,13-14.49V799.84h13.28V833.9c0,18.29-10.25,27.25-26.46,27.25"/><path class="cls-1" d="M742,842.11H731.91v18.1H718.63V799.85H743.3c14.39,0,23.11,8.53,23.11,20.86v.17c0,14-10.87,21.23-24.41,21.23M753,821c0-6-4.14-9.14-10.77-9.14H731.91v18.46h10.53c6.64,0,10.52-4,10.52-9.15Z"/></g></svg>