<svg id="Layer_1" data-name="Layer 1" xmlns="http://www.w3.org/2000/svg" viewBox="0 0 1000 622.36"><defs><style>.cls-1{fill:#fff;}</style></defs><title>Client-Logos-Master</title><g id="Capitals"><g id="g25"><path id="path27" class="cls-1" d="M114.64,327.24h39.9l10.13-24.5H121.31C57.67,302.74,0,350.84,0,385.14,0,403,19.87,411.63,24.14,411.63H93.3c17.81,0,49-22.27,49-22.27l-24.62-11.49s-12.18,8.91-20.86,8.91H37.5c-4.45,0-6.32-3.28-6.32-8,0-10.43,25.08-51.57,83.46-51.57"/></g><g id="g29"><path id="path31" class="cls-1" d="M243.76,386.82l-53.25,0c-3.16,0-3.63-3.52-3.63-5.63s4.05-14.24,16-14.24h49.84c2.82,0,13.1-4.39,13.1-4.39s-6.77,24.3-22.06,24.3m20.57-84.08H183.25l-10,24.5h86.63c13.48,0,15.08,5.39,15.08,13.83H211.15c-37.64,0-53.63,26.68-53.63,39.73,0,22.62,20.49,30.77,30.07,30.77H230c7.91,0,17.58-6.51,17.58-6.51l-2.46,6.57,30.85,0,24.12-57.46c2.17-5.19,5.15-15.07,5.15-19.63,0-18.17-14.59-31.77-40.87-31.77"/></g><g id="g33"><path id="path35" class="cls-1" d="M268.28,476.09,298.41,408c4.09-9.25,30.33-105.25,130.56-105.25h73.49l-31.64,77c-6.34,15.42-20.28,31.88-35.87,31.88h-92L353,386.78h73.49c11.17,0,14.29-8.63,17.47-16.64l17-42.9H431.08c-43.33,0-79.17,26.92-89.31,50.87l-41.49,98Z"/></g><g id="g37"><path id="path39" class="cls-1" d="M504,340.89l-29,70.74h30.71l29.09-70.74Z"/></g><g id="g41"><path id="path43" class="cls-1" d="M540.41,327.24l10.08-24.5h-30.8l-10.05,24.5Z"/></g><g id="g45"><path id="path47" class="cls-1" d="M562.94,302.74l-9.77,24.5h36.67L540.55,445.38c-3.58,8.58-8,20.63-8,49.7,0,10.31,1.9,20.53,4.69,24.85s66.11,102.43,66.11,102.43l40.08-57-78.94-65.93c-2.38-2-4.51-7.2-4.51-17.52s2-13.41,4.69-19.92L755.63,0H725.56L600.73,302.74Z"/></g><g id="g49"><path id="path51" class="cls-1" d="M711.15,386.85l-53.25,0c-3.17,0-3.63-3.52-3.63-5.63s4-14.24,16-14.24h49.84c2.82,0,13.1-4.39,13.1-4.39s-6.77,24.3-22.06,24.3m20.57-84.08H640.29l-10,24.5h97c13.48,0,15.07,5.39,15.07,13.83H678.53c-37.64,0-53.62,26.67-53.62,39.73,0,22.62,20.48,30.77,30.06,30.77h42.37c7.92,0,17.59-6.51,17.59-6.51l-2.46,6.57,30.85,0,24.11-57.46c2.18-5.19,5.16-15.07,5.16-19.64,0-18.16-14.59-31.76-40.87-31.76"/></g><g id="g53"><path id="path55" class="cls-1" d="M789.05,411.63,889.69,168.07H859.63L759.21,411.63Z"/></g><g id="g57"><path id="path59" class="cls-1" d="M806,411.63l9.86-24.85,115.32,0c7.07,0,12.61-7,12.61-10.82s-2.2-7-6.86-7H868.05c-7.38,0-24.28-9.31-24.28-25s8.73-41.26,55.05-41.26H1000l-10.08,24.5H886.19c-8.15,0-12.77,8.32-12.77,12.66,0,3.87,3.87,5.62,4.8,5.62h64.35c14.65,0,30.71,5.16,30.71,25.79s-13.06,40.32-45,40.32Z"/></g><g id="g61"><path id="path63" class="cls-1" d="M747.54,552l25.31-30.47H693.62L669.48,552Z"/></g><g id="g65"><path id="path67" class="cls-1" d="M207.37,266.32h-9.09l2.78-24.56-20.37,24.56h-9.27l1.53-33.8h8.8l-1,23.72,18-23.5h9.75L207.28,256l18.61-23.25h8.7Z"/></g><g id="g69"><path id="path71" class="cls-1" d="M252.42,253.31l-.09-13.52-13,13.52Zm.08,5.59H235.19l-6.59,7.42h-9.24l30.79-33.58h10l1,33.58h-8.53Z"/></g><g id="g73"><path id="path75" class="cls-1" d="M268.8,255.44l8.62-.35c-.26,2.1-.05,3.51.63,4.24,1.1,1.19,3.41,1.79,6.95,1.79a14,14,0,0,0,6.6-1.22,4.38,4.38,0,0,0,2.5-2.93,2.44,2.44,0,0,0-1.16-2.52,29.08,29.08,0,0,0-5.77-2.45,56.18,56.18,0,0,1-6.91-2.83,7.42,7.42,0,0,1-3.14-2.94,6.18,6.18,0,0,1-.58-4.24q.78-4.23,5.27-7t12.07-2.8q7.69,0,11.41,2.78a7.77,7.77,0,0,1,3.3,7.37l-8.67.3a4.1,4.1,0,0,0-1.6-3.69q-1.69-1.28-5.49-1.28a11.56,11.56,0,0,0-5.5,1,3.74,3.74,0,0,0-2.06,2.54,2.28,2.28,0,0,0,1,2.38,28.06,28.06,0,0,0,6,2.64q7.09,2.49,8.87,4a5.92,5.92,0,0,1,2,5.89q-.81,4.44-6,7.59t-13.32,3.15a26.82,26.82,0,0,1-9.49-1.46q-3.87-1.44-5.1-4a9,9,0,0,1-.5-5.95"/></g><g id="g77"><path id="path79" class="cls-1" d="M338.56,251.31h-16.9l-6.8,15h-9l15.24-33.58h9l-5.86,13h16.9l5.89-13h9l-15.2,33.58h-9Z"/></g><g id="g81"><path id="path83" class="cls-1" d="M348.76,266.32,364,232.74h9l-15.21,33.58Z"/></g><g id="g85"><path id="path87" class="cls-1" d="M403.36,266.32H395l-8-22.56-10.87,22.56h-8.38l15.85-33.58H392l8,22.47,9.27-22.47h8.34Z"/></g><g id="g89"><path id="path91" class="cls-1" d="M439.87,248.38h19.56l-6.55,14.41a46.34,46.34,0,0,1-9,2.91,47.19,47.19,0,0,1-10.45,1.19q-8.12,0-11.92-2.82-5.21-3.84-3.88-11.15a22.14,22.14,0,0,1,4.24-9.39A27.2,27.2,0,0,1,432,235.14a31.08,31.08,0,0,1,13.71-3q7.57,0,11.66,2.7c2.72,1.8,2.86,4.85,3.23,8.3l-8.51,0c-.39-1.89.09-3-1.38-3.94a10.59,10.59,0,0,0-5.92-1.45,20.36,20.36,0,0,0-8.3,1.74,16.6,16.6,0,0,0-6.67,5.39,18.72,18.72,0,0,0-3.5,8c-.51,2.82-.06,4.91,1.37,6.26s3.74,2,7,2a31,31,0,0,0,6.05-.63,37.43,37.43,0,0,0,5.52-1.5l2.24-5H437.34Z"/></g><g id="g93"><path id="path95" class="cls-1" d="M475.81,266.32h-9l12.7-28H466.69l2.54-5.61h34.42l-2.53,5.61H488.48Z"/></g><g id="g97"><path id="path99" class="cls-1" d="M507.11,253a6.16,6.16,0,0,0,1.69,5.79c1.54,1.56,3.81,2.34,6.79,2.34a16.25,16.25,0,0,0,7.32-1.84,19,19,0,0,0,6.56-5.59,17.28,17.28,0,0,0,3.51-7.3q.72-4-1.64-6.22a9.29,9.29,0,0,0-6.66-2.25,16.29,16.29,0,0,0-11.57,4.72,18.83,18.83,0,0,0-6,10.35m-8.91.14a21.73,21.73,0,0,1,2.3-6.28,26.69,26.69,0,0,1,6-7.67,27.89,27.89,0,0,1,8.79-5.15,31.94,31.94,0,0,1,11.13-1.88q8.12,0,12.4,3.87T542,246.3a22.19,22.19,0,0,1-5.11,10.28,27.58,27.58,0,0,1-10.21,7.65,31.93,31.93,0,0,1-13.09,2.68,19.9,19.9,0,0,1-9.87-2.13,10.32,10.32,0,0,1-4.92-5.28,11.92,11.92,0,0,1-.57-6.35"/></g><g id="g101"><path id="path103" class="cls-1" d="M574.69,266.32h-8.37l-7.72-22.56-10.23,22.56H540l15.2-33.58h8.41l7.76,22.47,10.18-22.47h8.35Z"/></g><g id="g105"><path id="path107" class="cls-1" d="M292.74,178,315.58,161H287.26l-8.6-26.55L270.34,161H242.79l22.39,16.46-8.5,27.14,22.64-16.76,21.84,16.06Z"/></g><g id="g109"><path id="path111" class="cls-1" d="M440.42,178,463.26,161H434.94l-8.6-26.55L418,161H390.47l22.39,16.46-8.5,27.14L427,187.88l21.85,16.06Z"/></g><g id="g113"><path id="path115" class="cls-1" d="M587.63,178,610.47,161H582.15l-8.6-26.55L565.23,161H537.68l22.39,16.46-8.5,27.14,22.64-16.76,21.84,16.06Z"/></g></g></svg>