<svg id="Layer_1" data-name="Layer 1" xmlns="http://www.w3.org/2000/svg" viewBox="0 0 1000 232.16"><defs><style>.cls-1{fill:#fff;}</style></defs><title>Client-Logos-Master</title><g id="Knowlita"><path class="cls-1" d="M20.31,106.4,57.7,3.23H80.29L36.76,115.11,82.21,228.93H60L20.31,123.81V228.93H0V3.23H20.31Z"/><path class="cls-1" d="M155.08,103.83q.63,24.83.63,52.23v72.87H136.05V3.23h20L203.44,179.6q-.63-26.76-1.29-51.59t-.65-51.59V3.23h19.68v225.7h-20l-47.39-176Q154.42,79,155.08,103.83Z"/><path class="cls-1" d="M318.42,0c7.3,0,13.44,1,18.37,2.9a28,28,0,0,1,11.78,8.23,31.38,31.38,0,0,1,6.11,12.56,67.48,67.48,0,0,1,1.79,16V192.81a67.35,67.35,0,0,1-1.79,16,30,30,0,0,1-6.11,12.41,28.76,28.76,0,0,1-11.78,8.07c-4.93,1.93-11.07,2.9-18.37,2.9-7.53,0-13.7-1-18.55-2.9a29,29,0,0,1-11.6-8.07,29.42,29.42,0,0,1-6.11-12.41,65.83,65.83,0,0,1-1.79-16V39.66a66,66,0,0,1,1.79-16,30.74,30.74,0,0,1,6.11-12.56,28.24,28.24,0,0,1,11.6-8.23C304.72,1,310.89,0,318.42,0Zm0,214.1q10.32,0,14-6c2.5-4,3.73-9.07,3.73-15.32V39.66c0-6.23-1.23-11.33-3.73-15.31s-7.13-6-14-6-11.55,2-14,6-3.7,9.08-3.7,15.31V192.81q0,9.38,3.7,15.32T318.42,214.1Z"/><path class="cls-1" d="M485.44,43.85,461.9,228.93H438.36L409.66,3.23h20.65l20,186.68L474.78,3.23h21.28l24.51,186.68,20-186.68h20.65l-28.71,225.7H509.29Z"/><path class="cls-1" d="M617.79,3.23H638.1V209.58h35.48v19.35H617.79Z"/><path class="cls-1" d="M728.37,3.23h20.3v225.7h-20.3Z"/><path class="cls-1" d="M850.75,228.93H830.44v-206H803.33V3.23h74.18V22.89H850.75Z"/><path class="cls-1" d="M1000,228.93H979.38l-6.14-51.59H940l-6.14,51.59H913.28L944.21,3.23h25.17Zm-58-70.3h29L956.81,34.18Z"/></g></svg>