<svg id="Layer_1" data-name="Layer 1" xmlns="http://www.w3.org/2000/svg" xmlns:xlink="http://www.w3.org/1999/xlink" viewBox="0 0 1000 124.62"><defs><style>.cls-1{fill:none;clip-rule:evenodd;}.cls-2{clip-path:url(#clip-path);}.cls-3{fill:#fff;}.cls-4{clip-path:url(#clip-path-2);}.cls-5{clip-path:url(#clip-path-3);}.cls-6{clip-path:url(#clip-path-4);}.cls-7{clip-path:url(#clip-path-5);}.cls-8{clip-path:url(#clip-path-6);}.cls-9{clip-path:url(#clip-path-7);}.cls-10{clip-path:url(#clip-path-8);}.cls-11{clip-path:url(#clip-path-9);}.cls-12{clip-path:url(#clip-path-10);}</style><clipPath id="clip-path"><path class="cls-1" d="M287.47,1.3l-24.11,0a3.71,3.71,0,0,0-3.4,3.4V65.45c0,9.94-3.57,15.23-12.76,15.23s-12.73-4.89-12.73-14.83V4.61a3.86,3.86,0,0,0-3.4-3.31H207a2.78,2.78,0,0,0-3,2.91V71.49c0,20.8,15.08,37.52,43,37.52,28.19,0,43.57-16.72,43.57-37.52V4.21a3,3,0,0,0-3-2.91"/></clipPath><clipPath id="clip-path-2"><path class="cls-1" d="M461.12,44.2l-17.34-6c-5.12-1.81-5.73-4.67-5.73-6.33,0-2.71,2.56-5.42,7.69-5.42A35.1,35.1,0,0,1,467.16,34a2.47,2.47,0,0,0,3.51-.38l13.46-17a2.68,2.68,0,0,0-.32-3.66C472.36,3.26,458.28-.12,445.28-.13c-25,0-39.94,15.53-39.94,32.42,0,13.26,7.68,25.47,24.13,31l15.37,5.29c7.53,2.55,8.75,4.52,8.75,7.69,0,2.86-3,6.17-9,6.17-8.52,0-18.51-5.12-25.25-10.69a2.34,2.34,0,0,0-3.43.34L402,90.28a2.75,2.75,0,0,0,.34,3.69c10,8.66,24.81,15.06,43.51,15.06,23.52,0,40.56-13.58,40.56-34.07,0-14-8.75-25-25.33-30.76"/></clipPath><clipPath id="clip-path-3"><path class="cls-1" d="M74.33,1.3H3.38A3.81,3.81,0,0,0,0,4.68V104.93A3.18,3.18,0,0,0,3,108H27.88a3.06,3.06,0,0,0,2.7-3.08V71H61.66a3.31,3.31,0,0,0,3.27-2.66l4.44-21.8a2.17,2.17,0,0,0-2.19-2.73H30.58V28.32H70.37a3.48,3.48,0,0,0,3.28-2.64L77.84,4.87c.37-1.82-1.34-3.57-3.51-3.57"/></clipPath><clipPath id="clip-path-4"><path class="cls-1" d="M992.26,28.47a3.48,3.48,0,0,0,3.27-2.64L999.93,5a2.85,2.85,0,0,0-2.6-3.56L926,1.28c-1.7,0-3.4,3.61-3.4,5.1v98.55c0,1.7,2.09,3.4,3.51,3.4h65.16a3.49,3.49,0,0,0,3.26-2.65l4.41-20.82c.39-1.8-.79-3.55-3.28-3.55H953.18V67.4h31a3.48,3.48,0,0,0,3.27-2.65l4.65-21.43a2.13,2.13,0,0,0-2.2-2.73H953.18V28.47Z"/></clipPath><clipPath id="clip-path-5"><path class="cls-1" d="M748.77,60.75l9.77-31.81,9.79,31.81Zm29.64-57a4.09,4.09,0,0,0-3.59-2.42H742.46A3.93,3.93,0,0,0,739,3.72l-30.34,102a1.88,1.88,0,0,0,1.78,2.59h27.07a3.71,3.71,0,0,0,3.21-2.6L745,89.64h27.17l4.67,16.1a3.78,3.78,0,0,0,3.25,2.59H807a1.89,1.89,0,0,0,1.78-2.59l-30.36-102Z"/></clipPath><clipPath id="clip-path-6"><path class="cls-1" d="M865.53,47.16h-16V28.47h15.29c8.72,0,12.88,4.23,12.88,9.5s-3.46,9.19-12.18,9.19Zm23.78,20.41c12.79-6.33,19.41-16.26,19.41-31,0-18.67-15-35.25-40.48-35.25H822.35c-1.5,0-3.39,1.55-3.39,3.06V104.93c0,1.51,1.66,3.4,3.16,3.4h24.13a3.91,3.91,0,0,0,3.29-3.4V72.65h10.19l18,33.27a5,5,0,0,0,4,2.41h28.4c1.52,0,2.13-1.06,1.36-2.37L889.31,67.57Z"/></clipPath><clipPath id="clip-path-7"><path class="cls-1" d="M549.14,81.18c-13.81,0-23.16-12-23.16-26.75s9.37-26.75,23.16-26.75,23.14,12,23.14,26.75-9.34,26.75-23.14,26.75m55,12.73a29.7,29.7,0,0,1-17,1.27h0c1.08-.94,2.11-1.91,3.1-2.94,14.23-15.1,18.27-37.71,11.3-57C594.27,15.31,575.2,1.75,553.81,0s-43.16,8.79-53.52,27.51c-10.83,19.57-8.8,45.39,5.94,62.53,12.74,14.8,32.74,21,51.48,18.36l.83.8c10.38,9.79,27.25,15.23,41.64,15.23l5.94-28.9a1.43,1.43,0,0,0-2-1.64"/></clipPath><clipPath id="clip-path-8"><path class="cls-1" d="M136.41,81.18c-13.8,0-23.15-12-23.15-26.75s9.37-26.75,23.15-26.75,23.14,12,23.14,26.75-9.35,26.75-23.14,26.75M141.08,0C119.63-1.7,97.91,8.81,87.56,27.53,76.73,47.1,78.76,72.92,93.5,90.06c21,24.39,61.7,25.39,84,2.18,14.23-15.1,18.27-37.71,11.3-57-7.22-20-26.29-33.52-47.68-35.25"/></clipPath><clipPath id="clip-path-9"><path class="cls-1" d="M700.29,1.3l-24.11,0a3.67,3.67,0,0,0-3.34,3.4V65.85c0,9.94-3.63,14.83-12.81,14.83S647.3,75.79,647.3,65.85V4.61c0-1.63-2-3.31-3.4-3.31H620.27c-1.36,0-3.5,2.16-3.5,3.38V71.49c0,20.8,15.07,37.52,43,37.52,28.18,0,43.56-16.72,43.56-37.52V4.68c0-1.56-1.36-3.38-3-3.38"/></clipPath><clipPath id="clip-path-10"><path class="cls-1" d="M350.71,47.16h-16V28.47H350c8.72,0,12.88,4.23,12.88,9.5s-3.46,9.19-12.18,9.19Zm23.78,20.41c12.79-6.33,19.41-16.26,19.41-31,0-18.67-15-35.25-40.49-35.25H307.53a4,4,0,0,0-3.4,3.38V104.93c0,1.51,1.67,3.4,3.17,3.4h24.13a3.91,3.91,0,0,0,3.29-3.4V72.65h10.19l18,33.27a5,5,0,0,0,4,2.41h28.41c1.52,0,2.13-1.06,1.36-2.37L374.49,67.57Z"/></clipPath></defs><title>Client-Logos-Master</title><g id="Foursquare"><g class="cls-2"><rect class="cls-3" x="199.92" y="-2.74" width="94.56" height="115.77"/></g><g class="cls-4"><rect class="cls-3" x="397.47" y="-4.15" width="93" height="117.19"/></g><g class="cls-5"><rect class="cls-3" x="-4.02" y="-2.72" width="85.93" height="114.75"/></g><g class="cls-6"><rect class="cls-3" x="918.58" y="-2.74" width="85.44" height="115.08"/></g><g class="cls-7"><rect class="cls-3" x="704.5" y="-2.72" width="108.4" height="115.06"/></g><g class="cls-8"><rect class="cls-3" x="814.94" y="-2.72" width="100.99" height="115.06"/></g><g class="cls-9"><rect class="cls-3" x="489.42" y="-4.18" width="120.74" height="132.66"/></g><g class="cls-10"><rect class="cls-3" x="76.69" y="-4.18" width="119.43" height="117.22"/></g><g class="cls-11"><rect class="cls-3" x="612.75" y="-2.74" width="94.56" height="115.77"/></g><g class="cls-12"><rect class="cls-3" x="300.11" y="-2.72" width="100.99" height="115.06"/></g></g></svg>