<svg id="Layer_1" data-name="Layer 1" xmlns="http://www.w3.org/2000/svg" viewBox="0 0 1000 344.8"><defs><style>.cls-1{fill:#fff;}</style></defs><title>Client-Logos-Master</title><g id="Dune"><path class="cls-1" d="M321.4,60.79a66.62,66.62,0,0,1-4.23,23.73,53.56,53.56,0,0,1-12.75,19.59,61.7,61.7,0,0,1-21.54,13.33q-13,4.95-30.72,5c-3.25,0-6.32-.06-9.19-.17s-5.66-.24-8.37-.4-5.42-.36-8.12-.57-5.59-.49-8.62-.82V3.41q8.77-1,16.5-1.46T251,1.46q17.71,0,30.88,4.72a63.16,63.16,0,0,1,22,12.84A52.42,52.42,0,0,1,317,38,60.07,60.07,0,0,1,321.4,60.79Zm-21.78,0a46.88,46.88,0,0,0-2.93-16.9,34.4,34.4,0,0,0-8.77-13.09,40.61,40.61,0,0,0-14.47-8.45,60.73,60.73,0,0,0-20-3,102.35,102.35,0,0,0-15.28,1v83.06a59.17,59.17,0,0,0,7.48.81q3.74.16,9.59.16,11.53,0,19.83-3.25A37.42,37.42,0,0,0,288.89,92,36.34,36.34,0,0,0,297,78.18,55.78,55.78,0,0,0,299.62,60.79Z"/><path class="cls-1" d="M476.54,75.75A56.08,56.08,0,0,1,473.13,96a41.88,41.88,0,0,1-9.6,15,40.44,40.44,0,0,1-15,9.26,58.9,58.9,0,0,1-19.91,3.17q-22.44,0-34.87-12.19T381.29,75.75V2.28h20.32v72q0,15.45,7.15,23t20.15,7.56q12.84,0,20.08-7.64t7.23-22.92v-72h20.32Z"/><path class="cls-1" d="M639.4,123.69,564.79,45v76.39H544.47V.65L547.72,0l73.64,77.53V2.28h20.31V123.21Z"/><path class="cls-1" d="M709.48,121.42V2.28h72.66V20.81H729.8V52h47.3V69.89H729.8v33h52.34v18.53Z"/><path class="cls-1" d="M65.65,342.82,39.19,299.16c-1.1.11-2.15.16-3.14.16H32.74c-2,0-4,0-6-.08s-4.05-.14-6-.25v43.83H0V222.76q7.28-.82,15-1.41t17-.58a73.77,73.77,0,0,1,22.24,3,45.31,45.31,0,0,1,15.46,8.1,31.32,31.32,0,0,1,9,12.08,38.69,38.69,0,0,1,2.9,15,36.71,36.71,0,0,1-6.12,21Q69.29,289.08,57.88,294l31.75,48.79ZM59.7,260a18.81,18.81,0,0,0-6.62-15q-6.61-5.7-18.52-5.71c-2.53,0-5,.06-7.27.17a41.72,41.72,0,0,0-6.62.83v41.34c1.87.22,3.83.39,5.87.49s4.05.17,6,.17q13.56,0,20.34-6T59.7,260Z"/><path class="cls-1" d="M159.89,342.82V221.6h73.92v18.85H180.56V272.2h48.12v18.19H180.56V324h53.25v18.86Z"/><path class="cls-1" d="M381.69,308.59A36.23,36.23,0,0,1,379,322.48,33.47,33.47,0,0,1,371,334.05a38.33,38.33,0,0,1-12.57,7.86,45.79,45.79,0,0,1-16.78,2.89,63,63,0,0,1-20.26-3.31,74.58,74.58,0,0,1-17.78-8.6l7.11-18.52a62.42,62.42,0,0,0,15.46,8.27,46.9,46.9,0,0,0,16.13,3,23.1,23.1,0,0,0,8.27-1.33,16.54,16.54,0,0,0,5.7-3.47,13.37,13.37,0,0,0,3.31-5,17.35,17.35,0,0,0,1.07-6,19.43,19.43,0,0,0-.82-5.79,13.61,13.61,0,0,0-3.31-5.21,33.65,33.65,0,0,0-6.95-5.2,91.09,91.09,0,0,0-11.74-5.63q-15.87-6.78-22.32-15.13a30.63,30.63,0,0,1-6.45-19.26A31.7,31.7,0,0,1,319.52,230a38.19,38.19,0,0,1,12.56-7.52A47.41,47.41,0,0,1,349,219.62a56.2,56.2,0,0,1,17,2.56,50.77,50.77,0,0,1,13.39,6.2l-6.62,18.19q-2.47-1.65-5.37-3.22a43.41,43.41,0,0,0-6.12-2.73,56.16,56.16,0,0,0-6.45-1.9,28,28,0,0,0-6.36-.75q-9.6,0-14.14,4.47A14.29,14.29,0,0,0,329.77,253a13.12,13.12,0,0,0,4.88,10.33q4.88,4.23,16.12,9.18a107.19,107.19,0,0,1,14.88,7.86,42.1,42.1,0,0,1,9.51,8.18,26.69,26.69,0,0,1,5,9.18A37.1,37.1,0,0,1,381.69,308.59Z"/><path class="cls-1" d="M564.07,282.29a64.82,64.82,0,0,1-4.72,24.89A59.65,59.65,0,0,1,546.29,327a60.4,60.4,0,0,1-19.6,13.07,62.67,62.67,0,0,1-24.47,4.71A61.72,61.72,0,0,1,478,340.09,57.8,57.8,0,0,1,458.73,327a59.58,59.58,0,0,1-12.65-19.84,66.87,66.87,0,0,1-4.55-24.89,65.41,65.41,0,0,1,4.71-25.05A59.25,59.25,0,0,1,479,224.33a62.88,62.88,0,0,1,24.39-4.71,61.52,61.52,0,0,1,24.31,4.71,58.2,58.2,0,0,1,19.18,13.06,59.73,59.73,0,0,1,12.65,19.85A67.51,67.51,0,0,1,564.07,282.29Zm-22.16,0a51.75,51.75,0,0,0-2.9-17.53,43.8,43.8,0,0,0-8-14,35.76,35.76,0,0,0-12.32-9.27,37.4,37.4,0,0,0-15.79-3.3,38,38,0,0,0-15.87,3.3,35.63,35.63,0,0,0-12.41,9.27,43.8,43.8,0,0,0-8,14,54.61,54.61,0,0,0,0,35.06,42.88,42.88,0,0,0,8,14,37.48,37.48,0,0,0,56.39,0,42.88,42.88,0,0,0,8-14A51.75,51.75,0,0,0,541.91,282.29Z"/><path class="cls-1" d="M700.26,342.82,673.8,299.16c-1.1.11-2.15.16-3.14.16h-3.31c-2,0-4,0-6-.08s-4.05-.14-6-.25v43.83H634.61V222.76q7.27-.82,15-1.41t16.95-.58a73.77,73.77,0,0,1,22.24,3,45.31,45.31,0,0,1,15.46,8.1,31.32,31.32,0,0,1,9,12.08,38.69,38.69,0,0,1,2.9,15A36.71,36.71,0,0,1,710,280q-6.12,9.11-17.53,14.06l31.75,48.79Zm-6-82.85a18.81,18.81,0,0,0-6.62-15q-6.62-5.7-18.52-5.71c-2.53,0-5,.06-7.27.17a41.87,41.87,0,0,0-6.62.83v41.34c1.88.22,3.83.39,5.87.49s4.05.17,6,.17q13.56,0,20.34-6T694.31,260Z"/><path class="cls-1" d="M832.79,240.45V342.82H812.12V240.45H773.59V221.6h97.56v18.85Z"/><path class="cls-1" d="M1000,308.59a36.06,36.06,0,0,1-2.73,13.89,33.34,33.34,0,0,1-7.94,11.57,38.29,38.29,0,0,1-12.56,7.86A45.81,45.81,0,0,1,960,344.8a63.07,63.07,0,0,1-20.26-3.31,74.51,74.51,0,0,1-17.77-8.6l7.11-18.52a62.24,62.24,0,0,0,15.46,8.27,46.85,46.85,0,0,0,16.12,3,23,23,0,0,0,8.27-1.33,16.5,16.5,0,0,0,5.71-3.47,13.23,13.23,0,0,0,3.3-5,17.13,17.13,0,0,0,1.08-6,19.43,19.43,0,0,0-.83-5.79,13.37,13.37,0,0,0-3.31-5.21,33.29,33.29,0,0,0-6.94-5.2,91.74,91.74,0,0,0-11.74-5.63q-15.88-6.78-22.33-15.13a30.63,30.63,0,0,1-6.45-19.26A31.8,31.8,0,0,1,937.82,230a38.34,38.34,0,0,1,12.57-7.52,47.33,47.33,0,0,1,16.87-2.81,56.09,56.09,0,0,1,17,2.56,50.84,50.84,0,0,1,13.4,6.2l-6.62,18.19c-1.65-1.1-3.45-2.17-5.37-3.22a43.41,43.41,0,0,0-6.12-2.73,56.16,56.16,0,0,0-6.45-1.9,28.1,28.1,0,0,0-6.37-.75q-9.59,0-14.14,4.47A14.31,14.31,0,0,0,948.08,253,13.14,13.14,0,0,0,953,263.35q4.88,4.23,16.13,9.18A107.77,107.77,0,0,1,984,280.39a42.1,42.1,0,0,1,9.51,8.18,26.5,26.5,0,0,1,5,9.18A37.09,37.09,0,0,1,1000,308.59Z"/></g></svg>