<svg id="Layer_1" data-name="Layer 1" xmlns="http://www.w3.org/2000/svg" viewBox="0 0 1000 102.47"><defs><style>.cls-1{fill:#fff;}</style></defs><title>Client-Logos-Master</title><g id="icon-tm-logo-a4effg10"><g id="icon-tm-logo-a4effg12"><path id="icon-tm-logo-a4effpath14" class="cls-1" d="M50,43.57H31.25V77.52c0,5.11,0,10.68,5.81,10.68s6-7.22,6-10.37H55.14c.6,16.07-5.21,24.63-22.09,24.63-13.37,0-21.79-9.56-21.79-20.13V43.57H0V30H11.26V16.37l20-7.08V30H50V43.57"/><path id="icon-tm-logo-a4effpath16" class="cls-1" d="M105.92,88.18c12.77,0,16.82-11.86,16.82-23s-4-23-16.82-23-16.83,11.86-16.83,23S93.14,88.18,105.92,88.18Zm37.55-23c0,23.44-15.48,37.26-37.55,37.26S68.36,88.64,68.36,65.2s15.47-37.26,37.56-37.26S143.47,41.8,143.47,65.2"/><path id="icon-tm-logo-a4effpath18" class="cls-1" d="M158.51,86.84h9.76V43.57h-9.76V30h27.94V41.92h.3A26.42,26.42,0,0,1,210.64,28c10.81,0,18.17,3.15,23.43,13.07C238.88,32.2,246.84,28,256.76,28c15.48,0,26,6.45,26.44,22.83v36H293v13.51H254.21V86.84h9V56.34c0-7.66-3-14.12-12-14.12-10.82,0-15.47,8.71-15.47,18.16V86.84h9v13.51h-38V86.84h9V56.34c0-7.21-4.2-14.12-12.32-14.12-10.81,0-15.18,9.92-15.18,18.93V86.84h9v13.51H158.51V86.84"/><path id="icon-tm-logo-a4effpath20" class="cls-1" d="M347.65,68.21c-10.22,0-19.38,1.65-19.38,11.11,0,6.61,4.51,9.62,10.66,9.62,11.87,0,18.58-8.72,18.34-20.73Zm9.92,21.94h-.3c-6.16,9.46-12.63,12.32-23.29,12.32-13.07,0-24.49-7.52-24.49-22.54,0-23.13,23.14-23.74,40.72-23.74h7.06V50.78c0-8.26-6.16-10.81-13.53-10.81-7.82,0-12.62,3.31-13.22,11.41H311.75C312.91,31.25,329.48,28,346,28c22.69,0,30,9.47,30,30.8v28.1h9v13.5H357.57V90.14"/><path id="icon-tm-logo-a4effpath22" class="cls-1" d="M407.76,75.56h15.77c0,8.86,6.91,13.37,15,13.37,4.36,0,10.52-1.5,10.52-8.13,0-14.73-41.61,0-41.61-31.25,0-14.72,12.47-21.63,25.24-21.63,8.13,0,14.27,2.25,18.93,9.46h.3V30h15v23.3H451.18c0-8.27-5.57-11.87-12.93-11.87-4.05,0-10.82.9-10.82,7.51,0,14.27,41.62,0,41.62,31,0,12.47-9.92,22.54-25.1,22.54-10.52,0-16.82-3.9-20.9-9.62h-.3v7.52h-15V75.56"/><path id="icon-tm-logo-a4effpath24" class="cls-1" d="M547.63,86.84h9.76V43.57h-9.76V30h28V41.92h.3A26.42,26.42,0,0,1,599.77,28c10.81,0,18.17,3.15,23.43,13.07C628,32.2,636,28,645.89,28c15.48,0,26,6.45,26.44,22.83v36h9.77v13.51H643.33V86.84h9V56.34c0-7.66-3-14.12-12-14.12-10.81,0-15.47,8.71-15.47,18.18V86.84h9v13.51h-38V86.84h9V56.34c0-7.21-4.21-14.12-12.33-14.12-10.82,0-15.17,9.92-15.17,18.93V86.84h9.06v13.51h-38.8V86.84"/><path id="icon-tm-logo-a4effpath26" class="cls-1" d="M733.77,68.21c-10.21,0-19.38,1.65-19.38,11.11,0,6.61,4.51,9.62,10.68,9.62,11.86,0,18.58-8.72,18.32-20.73Zm9.92,21.94h-.3c-6.15,9.46-12.62,12.32-23.28,12.32-13.07,0-24.49-7.52-24.49-22.54,0-23.15,23.19-23.74,40.71-23.74h7.06V50.78c0-8.26-6.15-10.81-13.52-10.81-7.81,0-12.62,3.31-13.22,11.41H697.9C699.07,31.25,715.64,28,732.16,28c22.68,0,30,9.47,30,30.8v28.1h9v13.5H743.69V90.14"/><path id="icon-tm-logo-a4effpath28" class="cls-1" d="M821.67,20H800.94V0h20.73ZM792,86.84h9.77V43.57H792V30H821.7V86.83h9.75v13.52H792V86.84"/><path id="icon-tm-logo-a4effpath30" class="cls-1" d="M898.44,58.14c0-10.06-5.11-16.67-15.48-16.67-10.07,0-15.62,7.21-15.62,16.67Zm-31.1,12.78c0,11.11,6.46,18,17.58,18,7,0,11.87-2.86,13.82-10.37h18.78c-3.31,17-17.13,23.89-33.2,23.89-24.64,0-37.71-14.73-37.71-38.16,0-22.06,15-36.36,37.27-36.36,17,0,30.64,9.77,33.67,27.05a97.36,97.36,0,0,1,.91,15.92h-51.1"/><path id="icon-tm-logo-a4effpath32" class="cls-1" d="M941.11,86.84h9.77V43.57h-9.77V30h28.4V43.72h.3C974,34.71,981.07,28,991.44,28a40.35,40.35,0,0,1,8.56.91V45.23a35.88,35.88,0,0,0-9-.75c-13.22,0-19.38,9.76-20.13,21.93V86.85h12v13.5h-41.8V86.84"/></g></g></svg>