<svg id="Layer_1" data-name="Layer 1" xmlns="http://www.w3.org/2000/svg" viewBox="0 0 973.76 1000"><defs><style>.cls-1{fill:#fff;}</style></defs><title>Client-Logos-Master</title><g id="BP"><path class="cls-1" d="M1.3,362.32v45.87a9.43,9.43,0,0,0,11.42,9.21l171.5-37a9.55,9.55,0,0,1,11.57,9.34V598.06a9.56,9.56,0,0,1-7.56,9.35L8.86,646a9.58,9.58,0,0,0-7.56,9.36V696.6a9.42,9.42,0,0,0,11.41,9.21l171.68-36.88a9.42,9.42,0,0,1,11.4,9.21V887.23a9.43,9.43,0,0,1-7.44,9.22L8.74,935.22a9.43,9.43,0,0,0-7.44,9.21v46a9.53,9.53,0,0,0,11.55,9.32l442.84-95.59a9.53,9.53,0,0,0,7.53-9.32V266.61a9.56,9.56,0,0,0-11.59-9.35L7.55,353.13A9.54,9.54,0,0,0,0,362.47M394.87,855.74,268.18,883.09a9.59,9.59,0,0,1-11.61-9.37V661.07a9.57,9.57,0,0,1,7.55-9.35L390.84,624.5a9.58,9.58,0,0,1,11.6,9.37v212.5a9.59,9.59,0,0,1-7.57,9.37m0-293.07L268.14,589.89a9.56,9.56,0,0,1-11.57-9.34V368.22a9.6,9.6,0,0,1,7.56-9.37l126.7-27.35a9.6,9.6,0,0,1,11.61,9.37V553.29a9.6,9.6,0,0,1-7.57,9.38"/><path class="cls-1" d="M1.3,508.19v43a9.41,9.41,0,0,0,11.39,9.2l133-28.71a9.57,9.57,0,0,0,7.55-9.35V481.06a9.42,9.42,0,0,0-11.4-9.2L8.72,500.6a9.41,9.41,0,0,0-7.42,9.2"/><path class="cls-1" d="M1.3,799.93v43.82a9.4,9.4,0,0,0,11.39,9.19l133-28.71a9.57,9.57,0,0,0,7.55-9.35V773.65a9.41,9.41,0,0,0-11.4-9.19L8.72,793.19a9.42,9.42,0,0,0-7.42,9.2"/><path class="cls-1" d="M511.84,252.92v41.2a9.41,9.41,0,0,0,11.4,9.2l133-28.71a9.56,9.56,0,0,0,7.54-9.34V224a9.42,9.42,0,0,0-11.4-9.2L519.26,243.57a9.42,9.42,0,0,0-7.42,9.2"/><path class="cls-1" d="M511.84,544.66v42.06a9.42,9.42,0,0,0,11.4,9.2l133-28.72a9.56,9.56,0,0,0,7.54-9.34V516.63a9.41,9.41,0,0,0-11.4-9.2L519.26,536.17a9.4,9.4,0,0,0-7.42,9.19"/><path class="cls-1" d="M1.3,216.46V256.7A9.54,9.54,0,0,0,12.84,266l682-146.6a9.53,9.53,0,0,1,11.53,9.32V341.42a9.57,9.57,0,0,1-7.55,9.35L519.4,389.3a9.58,9.58,0,0,0-7.56,9.36V440a9.43,9.43,0,0,0,11.41,9.22l171.68-36.89a9.42,9.42,0,0,1,11.4,9.22V630.59a9.41,9.41,0,0,1-7.44,9.21L519.28,678.57a9.43,9.43,0,0,0-7.44,9.21v45.59a9.49,9.49,0,0,0,11.48,9.27l236.31-51a9.48,9.48,0,0,0,7.48-9.27V403.89a9.57,9.57,0,0,1,7.55-9.35l191.51-41.16a9.6,9.6,0,0,0,7.59-9.39V9.57A9.57,9.57,0,0,0,962.18.22L8.33,205.5a9.56,9.56,0,0,0-7.55,9.35m904.63,90.79L778.68,332.87a9.56,9.56,0,0,1-11.57-9.35V111.19a9.6,9.6,0,0,1,7.56-9.37l126.7-27.35A9.6,9.6,0,0,1,913,83.84V296.27a9.6,9.6,0,0,1-7.57,9.37"/></g></svg>