<svg id="Layer_1" data-name="Layer 1" xmlns="http://www.w3.org/2000/svg" viewBox="0 0 1000 133.64"><defs><style>.cls-1{fill:#fff;}</style></defs><title>Client-Logos-Master</title><g id="Farfetch"><path class="cls-1" d="M320.14,0q13,13,26,26a2.58,2.58,0,0,1,.85,2c0,8,0,16.09,0,24.13v1.37H320.31c.46.49.72.8,1,1.08q12.48,12.51,24.95,25a2.33,2.33,0,0,1,.65,1.45q0,25.86,0,51.71c0,.23,0,.45-.05.77H320.21V80.34H293.38v53.18H266.72c0-.38-.06-.78-.06-1.19q0-65.55,0-131.1A10.32,10.32,0,0,1,266.82,0ZM293.4,53.35h26.69V26.89H293.4Z"/><path class="cls-1" d="M1000,0c0,.42,0,.84,0,1.25V133.5H973.23V80.35h-26.6v53.18H919.86V1.26c0-.42,0-.84,0-1.26h26.54a12.07,12.07,0,0,1,.16,1.46V53.34h26.6V51.79q0-25.89,0-51.79Z"/><path class="cls-1" d="M181.69,0c.19.23.35.48.55.69Q194.9,13.35,207.57,26a2.56,2.56,0,0,1,.85,2q0,52.11,0,104.22v1.3H181.65V80.32H155v53.2H128.29v-1.27q0-52.17,0-104.34a2.42,2.42,0,0,1,.8-1.89Q141.63,13.51,154.15.94a12.06,12.06,0,0,0,.77-.94Zm-.11,26.86H155.12V53.32h26.46Z"/><path class="cls-1" d="M609.38,0a7,7,0,0,1,.14,1V25.83c0,.3,0,.6-.09,1H556.14V53.4h40V80.24h-40v26.58h53.31V133.6h-1.29q-25.46,0-50.91,0a2.57,2.57,0,0,1-2-.83Q542.65,120.15,530,107.55a2.28,2.28,0,0,1-.72-1.8q0-38.9,0-77.79a2.44,2.44,0,0,1,.79-1.89q13-13,26-26.07Z"/><path class="cls-1" d="M80.09,0a5.7,5.7,0,0,1,.17,1q0,12.42,0,24.82c0,.3,0,.59-.07,1H26.89V53.36H66.83V80.2h-40v53.44H0V26.77a7.16,7.16,0,0,0,.61-.48Q13.42,13.5,26.21.69A7.34,7.34,0,0,0,26.77,0Z"/><path class="cls-1" d="M485.13,0q0,12.65,0,25.28v1.5H431.7V53.4h39.95V80.21h-40v53.33H405c0-.39-.07-.79-.07-1.19q0-52.23,0-104.46A2.44,2.44,0,0,1,405.7,26Q418.26,13.49,430.78.94c.29-.29.53-.63.8-.94Z"/><path class="cls-1" d="M872.08,0a7.07,7.07,0,0,1,.16,1.11v24.6c0,.33,0,.66-.07,1.11H818.88v80h53.33V133.6h-1.27q-25.52,0-51,0a2.4,2.4,0,0,1-1.88-.8q-12.6-12.64-25.22-25.27a2.76,2.76,0,0,1-.73-1.77q-.06-38.94,0-77.9a2.79,2.79,0,0,1,.74-1.76Q805.4,13.45,818,.85c.26-.27.49-.57.73-.85Z"/><path class="cls-1" d="M743,0V26.75H716.34V133.5H689.51V26.82H662.93V0Z"/></g></svg>