<svg id="Layer_1" data-name="Layer 1" xmlns="http://www.w3.org/2000/svg" xmlns:xlink="http://www.w3.org/1999/xlink" viewBox="0 0 1000 382.85"><defs><style>.cls-1{fill:none;}.cls-2{fill:#fff;}.cls-3{clip-path:url(#clip-path);}</style><clipPath id="clip-path"><rect class="cls-1" x="0.12" y="0.23" width="999.88" height="382.85"/></clipPath></defs><title>Client-Logos-Master</title><g id="Buffy"><path class="cls-2" d="M144.19,248.41c-7.23,0-17.82-2.3-17.82-8.48,0-8.19-.11-53-.11-53q0-9.85,3.17-13.6t11.39-3.74c21.17,0,31.75,9.88,31.75,39.05,0,23.39-9.46,39.79-28.38,39.79ZM126.37,59.57c0-3.18,1.41-4.35,3-4.35H138A21.61,21.61,0,0,1,157,65.44q6.74,10.16,6.73,28.68,0,19.13-6.54,28.09t-20.36,9l-5.88.19a4.46,4.46,0,0,1-4.58-4.74V59.57Zm91.91,81.11c-3.7-1.34-3.16-4.37.13-5.68,22.63-11.62,34.06-30.18,34.06-55.7C252.47,46.24,210.7,17,137.25,17c-50.77,0-99,9.6-130.08,20.85l0,.36a11.86,11.86,0,0,0,.79,22.08c19.77,8.16,32,16.09,32,41.77,0,36.73-1.41,67.62-3.55,92.74-1.73,20.25-2.49,31.54-12,42.3-4.93,5.61-14.2,13-14.2,16.24,0,18,51.18,38.21,126.85,38.21,98.61,0,137.43-46.11,137.43-84.95,0-33-16.9-51-56.23-65.94Z"/><g class="cls-3"><path class="cls-2" d="M502.73,113.39c0-6.57-23.17-9.85-34.89-9.85-46.33,0-66.69,11.11-63,17.87,13,24,15.57,57.62,15.57,80,0,32.84-9.71,44.42-25.75,44.42-11.45,0-17.77-8-17.77-25.07V113.59c0-6.57-24.23-9.86-36.45-9.86-40,0-64.22,15.5-58.63,27.14,11.63,24.24,17.39,52,13.84,98.38-3.48,45.45,23.58,62.12,57.52,62.12,32.58,0,50.14-12.77,63.58-28.47.41-.48,1.78-1.4,2.43.05,7.55,16.89,26.65,28.62,52.44,28.62s44.93-13,46-22.87c.68-6.1-2.28-7.89-5.9-11.74-7.63-8.15-10.94-24.85-10.94-35.64,0-32.84,2-107.93,2-107.93Z"/><path class="cls-2" d="M968.84,102.84c-11.29,0-33.87,4.07-33.87,11.25s11.55,15.33,7.16,36.34c-1.38,6.61-19.64,62.72-27.59,62.72s-14.91-51.06-16.33-59.31c-3.26-19,6.23-25,6.23-37.1,0-8.61-18.22-13.9-42.86-13.9-18.34,0-46.52,3.48-67.26,9h0c-22.59,6.43-32.52-1.7-33.28-12.08-.87-11.87-.84-23.77-.71-35.16.11-10,6.1-15,13.88-11.2,9,4.4,21.21,3.59,25.27-.72,7.25-7.68,7.83-14.41,1.07-24.09-9-12.84-30.56-30.16-58.84-30.16-43.79,0-67.51,27.08-67.51,62.38V99.87c0,8.6-3.51,16-22.72,16-17,0-23.79-5.58-23.79-16.75,0-11.74-1.08-21.82-.95-33.06.11-9.82,5.79-14.33,13.68-11,6.38,2.68,17.54,4.73,22.89-.7,7.31-7.41,7.38-14.64,1.05-23.75C655.52,17.92,636.74.87,608.35.87c-43.17,0-66.55,26.7-66.55,61.49V102.1c0,4.7-2,7.25-4.59,8.6-9.71,5.14-20.12,11.06-20.12,16.65,0,5.4,11,12.15,18,19.35,4.64,4.77,6.95,7.08,6.71,15.17V211.7c0,12.39-1.23,33.73-7.64,49.41-7.21,17.67,14.44,29.34,53.18,29.34,41.25,0,58.2-12.34,58.36-23.06,0-7.25-13.15-14.88-13.15-46.25l-1.15-54.59c0-12.26,5.14-24.94,22.07-24.94,15.42,0,20.7,11.67,20.7,26.74v50.16c0,7.1-1.46,33.51-7.75,43.9-10,16.57,14.65,29.76,54,29.76,41.84,0,59.2-12.51,59.2-23.38,0-7.36-13.34-15.79-13.34-46.92l-1.17-63.38c0-12.14,6.43-18.81,16.38-18.81,13.34,0,17.84,7.44,23.36,19.52.62,1.34,40.45,134.14,40.45,134.14,7,25.18,13.52,52.12,5,55.71-7.53,3.16-14.88-.77-20.68-17.47-7.7-22.17-8.66-39.28-27.81-37.95-20.35,1.41-38.84,21.91-37.29,42.67,1.65,22.07,33.91,47.12,68.85,47.12,29,0,53.88-16.41,79.78-77.12,0,0,63.6-135.74,70-149,6-12.48,15.65-27.81,17.22-34.29,3.34-13.75-9.9-20.16-31.46-20.16Z"/></g></g></svg>