<svg id="Layer_1" data-name="Layer 1" xmlns="http://www.w3.org/2000/svg" xmlns:xlink="http://www.w3.org/1999/xlink" viewBox="0 0 1000 326.2"><defs><style>.cls-1{fill:none;}.cls-2{fill:#fff;}.cls-3{clip-path:url(#clip-path);}.cls-4{clip-path:url(#clip-path-2);}</style><clipPath id="clip-path"><rect class="cls-1" x="369.02" width="25.19" height="108.31"/></clipPath><clipPath id="clip-path-2"><rect class="cls-1" x="702.77" width="69.27" height="107.05"/></clipPath></defs><title>Client-Logos-Master</title><g id="Planned_Parenthood" data-name="Planned Parenthood"><g id="g10"><g id="g16"><path id="path18" class="cls-2" d="M246.85,104.53V226.17c0,40.83-33.13,73.58-74.35,73.58H97.38L111.63,267H172a42.25,42.25,0,0,0,42.13-42.12v-87.6H128.25A41.34,41.34,0,0,0,86.9,178.62V326.2H54.16V179.81a75.5,75.5,0,0,1,75.27-75.28H180.1v-68H114.8c-45.46,0-82,37.43-82,83V326.2H0V118.45A115.73,115.73,0,0,1,116,2.52h96.89V103.27h34"/></g><g id="g88"><path id="path90" class="cls-2" d="M298.49,54.16V18.89h28.68c7.75,0,11.62,5.81,11.62,18.21,0,11.24-4.65,17.06-12.4,17.06Zm0,50.37v-34h34c19.55,0,28.15-15.64,28.15-33.22,0-19.55-7-34.79-28.54-34.79H279.6V103.27h18.89"/></g><g id="g92"><g class="cls-3"><g id="g94"><g id="g100"><path id="path102" class="cls-2" d="M387.91,0H369V84.25c0,10.92,3.21,17.94,8,23.79l16.88-6.63c-4.82-5.46-6-10.92-6-17.55V0"/></g></g></g></g><g id="g104"><path id="path106" class="cls-2" d="M448.36,89.87c-3.9,1.56-9.36,2.34-14.82,2.34-10.72,0-13.55-1.13-13.65-10.39A11.25,11.25,0,0,1,430.81,70.4a87,87,0,0,1,17.55,1.14ZM466,56.71c0-21.84-10.53-28.86-32.37-28.86a129.52,129.52,0,0,0-29.25,3.9L407.88,47a62.94,62.94,0,0,1,22.23-3.9c15.21,0,18.33,3.51,18.33,16-5.85-.78-11.7-1.95-18.33-1.95-17.16,0-29.25,3.51-29.25,24.58,0,19.5,7.8,25,31.2,25,10.92,0,24.57-2.73,33.93-5.85V56.67"/></g><g id="g108"><path id="path110" class="cls-2" d="M495.07,46.18a47.59,47.59,0,0,1,13.26-1.56c12.48,0,15.6,3.9,15.6,20.28v39.63h17.63V63.58c0-26.91-9.41-35.1-29.8-35.1-12.55,0-26.67,3.12-35.69,7v69H495V46.6"/></g><g id="g112"><path id="path114" class="cls-2" d="M570.63,46.18a47.59,47.59,0,0,1,13.26-1.56c12.49,0,15.61,3.9,15.61,20.28v39.63h17.63V63.58c0-26.91-9.29-35.1-29.41-35.1-11.61,0-26.31,3.12-34.82,7v69h17.63V46.6"/></g><g id="g116"><path id="path118" class="cls-2" d="M647,57.93c1.56-12.09,5.46-15.6,16.77-15.6,10.14,0,14,2.34,14.43,15.6Zm40.17,29.85c-5.85,2-15.6,3.12-21.06,3.12C653.62,90.9,647,87.78,647,71.79h48c1.56-35.88-9-44.08-32.38-44.08-21.45,0-34.71,9.37-34.71,39,0,30.42,14.82,39.78,36.27,39.78a83.42,83.42,0,0,0,25.75-4.68l-2.74-14"/></g><g id="g120"><g class="cls-4"><g id="g122"><g id="g128"><path id="path130" class="cls-2" d="M753.15,89.09c-3.9.78-9.36,2-14,2C726.24,91,722,87.14,722,66.85c0-18.33,3.9-23.4,16.38-23.4,8.58,0,14.82,2.73,14.82,7ZM770.78,0H753.15V32.37a35.91,35.91,0,0,0-17.25-4.29c-19.55,0-31.82,9.36-31.82,39.79,0,30,11.12,39,35.27,39a108.05,108.05,0,0,0,31.43-5.46V0"/></g></g></g></g><g id="g132"><path id="path134" class="cls-2" d="M298.49,188.92V153.65h28.68c7.75,0,11.62,5.81,11.62,17.83,0,11.62-4.65,17.44-12.4,17.44Zm0,50.37v-34H332.3c19.43,0,28-16.32,28-33,0-20.21-7-35-28.37-35H279.6v102h18.89"/></g><g id="g136"><path id="path138" class="cls-2" d="M414.36,224.43a45.08,45.08,0,0,1-14.43,2.73c-11.31,0-13.65-1.56-13.65-11.7,0-9.36,3.12-10.92,13.65-10.92,5.07,0,10.53.39,14.43,1.56ZM432,191.28c0-21.85-10.14-28.48-32-28.48a118.18,118.18,0,0,0-29.26,3.9l2.74,14.43a80.91,80.91,0,0,1,22.62-3.51c15.6,0,18.33,3.12,18.33,16.39a72.19,72.19,0,0,0-17.94-1.95c-17.55,0-29.26,3.12-29.26,24.18,0,19.11,7.81,24.57,31.21,24.57,10.14,0,23.79-1.95,33.54-5.85V191.44"/></g><g id="g140"><path id="path142" class="cls-2" d="M442.07,239.29H461V187.81c0-5.07,8.05-8.19,16.86-8.19a38.06,38.06,0,0,1,9.59,1.17V163.63a55.84,55.84,0,0,0-7.67-.39C469,163.24,464,166.36,461,171v-6H443.32v74.3"/></g><g id="g144"><path id="path146" class="cls-2" d="M508.92,192.69c1.56-12.09,5.46-16,16.77-16,10.14,0,14,2.73,14.43,16Zm40.17,29.85c-5.85,1.56-15.6,3.12-21.06,3.12-12.87,0-19.11-3.51-19.11-19.11h48c1.17-35.88-9-43.68-32.37-43.68-21.45,0-34.71,9-34.71,38.22,0,30.81,14.82,39.78,36.27,39.78a98.07,98.07,0,0,0,25.74-3.9l-2.73-14.43"/></g><g id="g148"><path id="path150" class="cls-2" d="M584.1,180.74a37.72,37.72,0,0,1,13.26-2c12.87,0,16,4.29,16,20.29v40.21H631V197.56c0-26.13-9.35-34.32-30-34.32a112.59,112.59,0,0,0-35.48,6.24v69.81h18.89V181.36"/></g><g id="g152"><path id="path154" class="cls-2" d="M691.44,181.36V165H667.51v-19.5l-17.64,7V165H637.28v16.37h12.59v33.15c0,21.84,8,26.92,24.15,26.92A60.79,60.79,0,0,0,694,237.91l-3.06-14c-3.83.78-7.67,1.95-12.27,1.95-8.81,0-11.11-3.51-11.11-12.87V181.36h23.93"/></g><g id="g156"><path id="path158" class="cls-2" d="M766.73,196.35c0-27.7-9.36-33.55-26.91-33.55a53.82,53.82,0,0,0-20.68,4.68V134.76H701.51V239.29h17.63V185.86c0-4.29,7-6.63,14.68-6.63,11.2,0,14.29,6.63,14.29,19.11v40.95H767V196.47"/></g><g id="g160"><path id="path162" class="cls-2" d="M793.25,201.81c0-21.07,3.9-24.58,16.39-24.58,13.26,0,17.16,3.51,17.16,24.58,0,20.28-3.9,24.18-17.16,24.18C797.15,226,793.25,222.09,793.25,201.81ZM774.53,201c0,30.81,11.7,39.78,35.11,39.78,23.79,0,35.49-9,35.49-39.78,0-29.65-11.7-38.23-35.49-38.23-23.41,0-35.11,8.58-35.11,38.23"/></g><g id="g164"><path id="path166" class="cls-2" d="M872,201.81c0-21.07,3.9-24.58,16.77-24.58,12.48,0,16.38,3.51,16.38,24.58,0,20.28-3.9,24.18-16.38,24.18C875.94,226,872,222.09,872,201.81ZM853.71,201c0,30.81,11.31,39.78,35.1,39.78,23.4,0,35.1-9,35.1-39.78,0-29.65-11.7-38.23-35.1-38.23s-35.1,8.58-35.1,38.23"/></g><g id="g168"><path id="path170" class="cls-2" d="M982.37,223.26a53.65,53.65,0,0,1-14.82,2.34c-12.48,0-16.38-3.9-16.38-24.57,0-17.95,3.9-23.41,16.38-23.41,8.58,0,14.82,3.12,14.82,7.41ZM1000,133.5H982.37v33.15c-3.84-2.34-9.2-4.29-17.63-4.29-19.17,0-31.44,9-31.44,39s10.74,39,34.5,39c10.73,0,24.15-2,32.2-5.46V133.5"/></g></g></g></svg>