<svg id="Layer_1" data-name="Layer 1" xmlns="http://www.w3.org/2000/svg" viewBox="0 0 1000 1000"><defs><style>.cls-1{fill:#fff;}</style></defs><title>Client-Logos-Master</title><g id="Stones_Throw" data-name="Stones Throw"><path class="cls-1" d="M799.84,700.28c-4.65,64.62-15,113.38-24.62,159.22a451.73,451.73,0,0,0,42.67-37.18c-7-35.53-13.56-74.5-17-122Z"/><rect class="cls-1" x="604.35" y="555.23" width="39.26" height="300.12"/><path class="cls-1" d="M173.08,153.64H139.37c-1.22,1.31-2.46,2.6-3.66,3.93v35.68A472.4,472.4,0,0,1,173.08,153.64Z"/><rect class="cls-1" x="398.72" y="153.91" width="39.24" height="300.11"/><path class="cls-1" d="M827.86,154.73a488.22,488.22,0,0,1,39.27,42.08V160.62c-2.14-2.33-4.31-4.64-6.51-7H827.86Z"/><path class="cls-1" d="M823.39,849.11a481.7,481.7,0,0,1-55.07,44,12.19,12.19,0,0,0-.27,1.31h-1.59a476.31,476.31,0,0,1-578.87-35.23v31.26a500,500,0,0,0,641.49-14C827.19,867.39,825.3,858.35,823.39,849.11Z"/><path class="cls-1" d="M148.39,820.87A476.07,476.07,0,0,1,96.47,247V204.75a500,500,0,0,0,51.92,650.71Z"/><path class="cls-1" d="M906.4,208.64v4.41H880a476.16,476.16,0,0,1-7.31,583l-1.32,38.83A500.15,500.15,0,0,0,906.4,208.64Z"/><path class="cls-1" d="M199,130.89a476.09,476.09,0,0,1,603.55,1.42,59.72,59.72,0,0,1,19.28-14.91,499.92,499.92,0,0,0-642.6-1A60,60,0,0,1,199,130.89Z"/><rect class="cls-1" x="447.47" y="555.23" width="39.24" height="130.45"/><path class="cls-1" d="M952.88,499.81a451.26,451.26,0,0,0-125-312.39v96.7h39.27a39.15,39.15,0,0,1,39.27,39.24v114a58.87,58.87,0,1,1-117.73,0V394.41h39.19v59.36h39.27V323.36H827.86a39.16,39.16,0,0,1-39.19-39.24v-114A57.31,57.31,0,0,1,791.24,153c-7-5.89-14.22-11.61-21.58-17.08v17.71H691.21V284.12h58.84v39.24H691.21V453.77h78.45V493H691.21A39.16,39.16,0,0,1,652,453.77V153.64a39.15,39.15,0,0,1,39.25-39.2H738a453.13,453.13,0,0,0-476.14,0h83.76v39.2h-39.2V493H267.13V153.64H227.88V137.58c-5.74,4.37-11.42,8.82-16.94,13.43a58.09,58.09,0,0,1,3.23,19.09v43H174.93V184.31a459,459,0,0,0-39.22,46.2v53.61h39.22a39.14,39.14,0,0,1,39.24,39.24v114a58.85,58.85,0,1,1-117.7,0V394.41h39.24v59.36h39.22V323.36H135.71a39.16,39.16,0,0,1-38.43-31.24,453.28,453.28,0,0,0,51.11,493.34V555H109.15V515.78h117.7V555H187.59v272.9a456.42,456.42,0,0,0,63.66,50.5V515.78h39.22V685.46h39.22V515.78H369v378.6H329.69V724.71H290.47V894.38H277.31a453.43,453.43,0,0,0,454-5.1l-12.55-373.5h39.77c.5,67.88,2.08,136.27,2.08,204.14,0,24.4-1,48.78-1,73.16h1c6.91-62.57,17-104.45,23.38-147.38h32.87c6.33,42.93,16.38,84.81,23.3,147.38h1c0-24.38-1-48.76-1-73.16,0-67.87,1.58-136.26,2.15-204.14H882l-8,239.47A450.94,450.94,0,0,0,952.88,499.81ZM359.4,437.32V170.1a58.85,58.85,0,1,1,117.69,0V437.32a58.85,58.85,0,1,1-117.69,0ZM545,493h-7.29a41.57,41.57,0,0,1,.64,6.87h-.77V500h.81a38.43,38.43,0,0,1-19.1,33.18A39,39,0,0,1,525.81,555V674.86c0,18-7.92,24.9-17.48,30.21,9.56,3.69,17.48,11.66,17.48,35V866.24c0,10.62,4.28,18.57,9.55,28.14H495.07c-4.24-8-8.47-18.59-8.47-28.14V724.71H447.36V894.38H408.12V515.78h56.75A38.25,38.25,0,0,1,461.46,500h.2s0-.1,0-.14h-.23a38.42,38.42,0,0,1,38.44-38.46,37.18,37.18,0,0,1,5.83.5V114.44H542.8c13.78,79.54,33.94,158,45.59,242.31h1c-2.1-31.83-5.29-99.15-5.29-132.58V114.44h39.25V493H586.25c-13.74-79.53-33.91-158-45.56-242.3h-1c2.08,31.81,5.25,99.13,5.25,132.54v68.88H545Zm137.8,345.67a58.87,58.87,0,0,1-117.73,0V571.47a58.87,58.87,0,1,1,117.73,0Z"/><path class="cls-1" d="M517.6,499.61a18,18,0,1,1-18-18A18,18,0,0,1,517.6,499.61Z"/></g></svg>