<svg id="Layer_1" data-name="Layer 1" xmlns="http://www.w3.org/2000/svg" viewBox="0 0 1000 598.63"><defs><style>.cls-1{fill:#fff;}.cls-2,.cls-3,.cls-4{fill:none;}.cls-2,.cls-4{stroke:#fff;stroke-miterlimit:10;}.cls-2{stroke-width:1.07px;}.cls-3{stroke:#010101;stroke-linecap:round;stroke-linejoin:round;stroke-width:0;}.cls-4{stroke-width:2.67px;}</style></defs><title>Client-Logos-Master</title><g id="Banded"><path class="cls-1" d="M958.06,355.83,1000,275H937.76V214.12h-875v62.77H0l41.45,79.89L0,436.68H138.61l-2-5.71h-.2L74.83,404.34h850L863.29,431h-.22L861,436.68h139Zm-891.49-136H932.05v178.8H66.57Zm-19.43,136-39-75.13h54.6V404.34h0l0,.09L122.69,431H8.16Zm890.62,48.51V280.7h54.11l-39,75.13,39,75.14h-114l59.94-26.54,0-.09Z"/><path class="cls-1" d="M579.53,556Q569,549,558.85,541.55c-.54.59-1.06,1.19-1.58,1.79q11,6.51,22.26,12.65"/><path class="cls-1" d="M548.24,556.19c-1,1.64-1.86,3.26-2.67,4.84q14.5,4.54,29.21,8.48-13.5-6.24-26.54-13.32"/><path class="cls-1" d="M432.78,520.25c1.22.69,2.44,1.36,3.65,2l2-1.53c-5.76-3.53-11.45-7.15-17.05-10.92-8.79-5.92-17.41-12.07-25.63-18.84-2.48-2.1-.22-4.68,2.15-2.7a267.2,267.2,0,0,0,25.62,18.15q9.3,5.9,18.93,11.21l5.88-4.52c-.06-.08-.14-.16-.2-.25a62,62,0,0,0-5.26-5.75c-6-3.47-12.09-7.2-17.33-12-3-1.78-5.48-4-8.15-5.73s-5.77-3.11-8.8-2.59c-.91.18-1.29-1.62-.38-1.81,3.77-.71,7.39.76,10.33,2.52s5.7,3.83,8.56,5.19l.1.05.17.13c5.44,4.25,11.7,7.21,18.11,10.16l.14.06.3.23a62.74,62.74,0,0,1,6.88,6.38l9.74-7.48c-1.27-.84-2.54-1.69-3.82-2.52-2.8-1.82.16-4.5,3.48.64l2.24.42,11.73-9c-5-4.1-9.88-8.27-14.68-12.58-3.77-3.38-7.49-6.85-11.07-10.45a107.6,107.6,0,0,1-10.12-11.48c-1.8-2.58-.05-3.66,1.63-1.27a100.22,100.22,0,0,0,10,11.16c3.59,3.52,7.31,6.91,11.12,10.21,5,4.35,10.18,8.55,15.41,12.65l5.25-4h0c-.77-.87-1.23-1.36-2.07-2.16l-1.88-1.91-1.84-1.81c-5-4.76-10.53-9.34-15.43-14.72l-.13-.14h0c-4.72-6.11-9.45-12.45-13.13-19.39-3.86-3.93-4.81-9.17-8.07-12.47-.67-.66.51-2.08,1.3-1.33,3.81,3.92,5,9.27,8.58,12.2l.12.1.12.21c4,6.48,9,12.15,14.23,17.79,5.07,4.66,10.85,8.63,16.39,13.29l2.07,1.79,1.93,1.77c.61.53,1.45,1.3,2.09,2,.19.19.35.39.54.58l1.67-1.54c-1.1-1.16-2.22-2.29-3.3-3.46-14.29-15.48-37-39.95-49.12-57.24-1.78-2.64-.24-3.7,1.53-1.12,12.07,17.12,35,41.34,49.59,56.4,1.13,1.16,2.3,2.28,3.44,3.43l1.46-1.37A401.39,401.39,0,0,1,454,432q-7.51-9.92-14.1-20H325.41c8.27,9.39,15.82,19.47,25.59,27.27.43.36-.72,1.94-1.16,1.6-11.71-8.93-23.74-18-33.88-28.87H302.05c30.09,40.06,73.77,76.3,130.73,108.3M419.62,470c8.95,8.53,19.49,14.94,29.61,22,1.36.94-.34,3.41-1.71,2.48A213.46,213.46,0,0,1,419,470.57c-.33-.32.24-.93.58-.62m-32.56,13.9c-5.23-3.84-10.24-8-15.21-12.12l-7.4-6.3c-2.45-2.14-4.95-4.15-7.28-6.52-.35-.43.35-.9.62-.58a71.22,71.22,0,0,0,7.43,6.11c2.59,1.93,5.22,3.81,7.86,5.68,5.28,3.73,10.59,7.43,15.78,11.3,1.39,1-.39,3.45-1.8,2.43m-17.35-62.92c8.61,8.81,16.54,18.29,26.37,25.77.37.29-.13,1-.5.68a222.32,222.32,0,0,1-28-24.35c-1.16-1.2,1-3.28,2.16-2.1m-32.85-4.15c-1.15-1.2,2-4.19,3.13-3,8.63,8.77,16.19,18.57,26,26.09.36.28-.37,1.25-.74,1-9.93-7.35-19.81-15.08-28.4-24"/><path class="cls-1" d="M585.23,566.68c-10.72-6-21.2-12.28-31.52-18.82-.89,1.21-1.74,2.42-2.55,3.65,12.08,5.9,23.47,10.91,34.07,15.17"/><path class="cls-1" d="M420,83.11c-.19,0-.37,0-.56.06-.85,3.17-1.82,6.26-2.6,9.22-.22.81-.41,1.62-.58,2.41s-.28,1.45-.41,2.4l-.45,2.65L415,102.4c-.95,6.83-1.4,14-2.88,21.14l0,.18h0c-2.18,7.41-4.54,15-8,22-.92,5.43-4.61,9.28-5.37,13.85-.13.92-2,.8-1.84-.27.95-5.39,4.58-9.51,4.86-14.11V145l.09-.22c3-7.06,4.58-14.54,6.1-22.13l0,.17c.8-6.84.62-13.84,1.14-21.07l.24-2.72.3-2.6c.07-.81.2-1.94.36-2.85s.35-1.86.56-2.77c.29-1.27.62-2.49.95-3.71A28,28,0,0,0,408.84,90c-7.61,9.35-8.34,17.89-9.17,29.53-.64,8.92-2.07,18.22-8.19,25.21-.36.41-.75.84-1.15,1.27a37.59,37.59,0,0,0,.51,9.94c.21,1-2.15,1.55-2.38.5a43,43,0,0,1-.9-7.71c-4.81,4.38-11.27,8.26-17.42,5.84-7.47-2.93-12.23-9.48-14.18-17.2-1.43-5.66-.54-11.08,1.37-16.4.07-4.21.39-8.38.78-12.53l.73-7,.39-3.51.18-3.38a229.23,229.23,0,0,1,2.95-28.28s0,0,0,0a30.94,30.94,0,0,0-6.05-3.69Q347.32,61,338,60a1.4,1.4,0,0,1,.84,1.3C338,69.47,335.53,77,333.7,84.61s-3.14,15.37-1.58,23c.12.58-1.69,1-1.82.38-1.77-7.89-1.71-16.12-1-24.11s2.07-15.85,3-23.42c.06-.45.45-.77,1-1-8-.7-16.07-1.08-24.2-1.08-3.52,0-7,.08-10.39.22-1.62.11-3.23.23-4.85.37-.2,2.55-.55,5-.88,7.41-.19,1.37-.35,2.7-.48,4a19.47,19.47,0,0,1-.34,2.38,18.83,18.83,0,0,1-.64,2.24c-.5,1.44-1.1,2.75-1.65,4A31,31,0,0,0,288.48,83a49.71,49.71,0,0,0-1.54,8.15c-.05.42-1.66.24-1.62-.17.26-2.8.42-5.63.8-8.49.19-1.41.46-2.91.79-4.31s.65-2.72.84-4a15.28,15.28,0,0,0,.17-1.87,12.65,12.65,0,0,0-.07-1.81c-.1-1.47-.15-2.93-.13-4.37,0-2.23.15-4.38.31-6.5-1.36.15-2.72.33-4.08.51a38.67,38.67,0,0,0-.24,6.29c0,1.39,0,2.84-.09,4.38l-.1,1.15c-.06.45-.12.85-.2,1.26a20.34,20.34,0,0,1-.58,2.33,73.49,73.49,0,0,1-3.27,8,58.62,58.62,0,0,0-2.86,7.23c-.48,6.9-1.14,14-3.15,20.87-.28,3.48-1.16,6.67-1.56,9.84s-.25,6.54,1.55,9c.56.74-.89,1.87-1.46,1.14-2.29-3.08-2.57-7-2.29-10.39s.94-6.8.9-10v-.1l.05-.21c1.42-6.76,1.33-13.68,1.15-20.74V90l.07-.38c1.13-5.74,3.72-11,4.94-15.79a16.42,16.42,0,0,0,.32-1.71c0-.27.07-.56.08-.79l0-.92c0-1.22,0-2.52-.07-3.89a51.92,51.92,0,0,1,0-5.46c-1.35.22-2.69.41-4,.66-1.5.28-3.55.77-5.89,1.3a2,2,0,0,1,.16.89c-.89,11-3.36,21.18-5.19,31.38s-3.14,20.67-1.57,31c.11.78-1.7,1.3-1.83.52-1.77-10.61-1.71-21.68-1-32.43.68-10.25,1.93-20.25,2.85-29.95-1.5.27-3,.5-4.56.68a52.56,52.56,0,0,0-2.24,8c-.77,3.67-1.33,7.51-1.81,11.4-.93,7.78-1.47,15.76-1.79,23.77s-.36,16.08-.12,24.14a191.14,191.14,0,0,0,1.47,19.34c2.65-.3,5.68-.56,9-.79-.1-.48-.21-1-.31-1.44-.38-1.88-.71-3.77-1-5.68a73.35,73.35,0,0,1-1-11.5c0-1.08,3.29-.91,3.28,0,0,3.72-.08,7.52-.1,11.29,0,1.89,0,3.78.16,5.66.05.51.1,1,.16,1.55,7.81-.48,17.23-.74,27.71-.74,31.95,0,89.51,2.86,115.39,13.22a456.49,456.49,0,0,1,27.78-72.89c-4-2.6-8.21-5-12.66-7.37m-90.75,43.65c-.39,1.85-.75,3.7-1,5.57a19.54,19.54,0,0,0-.12,5.55c.05.29-.85.46-.9.18a32.72,32.72,0,0,1-.35-5.82q0-2.88.18-5.76a74.26,74.26,0,0,1,1.4-11.46c.24-1.06,3.4-.22,3.2.72-.73,3.64-1.62,7.34-2.41,11"/><path class="cls-1" d="M361.1,112.44c4.67-9.31,10.39-18.58,10-28.62A23.37,23.37,0,0,0,368,72.64c-1.23,7.43-2.41,14.87-3.55,22.39l-.56,3.63-.74,3.44L361.76,109c-.23,1.15-.45,2.31-.66,3.46"/><path class="cls-1" d="M247.73,132.59c-.67-8.14-1.15-16.3-1.36-24.48s-.15-16.42.46-24.66a119,119,0,0,1,1.52-12.39c.26-1.34.54-2.68.86-4-1.48.52-2.92,1.07-4.31,1.64a2.28,2.28,0,0,1,.24,1.44c-1.51,12.47-2.24,25.32-2.78,38.08-.23,6.4-.36,12.81-.25,19.21a121.89,121.89,0,0,0,1.54,19.05c.19.94-1.39,1.3-1.59.36a189.07,189.07,0,0,1-2.37-19.27q-.8-9.64-1.23-19.31c-.28-6.45-.43-12.91-.35-19.39a169.94,169.94,0,0,1,1-17.54c-1.44.73-2.85,1.48-4.15,2.27-.38,7.6.31,40.05,2.83,81a65,65,0,0,1,6.37-1.66c1.59-.34,3.51-.66,5.7-.94-1-6.45-1.6-12.89-2.17-19.37"/><path class="cls-1" d="M644.82,582.09c-19.2-10.3-47.84-25.69-79.07-46.91l-1.28.83c-.64.55-1.26,1.14-1.88,1.73,25.14,17.89,51.91,33.89,79.7,46.47a48.05,48.05,0,0,1,5.44,2.78c3.35,1.58,9.36,4.62,8.94,6.12-.29,1-4.13,1.86-8.32,2a5.79,5.79,0,0,1-.86,0,23.5,23.5,0,0,1-7.25-.88c-5.22-1.09-9.69-2.2-13.59-3.33-26.83-5.9-57.41-13.82-84.39-22.66-.19.48-.36.94-.54,1.39,45.12,16.18,79.77,24,89.76,26.07l1.36.29c5.83,1.23,12.43,2.62,18.37,2.62,8.19,0,11.58-2.75,13.23-5.43-3-2.18-11.11-6.54-19.62-11.11"/><path class="cls-1" d="M406.22,176.39l1.66-.92a6.18,6.18,0,0,0,1.93-1.43,7.35,7.35,0,0,0-2.42-1.9l-.17-.1c-18.22-10.21-73.63-14.87-117.4-14.87-19.81,0-36.2,1-43.83,2.6-12.32,2.62-13.88,5.92-14.07,6.55-.34,1.16.94,2.48,1,2.49l1.09,1.08v1.58c-.45,14-.59,26.27-.53,36.95H241c.15-9,.51-19.36,1.17-31.15l.08-1.52-1.14-1s-.94-1-.73-1.76c.09-.35,1.23-3.47,13.2-6.12,8.86-2,29.82-3.22,53.4-3.22,35.38,0,78.66,2.83,94.07,10.78l.18.08a7.12,7.12,0,0,1,2,1.39,6.55,6.55,0,0,1-1.8,1.26l-1.46.79-3.27,30.48h7Z"/><path class="cls-1" d="M531.1,568.58a3.89,3.89,0,0,1-.51,0,4.08,4.08,0,0,1-1.38-.25l-.61-.21-.51,0c-.54,0-4.25-.58-15.41-5.56-1.62.84-3.17,1.64-4.68,2.4,15.86,7.37,20.81,8,21.44,8.1l.54,0,.64.22a5,5,0,0,0,2.45.23c2.17-8.77,10-25.95,22.49-38.79q-4.57,2.41-9.13,4.72c-8.36,10.43-13.63,22.43-15.33,29.12"/><path class="cls-1" d="M368.41,130.58h0l-.22,0,.23,0"/><path class="cls-1" d="M244,57.57l.17-.24c-.08.11-.13.2-.17.24"/><path class="cls-1" d="M247.67,52.3h0"/><path class="cls-1" d="M247.5,52.54a2.75,2.75,0,0,1,.17-.24l-.17.24"/><path class="cls-1" d="M247.46,52.6l-.87,1.25.87-1.25"/><path class="cls-1" d="M244,57.6l0,0s0,0,0,0"/><path class="cls-1" d="M247.46,52.6l0-.05,0,.05"/><path class="cls-1" d="M244.86,56.35l-.68,1,.68-1"/><path class="cls-1" d="M245.63,55.23c.33-.46.66-.94,1-1.38l-1,1.38"/><path class="cls-1" d="M244.86,56.35c.28-.41.54-.77.77-1.12l-.77,1.12"/><path class="cls-1" d="M244,57.61c1.43,5.18,35.39-3.57,43.09-4,5-.26,10.07-.52,15.13-.74a2.08,2.08,0,0,1,1.33-3.64,2.05,2.05,0,0,1,1.37,3.52c6.28-.27,12.58-.45,18.87-.49a2.07,2.07,0,0,1,1.12-3.79c2.24,0,2.52,2.87,1,3.79,3.32,0,6.63,0,9.93.14,31.47,1,49.81,18.79,36.83,50.81-4.37,10.76-15.64,25.23-9.77,36.82,6.15,12.15,14,11.75,22.74,2.73,10.61-11,7.3-24.77,9.58-38.82,1.45-9,12.9-25.29,22.28-27.07,11.62-2.2,18.72,9.57,23.85-4.53,4-11,2.73-33.35-.28-44.77-6.78-25.78-31.6-30.26-53.63-26.4-22.64,4-43.77,13.67-67,14.32-30.83.85-58.31,15.93-76.44,42.08m67.11-6.53c-2.67,0-2.6-4.1.07-4.1s2.6,4.1-.07,4.1m-39.66,2.29c-2.67,0-2.59-4.1.07-4.1s2.6,4.1-.07,4.1m-6-3.34c2.67,0,2.6,4.11-.07,4.11s-2.6-4.11.07-4.11m0-3,1.7.18c1.31.15,1.08,2.09-.13,2.22l-1.63.16c-1.62.15-1.63-2.72.06-2.56m5.34-6.87c2.67,0,2.6,4.1-.07,4.1s-2.6-4.1.07-4.1m9.91-3c2.68,0,2.6,4.1-.07,4.1s-2.59-4.1.07-4.1m-1.57,9.64a1.54,1.54,0,0,1,3.08.08c.12,1-.39,2.3-1.66,2.19s-1.51-1.28-1.42-2.27m13.52-.12a1.7,1.7,0,0,1-2.22.89,2.5,2.5,0,0,1-1.55-2c-.29-2.15,3-2.65,3.35-.73a1.62,1.62,0,0,1,.42,1.83m-26.31-7.1a1.62,1.62,0,0,1,1.5.84,1.53,1.53,0,0,1,.17.87,1.41,1.41,0,0,1-.12.48v0a1,1,0,0,1-1.77.1,1.15,1.15,0,1,1,.22-2.29M260,45.8l.52.34c1.91-.31,1.9,3.15-.16,2.71a3.21,3.21,0,0,1-2-1.39A1.18,1.18,0,0,1,260,45.8m-1.54,3.68a1.85,1.85,0,0,1,1.74,1.07,1.89,1.89,0,0,1,.81,2,1.86,1.86,0,0,1-2.24,1.31,2.59,2.59,0,0,1-2.09-2.46,1.84,1.84,0,0,1,1.78-1.9M251,56.54c-1.79,0-2.14-2.81-.31-2.81s2.14,2.81.31,2.81m34.89-3.17c-2.67,0-2.59-4.1.07-4.1s2.6,4.1-.07,4.1M410,69l.68-.49a1.65,1.65,0,0,1,2.17,2.44l-.26.38C411.06,73.42,408,70.44,410,69m16.27-13.3c-2.67,0-2.6-4.1.07-4.1s2.59,4.1-.07,4.1m-5,17.22-.42,0c-1.06.61-2.46-.63-1.65-1.71v0s0-.1,0-.16a1.76,1.76,0,0,1,3.08-1,1.74,1.74,0,0,1-1,2.82m.49-11.41c2.67,0,2.6,4.1-.07,4.1s-2.6-4.1.07-4.1m4.58,3c2.67,0,2.59,4.1-.07,4.1s-2.6-4.1.07-4.1M379,99.89c-2.67,0-2.6-4.1.07-4.1s2.6,4.1-.07,4.1m-4,32.83a2.4,2.4,0,0,1,.83-1.77,2.76,2.76,0,0,1,1-.52,1.81,1.81,0,0,1,1.37,3.33c-.79,1.56-3.32.74-3.17-1m-3.6,4.25c2.67,0,2.6,4.1-.07,4.1s-2.6-4.1.07-4.1m-.07-11.15c-2.67,0-2.6-4.1.07-4.1s2.6,4.1-.07,4.1m5.44-14.16a.67.67,0,0,1,.57.58c.11.81-.86.84-1.39.91-1,.13-1.06-1.76,0-1.63l.68.08c.62.07-.42,0,.16.06m-9.06,18.79h0a.86.86,0,0,1,.62.11c.33.05.52.1,0,0a2.73,2.73,0,0,1,.8.62c.88,1.22-.13,2.4-1.35,2.65-2.55.51-2.58-3.85-.13-3.4m35.81-50.29a2,2,0,0,1-2.35-1.91,1.49,1.49,0,0,1,2.85-.73,1.41,1.41,0,0,1-.5,2.64M426.13,74a1.47,1.47,0,0,1-1.18-2c.05-.18.09-.36.13-.54a1.27,1.27,0,0,1,2.44.13c.06.26.13.51.2.77.25.92-.75,1.72-1.59,1.61m5.46.69c-2.67,0-2.59-4.11.07-4.11s2.6,4.11-.07,4.11m1.92-40.88a1.65,1.65,0,0,1-.14.4l0,.06h0a1.18,1.18,0,0,1-2.07-.59c0-.16-.05-.33-.08-.49-.29-1.86,2.69-1.82,2.44-.11a3.51,3.51,0,0,1-.25,1.11.46.46,0,0,0,0,.08h0l0-.06a1.34,1.34,0,0,0,.14-.4m-.32,24.57c2.67,0,2.6,4.1-.07,4.1s-2.6-4.1.07-4.1m2.29-4.58c2.67,0,2.6,4.11-.07,4.11s-2.6-4.11.07-4.11m-2.13-13.18a2.24,2.24,0,0,1,.29-1.19s.48-.69.15-.18a1.15,1.15,0,0,1,1.82.08,2.35,2.35,0,0,1,.4,1.26c.07,1.73-2.72,1.73-2.66,0m1.29,31c-2.67,0-2.59-4.11.07-4.11s2.6,4.11-.07,4.11m3.82-4.58c-2.67,0-2.6-4.1.07-4.1s2.6,4.1-.07,4.1m0-25.17c-2.67,0-2.6-4.1.07-4.1s2.6,4.1-.07,4.1"/><path class="cls-2" d="M244,57.61c1.43,5.18,35.39-3.57,43.09-4,5-.26,10.07-.52,15.13-.74a2.08,2.08,0,0,1,1.33-3.64,2.05,2.05,0,0,1,1.37,3.52c6.28-.27,12.58-.45,18.87-.49a2.07,2.07,0,0,1,1.12-3.79c2.24,0,2.52,2.87,1,3.79,3.32,0,6.63,0,9.93.14,31.47,1,49.81,18.79,36.83,50.81-4.37,10.76-15.64,25.23-9.77,36.82,6.15,12.15,14,11.75,22.74,2.73,10.61-11,7.3-24.77,9.58-38.82,1.45-9,12.9-25.29,22.28-27.07,11.62-2.2,18.72,9.57,23.85-4.53,4-11,2.73-33.35-.28-44.77-6.78-25.78-31.6-30.26-53.63-26.4-22.64,4-43.77,13.67-67,14.32C289.6,16.38,262.12,31.46,244,57.61Zm67.11-6.53c-2.67,0-2.6-4.1.07-4.1S313.77,51.08,311.1,51.08Zm-39.66,2.29c-2.67,0-2.59-4.1.07-4.1S274.11,53.37,271.44,53.37Zm-6-3.34c2.67,0,2.6,4.11-.07,4.11S262.74,50,265.41,50Zm0-3,1.7.18c1.31.15,1.08,2.09-.13,2.22l-1.63.16C263.73,49.7,263.72,46.83,265.41,47Zm5.34-6.87c2.67,0,2.6,4.1-.07,4.1S268.08,40.12,270.75,40.12Zm9.91-3c2.68,0,2.6,4.1-.07,4.1S278,37.07,280.66,37.07Zm-1.57,9.64a1.54,1.54,0,0,1,3.08.08c.12,1-.39,2.3-1.66,2.19S279,47.7,279.09,46.71Zm13.52-.12a1.7,1.7,0,0,1-2.22.89,2.5,2.5,0,0,1-1.55-2c-.29-2.15,3-2.65,3.35-.73A1.62,1.62,0,0,1,292.61,46.59Zm-26.31-7.1a1.62,1.62,0,0,1,1.5.84,1.53,1.53,0,0,1,.17.87,1.41,1.41,0,0,1-.12.48v0a1,1,0,0,1-1.77.1A1.15,1.15,0,1,1,266.3,39.49ZM260,45.8l.52.34c1.91-.31,1.9,3.15-.16,2.71a3.21,3.21,0,0,1-2-1.39A1.18,1.18,0,0,1,260,45.8Zm-1.54,3.68a1.85,1.85,0,0,1,1.74,1.07,1.89,1.89,0,0,1,.81,2,1.86,1.86,0,0,1-2.24,1.31,2.59,2.59,0,0,1-2.09-2.46A1.84,1.84,0,0,1,258.44,49.48ZM251,56.54c-1.79,0-2.14-2.81-.31-2.81S252.87,56.54,251,56.54Zm34.89-3.17c-2.67,0-2.59-4.1.07-4.1S288.6,53.37,285.93,53.37ZM410,69l.68-.49a1.65,1.65,0,0,1,2.17,2.44l-.26.38C411.06,73.42,408,70.44,410,69Zm16.27-13.3c-2.67,0-2.6-4.1.07-4.1S428.92,55.66,426.26,55.66Zm-5,17.22-.42,0c-1.06.61-2.46-.63-1.65-1.71v0s0-.1,0-.16a1.76,1.76,0,0,1,3.08-1A1.74,1.74,0,0,1,421.26,72.88Zm.49-11.41c2.67,0,2.6,4.1-.07,4.1S419.08,61.47,421.75,61.47Zm4.58,3c2.67,0,2.59,4.1-.07,4.1S423.66,64.52,426.33,64.52ZM379,99.89c-2.67,0-2.6-4.1.07-4.1S381.64,99.89,379,99.89Zm-4,32.83a2.4,2.4,0,0,1,.83-1.77,2.76,2.76,0,0,1,1-.52,1.81,1.81,0,0,1,1.37,3.33C377.4,135.32,374.87,134.5,375,132.72Zm-3.6,4.25c2.67,0,2.6,4.1-.07,4.1S368.75,137,371.42,137Zm-.07-11.15c-2.67,0-2.6-4.1.07-4.1S374,125.82,371.35,125.82Zm5.44-14.16a.67.67,0,0,1,.57.58c.11.81-.86.84-1.39.91-1,.13-1.06-1.76,0-1.63l.68.08C377.25,111.67,376.21,111.58,376.79,111.66Zm-9.06,18.79h0a.86.86,0,0,1,.62.11c.33.05.52.1,0,0a2.73,2.73,0,0,1,.8.62c.88,1.22-.13,2.4-1.35,2.65C365.31,134.36,365.28,130,367.73,130.45Zm35.81-50.29a2,2,0,0,1-2.35-1.91,1.49,1.49,0,0,1,2.85-.73A1.41,1.41,0,0,1,403.54,80.16ZM426.13,74a1.47,1.47,0,0,1-1.18-2c.05-.18.09-.36.13-.54a1.27,1.27,0,0,1,2.44.13c.06.26.13.51.2.77C428,73.35,427,74.15,426.13,74Zm5.46.69c-2.67,0-2.59-4.11.07-4.11S434.26,74.73,431.59,74.73Zm1.92-40.88a1.65,1.65,0,0,1-.14.4l0,.06h0a1.18,1.18,0,0,1-2.07-.59c0-.16-.05-.33-.08-.49-.29-1.86,2.69-1.82,2.44-.11a3.51,3.51,0,0,1-.25,1.11.46.46,0,0,0,0,.08h0l0-.06A1.34,1.34,0,0,0,433.51,33.85Zm-.32,24.57c2.67,0,2.6,4.1-.07,4.1S430.52,58.42,433.19,58.42Zm2.29-4.58c2.67,0,2.6,4.11-.07,4.11S432.81,53.84,435.48,53.84Zm-2.13-13.18a2.24,2.24,0,0,1,.29-1.19s.48-.69.15-.18a1.15,1.15,0,0,1,1.82.08,2.35,2.35,0,0,1,.4,1.26C436.08,42.36,433.29,42.36,433.35,40.66Zm1.29,31c-2.67,0-2.59-4.11.07-4.11S437.31,71.68,434.64,71.68Zm3.82-4.58c-2.67,0-2.6-4.1.07-4.1S441.13,67.1,438.46,67.1Zm0-25.17c-2.67,0-2.6-4.1.07-4.1S441.13,41.93,438.46,41.93Z"/><path class="cls-3" d="M267.85,41.68v0"/><path class="cls-1" d="M764.91,73.58c-1.31-.79-2.71-1.54-4.16-2.27a167.21,167.21,0,0,1,1,17.54c.08,6.48-.07,12.94-.35,19.39s-.7,12.88-1.24,19.31a189,189,0,0,1-2.36,19.27c-.21.94-1.79.58-1.59-.36a120.68,120.68,0,0,0,1.53-19.05c.12-6.4,0-12.81-.25-19.21-.53-12.76-1.27-25.61-2.78-38.08a2.35,2.35,0,0,1,.25-1.44c-1.39-.57-2.83-1.12-4.31-1.64.32,1.34.6,2.68.85,4a116.41,116.41,0,0,1,1.53,12.39c.61,8.24.65,16.47.46,24.66s-.69,16.34-1.36,24.48c-.57,6.48-1.17,12.92-2.17,19.37,2.19.28,4.11.6,5.7.94a65,65,0,0,1,6.37,1.66c2.52-40.92,3.21-73.38,2.83-81"/><path class="cls-1" d="M355.09,581.82c-8.52,4.57-16.63,8.93-19.62,11.11,1.65,2.68,5,5.43,13.23,5.43h0a56.53,56.53,0,0,0,11.74-1.23l8-1.68c10-2.09,44.64-9.89,89.76-26.07l-.54-1.39c-27,8.84-57.57,16.76-84.4,22.65-3.89,1.13-8.36,2.25-13.58,3.34a23.84,23.84,0,0,1-7.26.88,7.46,7.46,0,0,1-.85,0c-4.19-.14-8-1-8.32-2-.42-1.5,5.59-4.54,8.93-6.12a49.83,49.83,0,0,1,5.44-2.78c27.8-12.58,54.57-28.58,79.71-46.47-.62-.59-1.24-1.18-1.89-1.73-.2-.14-.67-.45-1.27-.83-31.22,21.22-59.87,36.61-79.07,46.91"/><path class="cls-1" d="M451.67,556.19q-13,7.06-26.54,13.32,14.7-3.94,29.21-8.48c-.81-1.58-1.71-3.2-2.67-4.84"/><path class="cls-1" d="M446.2,547.86c-10.33,6.54-20.81,12.86-31.52,18.82,10.6-4.26,22-9.27,34.07-15.17-.81-1.23-1.66-2.44-2.55-3.65"/><path class="cls-1" d="M442.64,543.34c-.52-.6-1-1.2-1.58-1.79q-10.14,7.5-20.68,14.44,11.24-6.12,22.26-12.65"/><path class="cls-1" d="M495.68,486.72c.7.35,1.4.73,2.1,1.13,4.48-4.28,8.92-8.62,13.24-13.07,14.56-15.06,37.52-39.28,49.59-56.4,1.77-2.58,3.31-1.52,1.52,1.12C550,436.79,527.31,461.26,513,476.74q-6.07,6.56-12.38,12.88,1.33.88,2.67,1.86c2.17-2.68,4.27-5.48,6.7-8.25q.92-1.05,1.92-2.07c.64-.66,1.48-1.43,2.09-2l1.93-1.77,2.07-1.79c5.54-4.66,11.32-8.63,16.38-13.29,5.22-5.64,10.28-11.31,14.24-17.79l.12-.21.12-.1c3.56-2.93,4.77-8.28,8.58-12.2.78-.75,2,.67,1.3,1.33-3.26,3.3-4.21,8.54-8.07,12.47-3.68,6.93-8.41,13.28-13.14,19.39h0l-.13.14c-4.91,5.38-10.46,10-15.43,14.72l-1.84,1.81-1.89,1.91c-.69.67-1.13,1.12-1.7,1.75s-1.08,1.23-1.61,1.88c-2.12,2.59-4.21,5.44-6.5,8.22.43.37.86.76,1.29,1.15l2.7.12c8.34-6.27,16.54-12.74,24.42-19.57,3.81-3.3,7.53-6.69,11.11-10.21A99.33,99.33,0,0,0,558,456c1.68-2.39,3.43-1.31,1.63,1.27a106.59,106.59,0,0,1-10.13,11.48c-3.58,3.6-7.29,7.07-11.06,10.45-7.55,6.77-15.35,13.24-23.28,19.55-.61.49-1.25,1-1.87,1.45a123.12,123.12,0,0,1,8.43,9.43q9.16-5.87,18.33-11.78c2.11-1.35,3.26.5,1.15,1.87q-9,5.88-17.93,11.87c2.47,3.19,4.73,6.41,6.71,9.5a45.25,45.25,0,0,1,5.62-2.81c1.25-.55,2.45-1.08,3.53-1.65l.3-.16,1.26-.76a15.92,15.92,0,0,0,1.31-1c3.74-3.19,7.35-7.85,12-11.39l.3-.23.14-.06c6.4-3,12.66-5.91,18.11-10.16l.16-.14.1,0c2.87-1.36,5.57-3.43,8.56-5.19s6.57-3.23,10.33-2.53c.92.2.54,2-.38,1.82-3-.52-6.12.77-8.79,2.59s-5.15,3.95-8.15,5.73c-5.23,4.81-11.36,8.54-17.33,12a62,62,0,0,0-5.26,5.75,72.3,72.3,0,0,1-5.7,6.45,21.55,21.55,0,0,1-1.83,1.54c-.34.26-.67.49-1.06.74l-1,.6c-1.33.77-2.64,1.41-3.89,2a46.91,46.91,0,0,0-4.94,2.55c.5.91,1,1.8,1.41,2.66q7.23-3.51,14.36-7.27c9.27-4.89,18.38-10.11,27.24-15.72A267.2,267.2,0,0,0,602,488.29c2.37-2,4.63.6,2.15,2.7-8.22,6.77-16.84,12.92-25.63,18.84s-17.79,11.51-26.94,16.85c-4.79,2.79-9.62,5.41-14.48,7.9.16.44.32.87.46,1.27,9.78-4.85,19.66-10,29.55-15.6,57-32,100.65-68.24,130.74-108.3H683.94c-10.13,10.9-22.17,19.94-33.87,28.87-.44.34-1.6-1.24-1.17-1.6,9.78-7.8,17.33-17.88,25.6-27.27H560.05q-6.6,10.11-14.1,20a412.22,412.22,0,0,1-50.27,54.74M642.73,458.9c-2.32,2.38-4.82,4.39-7.27,6.53l-7.41,6.3c-5,4.17-10,8.28-15.2,12.12-1.41,1-3.19-1.39-1.8-2.42,5.18-3.88,10.5-7.58,15.77-11.31,2.64-1.87,5.28-3.74,7.86-5.68a70.19,70.19,0,0,0,7.43-6.11c.28-.32,1,.16.62.57m-8.81-19c9.81-7.52,17.36-17.33,26-26.09,1.16-1.17,4.29,1.82,3.14,3-8.59,9-18.46,16.69-28.41,24-.36.28-1.09-.69-.72-1m-30.1,6.85c9.84-7.48,17.77-16.95,26.37-25.77,1.16-1.18,3.32.9,2.17,2.1a222.32,222.32,0,0,1-28,24.35c-.37.28-.87-.39-.51-.68m-23,23.87a212.2,212.2,0,0,1-28.48,23.83c-1.36.93-3.06-1.54-1.71-2.48,10.13-7,20.67-13.44,29.62-22,.33-.31.91.3.57.62"/><path class="cls-1" d="M738.27,149.34c.14-1.88.17-3.77.17-5.66,0-3.77-.14-7.57-.1-11.28,0-1,3.25-1.13,3.28-.05a73.58,73.58,0,0,1-1,11.51c-.29,1.89-.62,3.79-1,5.67-.09.48-.2,1-.3,1.44,3.32.22,6.35.49,9,.79a193.86,193.86,0,0,0,1.47-19.34c.24-8.06.18-16.13-.12-24.14s-.86-16-1.8-23.77c-.47-3.89-1-7.73-1.8-11.4a53.26,53.26,0,0,0-2.24-8c-1.53-.18-3.06-.41-4.56-.69.92,9.7,2.17,19.71,2.84,30,.72,10.75.78,21.82-1,32.43-.12.78-1.93.26-1.82-.52,1.56-10.3.27-20.84-1.57-31s-4.3-20.37-5.19-31.38a1.84,1.84,0,0,1,.16-.88c-2.34-.54-4.4-1-5.9-1.31-1.33-.25-2.68-.45-4-.67.14,2,0,3.76,0,5.47,0,1.36-.1,2.67-.08,3.89l.05.92c0,.23,0,.52.07.79.08.54.19,1.12.33,1.71,1.22,4.76,3.81,10.05,4.94,15.79l.47.37v.15c-.58,7-.67,14,.75,20.74l1.15.21v.1c-1.16,3.18-.48,6.51-.22,10s0,7.31-2.28,10.39c-.57.73-2-.4-1.47-1.14,1.81-2.5,2-5.84,1.56-9s-1.28-6.35-1.56-9.82c-2-6.83-2.67-14-3.15-20.88a58.62,58.62,0,0,0-2.86-7.23,71.52,71.52,0,0,1-3.27-8,22.65,22.65,0,0,1-.59-2.33c-.07-.41-.14-.81-.19-1.26l-.1-1.15c-.12-1.54-.11-3-.09-4.38a39,39,0,0,0-.25-6.32c-1.36-.17-2.72-.37-4.08-.52.13,2.13.25,4.31.25,6.55,0,1.44,0,2.9-.14,4.37a16.34,16.34,0,0,0-.06,1.82,15.6,15.6,0,0,0,.19,1.87c.2,1.28.52,2.62.86,4a42.07,42.07,0,0,1,.81,4.29c.4,2.87.57,5.7.83,8.49,0,.42-1.57.58-1.62.16a47.73,47.73,0,0,0-1.57-8.15A31.59,31.59,0,0,0,710,79.13c-.56-1.28-1.17-2.58-1.67-4a16.54,16.54,0,0,1-1-4.64c-.13-1.33-.29-2.67-.48-4-.32-2.41-.66-4.89-.83-7.46l-3.3-.26q-5.84-.27-11.93-.28c-8.12,0-16.2.38-24.19,1.08.56.2.95.51,1,1,.93,7.57,2.29,15.4,3,23.42s.77,16.22-1,24.11c-.13.58-1.94.2-1.82-.38,1.56-7.66.27-15.49-1.58-23s-4.3-15.14-5.18-23.33a1.4,1.4,0,0,1,.85-1.3q-9.33,1-18.37,2.55a31.84,31.84,0,0,0-6.07,3.37,1.91,1.91,0,0,1,.1.34,229.25,229.25,0,0,1,3,28.28l.18,3.38.39,3.51.73,7c.41,4.51.78,9,.79,13.63a26.12,26.12,0,0,1,1.8,11.61c-1.88,17-18.1,28.39-32,15.15a41.81,41.81,0,0,1-.9,7.61c-.22,1.06-2.58.55-2.38-.5a37.35,37.35,0,0,0,.51-10c-5.78-6.78-8.49-14.72-9.15-23.88-.71-10-.32-19.16-6.16-27.72a54,54,0,0,0-6-7.68c.38,1.37.75,2.75,1.09,4.2.2.9.39,1.82.55,2.77s.29,2,.36,2.84l.3,2.6.23,2.72c.52,7.23.35,14.23,1.15,21.07l0-.17c1.51,7.59,3.14,15.07,6.1,22.13l.09.22v.16c.28,4.6,3.91,8.72,4.86,14.11.13,1.07-1.71,1.19-1.85.27-.75-4.57-4.45-8.42-5.36-13.84-3.46-7.06-5.82-14.61-8-22h0l0-.18c-1.48-7.13-1.93-14.31-2.87-21.14l-.38-2.55-.45-2.65c-.13-1-.24-1.57-.42-2.4s-.36-1.6-.57-2.41c-.81-3-1.81-6.24-2.69-9.52a150.71,150.71,0,0,0-13.14,7.61A455.61,455.61,0,0,1,595,163.37c25.88-10.36,83.44-13.22,115.39-13.22,10.48,0,19.9.26,27.71.74.06-.52.11-1,.15-1.55m-65.6-11.28c0,.28-.95.1-.9-.18a19.9,19.9,0,0,0-.12-5.55c-.25-1.87-.61-3.72-1-5.57-.79-3.68-1.68-7.38-2.41-11-.21-.93,3-1.77,3.2-.71a73,73,0,0,1,1.39,11.46q.17,2.88.18,5.76a32.71,32.71,0,0,1-.34,5.82"/><path class="cls-1" d="M636.12,108.49c.93,1.81,2,3.75,3,5.75q-.45-2.62-1-5.27l-1.43-6.87L636,98.66,635.42,95c-1.18-7.76-2.4-15.45-3.67-23.12a20,20,0,0,0-2.92,10c-.33,9.58,3,18.16,7.29,26.55"/><path class="cls-1" d="M766.56,172.27v-2.38l1.09-1.08s1.29-1.33,1-2.49c-.18-.63-1.74-3.93-14.07-6.55-7.63-1.62-24-2.6-43.83-2.6-43.77,0-99.18,4.66-117.39,14.87l-.18.09A7.61,7.61,0,0,0,590.7,174a6.36,6.36,0,0,0,1.93,1.43l1.66.91,2.58,32h7l-3.27-30.48-1.46-.79a6.78,6.78,0,0,1-1.8-1.26,7,7,0,0,1,2-1.39l.17-.08c15.41-7.95,58.7-10.78,94.07-10.78,23.59,0,44.54,1.26,53.4,3.22,12,2.65,13.11,5.77,13.2,6.12.21.81-.72,1.75-.73,1.76l-1.14,1,.08,1.52c.66,11.79,1,22.1,1.17,31.15h7.56c.07-10.68-.08-22.92-.53-36.95"/><path class="cls-1" d="M488.4,491.44c-7,5.39-38.5,29.55-49.76,38.22a11.5,11.5,0,0,1,1.31.91c15.11,13,24.47,33.21,26.89,42.95a4.93,4.93,0,0,0,2.44-.21l.65-.23.53,0c1-.08,12.18-1.61,57.77-26.87l.17-.09a5.89,5.89,0,0,0,3-5.7c-.63-7.91-23.48-42.77-43-49m37.26,48a5,5,0,0,1-2.54,4.81l-.08,0-.08,0c-40.21,22.28-50.22,23.73-51.14,23.82l-.51,0-.61.21a4.13,4.13,0,0,1-1.39.25,3.84,3.84,0,0,1-.5,0c-2.22-8.75-10.53-26.57-23.9-38.09a7.9,7.9,0,0,0-.9-.64c10.17-7.82,37.4-28.72,43.77-33.61,17.23,5.59,37.32,36.25,37.88,43.21"/><path class="cls-1" d="M631.49,133.74h0l.21,0-.24,0"/><path class="cls-1" d="M596.58,77.36c.09,0,.08,0,0,0"/><path class="cls-1" d="M734.23,41h-.16c0-.12,0-.1,0,0"/><path class="cls-1" d="M755.51,57c-.24-.33-.45-.65-.65-.94.24.36.46.68.65.94"/><path class="cls-1" d="M755.62,57.18a.88.88,0,0,0-.12-.17l.12.17"/><path class="cls-1" d="M754.86,56.07c-.1-.13-.19-.26-.28-.4.08.12.18.27.28.4"/><path class="cls-1" d="M755.77,57.4l-.15-.22.15.22"/><path class="cls-1" d="M755.92,57.6l-.15-.2.15.2"/><path class="cls-1" d="M752.34,52.45h0"/><path class="cls-1" d="M752.67,52.92l-.33-.47.33.47"/><path class="cls-1" d="M753.41,54l-.74-1.07.74,1.07"/><path class="cls-1" d="M754.58,55.67,753.41,54l1.17,1.68"/><path class="cls-1" d="M582.44,76.91C591.82,78.68,603.27,95,604.72,104c2.28,14-1,27.84,9.58,38.82,8.71,9,16.58,9.42,22.73-2.73,5.88-11.59-5.4-26.06-9.76-36.82-13-32,5.36-49.85,36.83-50.81,3.28-.1,6.57-.14,9.87-.14a2.07,2.07,0,0,1,1.11-3.79c2.24,0,2.53,2.86,1,3.79,6.29,0,12.59.22,18.87.48a2.09,2.09,0,0,1,1.5-3.51c2.12,0,2.48,2.57,1.21,3.63,5.07.23,10.14.49,15.18.75,7.7.39,41.66,9.14,43.09,4-18.13-26.15-45.61-41.23-76.44-42.08-23.21-.65-44.34-10.35-67-14.32-22-3.86-46.86.62-53.64,26.4-3,11.42-4.26,33.81-.27,44.77,5.13,14.1,12.23,2.33,23.85,4.53m5-5.5c-.16-.22-.32-.45-.49-.67a1.64,1.64,0,0,1,.44-2.27,1.7,1.7,0,0,1,2,.14l.38.25c2.17,1.54-.86,4.55-2.33,2.55M579,72.9h-.18a1.75,1.75,0,0,1-1-3.06c.92-.77,2.74-.33,2.85,1l0,.45c.58,1-.62,2.41-1.7,1.59m-5.38-8.38c2.67,0,2.6,4.1-.07,4.1s-2.6-4.1.07-4.1m-7.49-25.15a2.44,2.44,0,0,1,.4,1.26c.08,1.73-2.73,1.73-2.66,0a2.24,2.24,0,0,1,.29-1.19s.48-.69.16-.18a1.14,1.14,0,0,1,1.81.08m2.47-5.52a1,1,0,0,1-.14.4l0,.06h0a1.18,1.18,0,0,1-2.07-.59c0-.16-.06-.33-.08-.49-.3-1.86,2.69-1.82,2.43-.11a3.44,3.44,0,0,1-.24,1.11.15.15,0,0,0,0,.08h0s0,0,0-.06a1,1,0,0,0,.14-.4m-4.13,20c2.67,0,2.6,4.11-.07,4.11s-2.6-4.11.07-4.11m2.29,4.58c2.67,0,2.6,4.1-.07,4.1s-2.6-4.1.07-4.1m6.86-6.86c2.67,0,2.6,4.1-.07,4.1s-2.6-4.1.07-4.1m4.58,9.91c2.67,0,2.6,4.1-.07,4.1s-2.6-4.1.07-4.1m50.26,79.6c-2.67,0-2.6-4.1.07-4.1s2.6,4.1-.07,4.1m0-15.25c-2.67,0-2.6-4.1.07-4.1s2.6,4.1-.07,4.1M623,134.61a1.67,1.67,0,0,1-1.19-.76,1.91,1.91,0,0,1-1-2.13,1.84,1.84,0,0,1,2.24-1.3,2.6,2.6,0,0,1,1.84,2.7,1.71,1.71,0,0,1-1.89,1.49m.11-21.61a.7.7,0,0,1-.57-.58c-.1-.81.87-.84,1.4-.9,1-.13,1.06,1.75,0,1.63l-.68-.09c-.62-.07.42,0-.17-.06m-2.24-13.11c-2.68,0-2.6-4.1.06-4.1s2.6,4.1-.06,4.1m-24.6-19.74a1.38,1.38,0,0,1-.43-2.6c.31-1.47,3-1.2,2.89.6a2,2,0,0,1-2.46,2m35.91,53.71h0a.89.89,0,0,1-.63-.11c-.32-.06-.51-.1,0,0a2.73,2.73,0,0,1-.8-.62c-.88-1.23.12-2.41,1.35-2.65,2.55-.52,2.57,3.85.13,3.39m75.56-89.14c.49-1.81,3.62-1.38,3.34.67a2.47,2.47,0,0,1-1.56,2.11,1.69,1.69,0,0,1-1.78-2.78m11.57-7.65c2.67,0,2.6,4.1-.07,4.1s-2.6-4.1.07-4.1m9.85,7.15c-2.67,0-2.6-4.1.07-4.1s2.6,4.1-.07,4.1m20,12.32c-1.79,0-2.14-2.81-.31-2.81s2.14,2.81.31,2.81m-20.71-7.27c2.68,0,2.6,4.1-.06,4.1s-2.6-4.1.06-4.1m4.47-2.12,1.63-.16c1.62-.14,1.63,2.73-.06,2.56l-1.7-.18c-1.31-.15-1.08-2.08.13-2.22m1.57,7c-2.67,0-2.6-4.11.06-4.11s2.6,4.11-.06,4.11m7.08-6.67a3.29,3.29,0,0,1-2.17,1.41c-1.83.34-2-3.06.15-2.72-.29,0,.21-.25.34-.36,1-.82,2.52.63,1.68,1.67m-1.8,3.05a1.75,1.75,0,0,1,2-1,1.88,1.88,0,0,1,1.38,2.22,2.45,2.45,0,0,1-2,2.08,1.9,1.9,0,0,1-2.28-1.25,1.87,1.87,0,0,1,.84-2.06m-19-3.73c.12,1-.39,2.3-1.66,2.19s-1.51-1.28-1.43-2.27a1.55,1.55,0,0,1,3.09.08m-32.08,4.29c-2.68,0-2.6-4.1.07-4.1s2.59,4.1-.07,4.1m25.16,2.29c-2.67,0-2.59-4.1.07-4.1s2.6,4.1-.07,4.1m20-11.6a1,1,0,0,1-.58.47,1.1,1.1,0,0,1-1.36-1c-.06-1.12.64-1.63,1.69-1.72a1.15,1.15,0,0,1,.25,2.29M561.45,37.83c2.67,0,2.6,4.1-.07,4.1s-2.6-4.1.07-4.1m-.07,29.27c-2.67,0-2.6-4.1.07-4.1s2.6,4.1-.07,4.1m3.88.47c2.68,0,2.6,4.11-.07,4.11s-2.59-4.11.07-4.11m3,7.16c-2.68,0-2.6-4.11.06-4.11s2.6,4.11-.06,4.11m5.2-.69a1.48,1.48,0,0,1-1.18-2c.05-.18.1-.36.14-.54a1.27,1.27,0,0,1,2.44.13c.06.26.13.51.2.77.24.92-.76,1.72-1.6,1.61"/><path class="cls-2" d="M582.44,76.91C591.82,78.68,603.27,95,604.72,104c2.28,14-1,27.84,9.58,38.82,8.71,9,16.58,9.42,22.73-2.73,5.88-11.59-5.4-26.06-9.76-36.82-13-32,5.36-49.85,36.83-50.81,3.28-.1,6.57-.14,9.87-.14a2.07,2.07,0,0,1,1.11-3.79c2.24,0,2.53,2.86,1,3.79,6.29,0,12.59.22,18.87.48a2.09,2.09,0,0,1,1.5-3.51c2.12,0,2.48,2.57,1.21,3.63,5.07.23,10.14.49,15.18.75,7.7.39,41.66,9.14,43.09,4-18.13-26.15-45.61-41.23-76.44-42.08-23.21-.65-44.34-10.35-67-14.32-22-3.86-46.86.62-53.64,26.4-3,11.42-4.26,33.81-.27,44.77C563.72,86.48,570.82,74.71,582.44,76.91Zm5-5.5c-.16-.22-.32-.45-.49-.67a1.64,1.64,0,0,1,.44-2.27,1.7,1.7,0,0,1,2,.14l.38.25C591.94,70.4,588.91,73.41,587.44,71.41ZM579,72.9h-.18a1.75,1.75,0,0,1-1-3.06c.92-.77,2.74-.33,2.85,1l0,.45C581.31,72.36,580.11,73.72,579,72.9Zm-5.38-8.38c2.67,0,2.6,4.1-.07,4.1S571,64.52,573.65,64.52Zm-7.49-25.15a2.44,2.44,0,0,1,.4,1.26c.08,1.73-2.73,1.73-2.66,0a2.24,2.24,0,0,1,.29-1.19s.48-.69.16-.18A1.14,1.14,0,0,1,566.16,39.37Zm2.47-5.52a1,1,0,0,1-.14.4l0,.06h0a1.18,1.18,0,0,1-2.07-.59c0-.16-.06-.33-.08-.49-.3-1.86,2.69-1.82,2.43-.11a3.44,3.44,0,0,1-.24,1.11.15.15,0,0,0,0,.08h0s0,0,0-.06A1,1,0,0,0,568.63,33.85Zm-4.13,20c2.67,0,2.6,4.11-.07,4.11S561.83,53.84,564.5,53.84Zm2.29,4.58c2.67,0,2.6,4.1-.07,4.1S564.12,58.42,566.79,58.42Zm6.86-6.86c2.67,0,2.6,4.1-.07,4.1S571,51.56,573.65,51.56Zm4.58,9.91c2.67,0,2.6,4.1-.07,4.1S575.56,61.47,578.23,61.47Zm50.26,79.6c-2.67,0-2.6-4.1.07-4.1S631.16,141.07,628.49,141.07Zm0-15.25c-2.67,0-2.6-4.1.07-4.1S631.16,125.82,628.49,125.82ZM623,134.61a1.67,1.67,0,0,1-1.19-.76,1.91,1.91,0,0,1-1-2.13,1.84,1.84,0,0,1,2.24-1.3,2.6,2.6,0,0,1,1.84,2.7A1.71,1.71,0,0,1,623,134.61Zm.11-21.61a.7.7,0,0,1-.57-.58c-.1-.81.87-.84,1.4-.9,1-.13,1.06,1.75,0,1.63l-.68-.09C622.66,113,623.7,113.09,623.11,113Zm-2.24-13.11c-2.68,0-2.6-4.1.06-4.1S623.53,99.89,620.87,99.89Zm-24.6-19.74a1.38,1.38,0,0,1-.43-2.6c.31-1.47,3-1.2,2.89.6A2,2,0,0,1,596.27,80.15Zm35.91,53.71h0a.89.89,0,0,1-.63-.11c-.32-.06-.51-.1,0,0a2.73,2.73,0,0,1-.8-.62c-.88-1.23.12-2.41,1.35-2.65C634.6,130,634.62,134.32,632.18,133.86Zm75.56-89.14c.49-1.81,3.62-1.38,3.34.67a2.47,2.47,0,0,1-1.56,2.11A1.69,1.69,0,0,1,707.74,44.72Zm11.57-7.65c2.67,0,2.6,4.1-.07,4.1S716.64,37.07,719.31,37.07Zm9.85,7.15c-2.67,0-2.6-4.1.07-4.1S731.83,44.22,729.16,44.22Zm20,12.32c-1.79,0-2.14-2.81-.31-2.81S751,56.54,749.17,56.54Zm-20.71-7.27c2.68,0,2.6,4.1-.06,4.1S725.8,49.27,728.46,49.27Zm4.47-2.12,1.63-.16c1.62-.14,1.63,2.73-.06,2.56l-1.7-.18C731.49,49.22,731.72,47.29,732.93,47.15Zm1.57,7c-2.67,0-2.6-4.11.06-4.11S737.16,54.14,734.5,54.14Zm7.08-6.67a3.29,3.29,0,0,1-2.17,1.41c-1.83.34-2-3.06.15-2.72-.29,0,.21-.25.34-.36C740.94,45,742.42,46.43,741.58,47.47Zm-1.8,3.05a1.75,1.75,0,0,1,2-1,1.88,1.88,0,0,1,1.38,2.22,2.45,2.45,0,0,1-2,2.08,1.9,1.9,0,0,1-2.28-1.25A1.87,1.87,0,0,1,739.78,50.52Zm-19-3.73c.12,1-.39,2.3-1.66,2.19s-1.51-1.28-1.43-2.27A1.55,1.55,0,0,1,720.82,46.79Zm-32.08,4.29c-2.68,0-2.6-4.1.07-4.1S691.4,51.08,688.74,51.08Zm25.16,2.29c-2.67,0-2.59-4.1.07-4.1S716.57,53.37,713.9,53.37Zm20-11.6a1,1,0,0,1-.58.47,1.1,1.1,0,0,1-1.36-1c-.06-1.12.64-1.63,1.69-1.72A1.15,1.15,0,0,1,733.88,41.77ZM561.45,37.83c2.67,0,2.6,4.1-.07,4.1S558.78,37.83,561.45,37.83Zm-.07,29.27c-2.67,0-2.6-4.1.07-4.1S564.05,67.1,561.38,67.1Zm3.88.47c2.68,0,2.6,4.11-.07,4.11S562.6,67.57,565.26,67.57Zm3,7.16c-2.68,0-2.6-4.11.06-4.11S570.91,74.73,568.25,74.73Zm5.2-.69a1.48,1.48,0,0,1-1.18-2c.05-.18.1-.36.14-.54a1.27,1.27,0,0,1,2.44.13c.06.26.13.51.2.77C575.29,73.35,574.29,74.15,573.45,74Z"/><line class="cls-4" x1="136" y1="400.53" x2="136" y2="436.68"/><line class="cls-4" x1="862.62" y1="400.53" x2="862.62" y2="436.68"/><path class="cls-1" d="M135.05,353H86.8l-.91-1.53a15.65,15.65,0,0,0,5.45-2.15A17.71,17.71,0,0,0,95.1,345V266a12.44,12.44,0,0,0-3.76-4.45,15.55,15.55,0,0,0-5.57-2l.89-1.64h45c8.1,0,14.76,7.08,14.76,15.68v11c0,3.66-2.27,7.06-5.36,9.86,5.82,2.41,11.06,7.09,11.06,14.68v25.67c0,8.61-5.31,17.34-16.06,17.34m-1-77.83c0-4.85-4.33-8.8-9.71-8.8H108.42v24.73h16.92c5.38,0,9.71-3.95,9.71-8.8Zm5.7,35.57c0-4.88-4.24-10.13-9.53-10.13h-22.8v41.85h22.8c7.22,0,9.53-5.63,9.53-10.49Z"/><path class="cls-1" d="M239.06,351.08H211.45l-1.29-1.51a12.15,12.15,0,0,0,5-2,12.67,12.67,0,0,0,2.7-4.65l-4.5-16.56H186l-4.49,16.56a11.06,11.06,0,0,0,2.56,4.53,12.32,12.32,0,0,0,5,2l-1.3,1.64H158.61l-.51-1.49a17.59,17.59,0,0,0,6-2.11,18.47,18.47,0,0,0,4.56-4.22l22.09-78.19a12.53,12.53,0,0,0-3.3-3.61,15.64,15.64,0,0,0-5.46-2l.9-1.61h32.49l.88,1.49a14.12,14.12,0,0,0-5.46,2.1,9.77,9.77,0,0,0-2.79,3.12l22.59,78.68c.9,1,1.11,3.1,3,4.22a19.17,19.17,0,0,0,6,2ZM200.4,278.8h-1.17l-10.47,38h21.85Z"/><path class="cls-1" d="M330.32,353H300.17l-.89-1.52a14,14,0,0,0,5.51-2.15c1.68-1.14,2.71-3.28,3.35-4.3v-7.73l-37.53-56.66-.51,1.64v62.48a15.19,15.19,0,0,0,3.8,4.56,15.59,15.59,0,0,0,5.61,2l-.92,1.65H248.42l-.93-1.53A15.87,15.87,0,0,0,253,349.3a17.57,17.57,0,0,0,3.8-4.31l-.15-79.14a15.39,15.39,0,0,0-3.78-4.32,15.63,15.63,0,0,0-5.63-2l.92-1.65h22v1.38l37.53,56.81.51-.26V266.1a15.56,15.56,0,0,0-3.78-4.57,15.73,15.73,0,0,0-5.62-2l.77-1.65H329.8l.93,1.65a14.6,14.6,0,0,0-5.49,2,15.39,15.39,0,0,0-3.78,4.32l.38,78.89a15.44,15.44,0,0,0,3.79,4.56,15.65,15.65,0,0,0,5.61,2Z"/><path class="cls-1" d="M384.23,353H341.8l-.89-1.53a15.37,15.37,0,0,0,5.38-2.15A17.28,17.28,0,0,0,350,345V266a12.49,12.49,0,0,0-3.7-4.45,15.18,15.18,0,0,0-5.51-2l.9-1.65h43.11c12.55,0,22.27,9.5,22.27,21.18V329.9c0,13.45-12,23.08-22.27,23.08m12.75-73.23c0-8.79-7.37-14.27-16.33-14.27h-17.9v76.09h17.9c7.78,0,16.33-6.35,16.33-16.16Z"/><path class="cls-1" d="M474.51,359a8.82,8.82,0,0,0-1.26-3.59A7.92,7.92,0,0,0,470.6,353H416.54l-.91-2.26a12.35,12.35,0,0,0,5.31-2.16,12,12,0,0,0,3.23-3.8v-1.29h0V263.89a13,13,0,0,0-3.62-4.42,14.34,14.34,0,0,0-5.57-2l.92-1.53c-.92,1.65,54.45.13,54.45.13a12.1,12.1,0,0,0,3-2.39,8.68,8.68,0,0,0,1.15-3.43l1,.64v21.59l-1,.5a7.93,7.93,0,0,0-1.26-3.42,5.91,5.91,0,0,0-2.68-2.15H437.49v20.93l25.06.1a15.22,15.22,0,0,0,3.14-2.23,7.8,7.8,0,0,0,1.18-3.17l1.05.47v19l-1.19.57a10.4,10.4,0,0,0-1.17-3.16,7.19,7.19,0,0,0-2.75-2.1H437.49l.13,43.75,32.72.13a16.56,16.56,0,0,0,3-2.51,10,10,0,0,0,1.13-3.59l1,.53v22.3Z"/><path class="cls-1" d="M532.6,353H490.17l-.9-1.53a15.37,15.37,0,0,0,5.38-2.15,17.35,17.35,0,0,0,3.71-4.31V266a12.65,12.65,0,0,0-3.71-4.45,15.18,15.18,0,0,0-5.51-2l.89-1.65h43.13c12.54,0,22.26,9.5,22.26,21.18V329.9c0,13.45-12,23.08-22.26,23.08M544,279.75c0-8.79-7.37-14.27-16.33-14.27H509.77v76.09h17.91c7.76,0,16.33-6.35,16.33-16.16Z"/><path class="cls-1" d="M668.47,353H638.53l-.9-1.53a15.59,15.59,0,0,0,5.38-2.17,17.64,17.64,0,0,0,3.72-4.33V307.33H608.68v37.41a11.26,11.26,0,0,0,9.34,6.59l-.9,1.65h-30l-.92-1.53a15.65,15.65,0,0,0,5.45-2.15,17.21,17.21,0,0,0,3.75-4.31c0-65.83-.11-39.95.14-79.14a15.83,15.83,0,0,0-3.74-4.32,15.63,15.63,0,0,0-5.6-2l.92-1.65h30l.91,1.51a16,16,0,0,0-5.58,2,14.23,14.23,0,0,0-3.77,4.69v29.82h38.55c0-7,0-10,.13-30.06a15.69,15.69,0,0,0-3.77-4.32,15.36,15.36,0,0,0-5.58-2l.91-1.65h29.55l.91,1.51a15.88,15.88,0,0,0-5.57,2A14,14,0,0,0,660,266.1v78.64a11.3,11.3,0,0,0,9.34,6.59Z"/><path class="cls-1" d="M709.5,351.08h-2.3a31.58,31.58,0,0,1-31.94-31.36V287.34A31.58,31.58,0,0,1,707.2,256h2.69c17.7,0,32,14,32,31.37v32.38c0,17.37-14.25,31.36-32,31.36m20.53-59c0-12.89-8.62-22.65-19.19-23.4l-1.68-.13c-10.57-.77-19.2,10.5-19.07,23.53l.12,24.16c.13,12.93,8.52,23.39,19.08,23.39h1.68c10.56,0,19.06-10.46,19.06-23.39Z"/><path class="cls-1" d="M820.72,353H794.63l-1.44-1.55s3.29-.51,5-2.18a9.35,9.35,0,0,0,2.24-4.38l-9.87-45.15H772.27v44.9a11.41,11.41,0,0,0,9.47,6.68l-.92,1.68H750.7l-.88-1.53a15.55,15.55,0,0,0,5.4-2.15A17.79,17.79,0,0,0,759,345V266a12.78,12.78,0,0,0-3.74-4.45,15.31,15.31,0,0,0-5.54-2l.9-1.65H802a15.93,15.93,0,0,1,16,15.72v11.16a15.84,15.84,0,0,1-16,15.72l9.53,44.27a7.27,7.27,0,0,0,3.32,4.56,20.37,20.37,0,0,0,6.17,2Zm-14.21-77c0-4.72-4.39-8.57-9.83-8.57H770.37v22.83h26.31c5.44,0,9.83-3.84,9.83-8.55Z"/><path class="cls-1" d="M912.42,353H882.23l-.9-1.52a14.21,14.21,0,0,0,5.54-2.15c1.66-1.14,2.69-3.28,3.34-4.3v-7.73l-37.53-56.66-.52,1.64v62.48a11.35,11.35,0,0,0,9.4,6.59l-.91,1.65H830.5l-.92-1.53a15.78,15.78,0,0,0,5.48-2.15,17.5,17.5,0,0,0,3.79-4.31l-.13-79.14a11.6,11.6,0,0,0-9.4-6.33l.91-1.65h21.93v1.38l37.53,56.81.52-.26V266.1a11.29,11.29,0,0,0-9.42-6.58l.77-1.65h30.33l.93,1.65a14.76,14.76,0,0,0-5.51,2,16.31,16.31,0,0,0-3.79,4.32l.42,78.89a15.16,15.16,0,0,0,3.77,4.56,15.83,15.83,0,0,0,5.63,2Z"/></g></svg>