<svg id="Layer_1" data-name="Layer 1" xmlns="http://www.w3.org/2000/svg" viewBox="0 0 1000 209.18"><defs><style>.cls-1{fill:#fff;}</style></defs><title>Client-Logos-Master</title><g id="Bloom"><polygon class="cls-1" points="538.26 99.49 459.33 99.49 535.9 68.98 532 59.91 455.42 90.42 514.03 34.05 506.81 27.11 448.2 83.48 479.92 9.82 470.49 6.07 438.78 79.72 438.78 0 428.57 0 428.57 78.94 398.06 2.36 388.99 6.27 419.5 82.85 363.13 24.24 356.19 31.45 412.56 90.06 338.91 58.34 335.15 67.77 408.8 99.49 329.08 99.49 329.08 109.69 408.02 109.69 331.45 140.2 335.35 149.27 411.93 118.76 353.32 175.14 360.53 182.07 419.14 125.71 387.42 199.36 396.85 203.12 428.57 129.46 428.57 209.18 438.78 209.18 438.78 130.25 469.28 206.82 478.35 202.92 447.85 126.34 504.22 184.95 511.16 177.73 454.79 119.12 528.44 150.84 532.2 141.41 458.54 109.69 538.26 109.69 538.26 99.49"/><path class="cls-1" d="M0,5.1H86.74c21.48,0,38.66,6.29,49.14,17.43C143.66,30.82,148,41.67,148,54.81v.58c0,25.71-15.58,41.71-34.64,47.42,24.7,4.86,44.84,21.72,44.84,48.86v-.18c0,33-27.12,52.59-71.66,52.59H0ZM84.51,99.49c29.61,0,53.25-14.75,53.25-43.94V55c0-25.44-20.5-42.21-55.52-42.21h-72V99.49Zm2.38,96.94C125.24,196.43,148,180,148,153.2v-.56C148,125,123.25,109.69,88,109.69H10.2v86.74Z"/><polygon class="cls-1" points="204.08 5.1 211.74 5.1 211.74 196.43 331.63 196.43 331.63 204.08 204.08 204.08 204.08 5.1"/><polygon class="cls-1" points="813.78 5.1 822.87 5.1 907.03 126.19 990.9 5.1 1000 5.1 1000 204.08 989.8 204.08 989.8 19.1 905.9 140.31 905.33 140.31 821.43 19.1 821.43 204.08 813.78 204.08 813.78 5.1"/><path class="cls-1" d="M669,1.11A103.64,103.64,0,1,0,772.62,104.74,103.63,103.63,0,0,0,669,1.11m0,133.66a30,30,0,1,1,30-30,30,30,0,0,1-30,30"/></g></svg>