<svg id="Layer_1" data-name="Layer 1" xmlns="http://www.w3.org/2000/svg" viewBox="0 0 1000 666.03"><defs><style>.cls-1{fill:#fff;}</style></defs><title>Client-Logos-Master</title><g id="BLR"><path id="Fill-1" class="cls-1" d="M213.92,310.75c-12.25-8.61-25.69-12.63-48.45-13.77-10.53-.57-16.36-.57-25.12-.57-2.32,0-3.49,1.15-3.49,4v136.1c0,37.87,1.74,47.64,20.42,55.11,15.78,6.32,29.2,6.89,42.62,6.89,26.26,0,70.64-13.79,70.64-73.5,0-35.59-12.25-83.84-56.62-114.27Zm-77.06-45.93c0,4.6,1.74,5.74,4.07,6.32,5.27,1.14,14,1.71,27.44,1.71,19.28,0,32.11-2.29,42.06-10.91,15.15-12.06,23.93-32.72,23.93-60.85,0-38.48-22.78-89-73-89-8.18,0-13.43,0-19.27,1.14-4.07,1.14-5.24,3.45-5.24,9.77ZM59,255.06c0-87.29,0-103.37-1.16-121.73C56.64,113.78,52,104.61,32.69,100.6,28,99.45,18.11,98.89,9.93,98.89,3.5,98.89,0,97.73,0,93.7s4.08-5.16,12.83-5.16c31,0,67.75,1.72,79.42,1.72,28.6,0,51.4-1.72,71.23-1.72,105.68,0,124.36,55.7,124.36,86.14,0,47.07-27.43,75.2-59.54,100.48,47.84,16.07,106.26,56.83,106.26,124,0,61.44-48.46,125.18-155.89,125.18-7,0-23.94-1.18-40.87-1.71-17.52-1.18-35.05-1.75-43.81-1.75-6.42,0-19.25,0-33.27.57-13.43,0-28.61,1.18-40.3,1.18-7.59,0-11.65-1.75-11.65-5.76,0-2.87,2.33-4.61,9.34-4.61a96.42,96.42,0,0,0,21-2.28c11.67-2.3,14.58-14.93,16.93-31.59C59,454.29,59,408.93,59,356.11Z"/><path id="Fill-3" class="cls-1" d="M448.44,357.54c0,78.45,1.17,210.13,1.17,227.06,0,10.56,0,16.19,4.07,22.61,12.05,19,37.38,24.55,51.85,20,28.41-8.94,75.89-23.26,92.08-39.22,6.41-6.28,8.52-10.66,9.32-16.91.69-5.5,1.49-9.23,6.49-9.43,4.34-.17,5.09,2.87,5.39,10.2.25,6.75-2.84,16.23-2.84,33.38,0,14-6.73,20.47-37.24,31.15-44.12,15.46-88.68,33.17-102.06,29.06-26.78-8.26-94.59-30.14-109.39-32.23-14.08-2.58-34.17-3.56-46.48-1.61-8,1.26-16.13-13-16.13-17.26,0-3.07,2.49-4.91,10-4.91,9.35,0,29.11-1.22,34.71-2.46,12.46-2.45,15.59-15.91,18.07-33.7,3.13-25.73,3.13-159.35,3.13-215.72V249.71c0-93.15,0-182.3-1.25-201.92-1.24-20.81-6.24-30.62-26.81-34.92C337.52,11.64,330,11,322,11c-6.86,0-10.62-1.21-10.62-5.52S315.71,0,325,0c29.3,0,68.54,1.84,85.37,1.84C425.36,1.84,470.85,0,495.15,0c8.73,0,13.09,1.23,13.09,5.51S504.5,11,497,11a167.74,167.74,0,0,0-24.3,1.84c-16.83,3.06-21.82,13.49-23.06,34.92-1.23,19.62-1.23,108.77-1.23,201.92Z"/><path id="Fill-5" class="cls-1" d="M623.7,300.41c0,6.33,1.22,8.61,5.47,10.34,12.75,4,30.92,5.76,46.09,5.76,24.26,0,32.15-2.31,43-9.77,18.21-12.65,35.79-39.07,35.79-86.14,0-81.52-57-105.07-92.79-105.07-15.17,0-26.09.56-32.14,2.29-4.25,1.15-5.47,3.45-5.47,8Zm-77.89-39.67c0-87.29,0-103.35-1.3-121.73-1.34-19.53-6.61-28.71-28.39-32.73-5.3-1.14-16.51-1.71-25.76-1.71-7.25,0-11.21-1.15-11.21-5.18s4.61-5.16,14.5-5.16c35,0,76.58,1.71,90.45,1.71,22.44,0,72.62-1.71,93.09-1.71,41.58,0,85.81,3.43,121.46,24.68,18.46,10.9,44.89,40.21,44.89,78.67,0,42.48-20.48,81.54-87.16,128.6,58.76,64.33,104.3,115.42,143.26,151,37,33.3,64.05,37.34,73.94,39.05A118.05,118.05,0,0,0,992.07,518c5.28,0,7.93,1.71,7.93,4.58,0,4.59-4.63,5.76-12.57,5.76H924.72c-37,0-53.46-2.89-70.62-10.92-28.41-13.19-53.47-40.21-90.43-84.41-26.4-31.57-56.78-70.62-65.37-79.24-3.3-3.44-7.26-4-11.88-4L629,348.59c-3.29,0-5.28,1.15-5.28,4.6v8c0,53.41,0,98.75,3.31,122.86,2,16.64,5.93,29.29,25.75,31.61,9.88,1.14,24.43,2.29,32.34,2.29,5.27,0,7.92,1.71,7.92,4.58,0,4-4.62,5.76-13.2,5.76-38.29,0-87.13-1.72-97-1.72-12.57,0-54.15,1.72-80.56,1.72-8.59,0-13.2-1.72-13.2-5.76,0-2.87,2.64-4.58,10.57-4.58a124.16,124.16,0,0,0,23.77-2.29c13.19-2.32,16.5-15,19.14-31.61,3.29-24.11,3.29-69.45,3.29-122.28Z"/></g></svg>