<svg id="Layer_1" data-name="Layer 1" xmlns="http://www.w3.org/2000/svg" viewBox="0 0 846.18 1000"><defs><style>.cls-1{fill:#fff;}</style></defs><title>Client-Logos-Master</title><g id="Clark_Street" data-name="Clark Street"><path class="cls-1" d="M844.75,952c-2.19-6.11-7.91-1.78-20.17-2S800.06,937,792,926.91c-24.61-30.62-38.72-70-50.07-107.22-26.74-86.6-37.83-178.35-43-268.54-5.68-99.41-4.45-199.59.7-299,1.69-32.69,4-65.37,7.81-97.89,4.53-38.74,9.38-80.72,27.8-115.68,4-7.5,17.84-24.56,12.4-33.27C743.4-1.51,731.53-.28,725,1c-25.91,5-46.61,26-62.54,45.72C659.9,42.89,637.65,17.83,632,32c-3.09,7.65.4,19.53.58,27.53C632.86,72.7,630,86.22,627,99c-7.51,31.9-22.7,62-35.21,92.2q-60,144.68-119.52,289.54-13.38,32.44-26.74,64.88A166.1,166.1,0,0,1,496,558.18Q576.45,362.7,657.42,167.44c-13.34,97-15.3,196.08-14,293.87,1.33,105.23,9.16,211.88,34.08,314.39,3.51,14.37,7.37,28.67,11.74,42.81,5,16.24,5.72,33.07,5,50a144.87,144.87,0,0,1-3.08,24c-1,4.73-4.3,14.25,1.45,17.07,9.45,4.55,22.33-7.89,27.52-13.83,14.12,26.8,33,54.59,60.5,69.11,10.31,5.44,22.35,9.06,34.1,8.64C824.58,973.11,849.68,965.81,844.75,952Z"/><path class="cls-1" d="M199.16,359c-1.48-64-4.69-128.16-13.41-191.59L312,472.6a229,229,0,0,1,47.24-20.33q-57.86-140.4-115.94-280.73S213.67,100.37,209,81.39c-3.14-12.76-5.63-25.86-6.3-39,0-9.2,7.6-40.49-10.74-33.24-10.25,3.94-18.67,14.45-23.27,24.06C154.7,18.68,138.57,4.93,118.14,1c-5.87-1.17-12.5-1.59-18.15.74C90,6.08,96.09,17.21,99.82,24c11.94,21.55,20.31,42.6,25.72,66.71,4.12,18.4,6.91,37.19,9.25,55.86,9.54,76.13,11.54,153.27,12.46,229.92,1.21,99.48-1.18,199-14.83,297.65-6,43.53-14.18,86.89-25.93,129.26C95.76,842,82.59,881.74,60.41,915.46c-9.13,14-22.75,32.47-40.79,34.72-5.68.67-11.71-2.23-17.27-.76-7.64,2,.67,13.1,3.51,15.72C23,980.92,52,972.49,69.23,961.64c24.41-15.36,41.44-40.81,54.57-65.89,7.93,9.07,34.73,26.09,29.73.59-4.44-22.66-6.13-46.11-1.28-68.9,4.48-21.08,11.65-41.64,16.43-62.73,5.95-26.25,10.73-52.77,14.66-79.41C199.25,577.38,201.68,467.92,199.16,359Z"/><path class="cls-1" d="M620.65,980.32h0C622.88,980.82,620.77,980.34,620.65,980.32Z"/><path class="cls-1" d="M620.67,980.32h0c-5-1.19-9.93-4.75-14-7.73-14.32-10.42-26.07-24.36-36.49-38.56-14.88-20.27-27.43-42.33-38.57-64.84-8.24-16.64-14.28-34.3-21.8-51.27-7.82-17.65-16.25-35-24.13-52.63-2.58-5.76-4.39-12.06-8.65-16.75-5.6-6.14-13.77-9.46-21.52-11.91-23.39-7.45-48.23-9.31-72-15.35-3.11-.8-6.2-1.65-9.26-2.58q-2,4.75-3.92,9.49-3.76,9.19-7.56,18.38-3.58,8.73-7.17,17.46c-2.34,5.65-6.19,10-1.68,15s10.58,8.9,16.55,12.13a116.27,116.27,0,0,0,13.28,6.11c4.27,1.67,11.28,6.22,13.29,1.33l24.63-59.84q19.37,47,38.73,94.08c9.95,24.18,18.9,49.13,30.83,72.42,14.87,29,34.59,57.83,61.65,76.8,12.39,8.7,26.52,15.05,41.6,17.11,8,1.09,16.35,1.52,23.64-2.53C623.54,993.57,631.57,982.78,620.67,980.32Z"/><path class="cls-1" d="M316.25,859.49a170.86,170.86,0,0,0,44.12,28.18c4.61-10.81,8.94-21.74,13.41-32.6a173.58,173.58,0,0,1-46.86-21.44Z"/><path class="cls-1" d="M222.64,980.31h0C222.49,980.34,220.46,980.8,222.64,980.31Z"/><path class="cls-1" d="M239.78,970.21c-4.85,3.84-10.9,8.66-17.13,10.09,0,0,0,0,0,0A7,7,0,0,0,219,991.76a26,26,0,0,0,16.14,8c12.41,1.3,26-2.41,37.24-7.4,22.2-9.86,40.12-27.6,54.61-46.73a236,236,0,0,1-43.34-26.79C271.42,937.56,257.46,956.24,239.78,970.21Z"/><path class="cls-1" d="M437.18,720.76c17.95,3.83,43.84,9.32,54.86,25.67,3,4.47,3.8,10.81,5.87,15.78q3.79,9.12,7.69,18.19c4.81,11.24,9.7,22.44,14.36,33.73,17.33-23.21,21.37-57.43,9.89-84.13-9.47-22-30.37-34.18-52.39-41-16.12-5-32.85-7.68-49.45-10.55-16.84-2.91-35.27-5.38-50.28-14.12-12.42-7.23-17.78-18.87-16.41-33.06.4-4,1.68-6.62.08-10.49l-4.89-11.87q-5.68-13.83-11.39-27.64c-22.05,19.75-29.27,51.7-21.65,79.9,6.61,24.42,26.63,38.44,49.63,46C394,714.06,415.8,716.19,437.18,720.76Z"/><path class="cls-1" d="M455.84,850.12c-2.83-6.88-5.64-13.74-8.48-20.63q-1.94-4.71-3.88-9.41c-2-4.76-4.35-2.87-9-2.74-14.37.4-28.9-2.06-42.67-6.11-20.11-5.92-48-17-52.34-39.31.1-1.51.22-2.75.24-3.76.05-1.8-.34-2.88-1.4-3.24s-2.8.09-4.72,1.51a19.53,19.53,0,0,0-5.4,6.65,47.78,47.78,0,0,0-4,13.7,21.43,21.43,0,0,0,.1,7.12,23.47,23.47,0,0,0-3.69,2.58,48.06,48.06,0,0,0-9.47,10.69,19.73,19.73,0,0,0-2.74,8.11c-.17,2.38.39,4.1,1.23,4.81s2,.47,3.5-.54c.95-.63,2.06-1.51,3.52-2.56a6.75,6.75,0,0,1,5.32.4c5.79,3.12,11,7.45,16.63,10.82a166.32,166.32,0,0,0,49.85,19.44c-.61-.14-.77-.18,0,0,9.51,2.06,2.31.51,0,0C410.4,852.4,433.71,853.79,455.84,850.12Z"/><path class="cls-1" d="M423.49,911.75c-102.42,0-177.21-92-184.65-188.83-7-90.76,43.22-187,133-216.1a167.91,167.91,0,0,1,58.06-8.09c5.34.22,10.66.68,15.95,1.41,2.1.28,4.2.61,6.29,1l4.06-9.84q6.7-16.32,13.43-32.63C369.47,436.42,270.6,491.26,223.8,579.86c-44.72,84.67-40.15,191.87,12.59,271.93,56.91,86.39,165.67,128.77,264.11,90.28a298.17,298.17,0,0,1-22.7-39.62A166.05,166.05,0,0,1,423.49,911.75Z"/><path class="cls-1" d="M638.8,596.57a3.24,3.24,0,0,0-.52,0c-7.35-.33-10.31-7.3-10.31-7.3l-.6-1.26c-21-43.52-52.5-78.37-90.1-101.68L519.78,528.7c27.46,18.62,50.6,45.2,66.56,77.87l.61,1.28s3.26,6.61-.72,11.31c-.56.64-.79.84-1.1,1.22-1.19,1.39-1.56,2.5-1,3.46s2.28,1.7,4.7,1.8a19.76,19.76,0,0,0,8.5-1.84,49,49,0,0,0,11.87-8.31,21.81,21.81,0,0,0,4.43-5.71,24.85,24.85,0,0,0,4.57.31,48.68,48.68,0,0,0,14.28-2.47,19.66,19.66,0,0,0,7.33-4.69c1.65-1.77,2.29-3.48,2-4.59S640.61,596.71,638.8,596.57Z"/><path class="cls-1" d="M533.1,578.35c-.89-.69-2-.4-3.46.64-.29.18-.58.41-.89.65-8.44,4.47-17.16-1.87-25-5.86A165.47,165.47,0,0,0,474.85,562c-23.25-6.77-48.47-8.17-72.42-4.87l-.07,0c-2.79-6.74-5.4-13.25-8.18-20q-2.67-6.51-5.37-13c-1.71-4.15-2-10.4-7-9a162.87,162.87,0,0,0-41.61,18.12c-4.39,2.69-.29,7.21,1.42,11.36q2.67,6.48,5.36,13l3.38,8.22q3.93,9.49,7.85,19,9.88,23.91,19.68,47.82l10.35,25.1a97.63,97.63,0,0,0,15.4,5c15.08,3.72,30.52,5.79,45.77,8.68-.92-1.37,5.61-13.67,6.4-15.59l7.8-19q3.94-9.59,7.9-19.2c1.43-3.45,4.4-5.76.2-7.49-1.7-.71-3.42-1.36-5.15-2A124,124,0,0,0,434,601.42c-5.71-.39-6.1-1.16-7.85,3.78-.68,1.88-1.35,3.77-2,5.65-2.66-6.79-5.32-13.6-8-20.38,20.08-1.07,40.85,1.92,59.55,9.46,8.38,3.38,16.9,7.87,23,14.75a24.64,24.64,0,0,1,5.72,10.49,11.67,11.67,0,0,1,.21,1.23c-.05,2-.18,3.47-.17,4.67,0,1.81.41,2.88,1.49,3.21s2.79-.17,4.68-1.64a19.49,19.49,0,0,0,5.22-6.79A48.22,48.22,0,0,0,519.47,612a21.54,21.54,0,0,0-.3-7.12,24,24,0,0,0,3.62-2.68,47.84,47.84,0,0,0,9.16-11,19.39,19.39,0,0,0,2.53-8.18C534.58,580.73,534,579,533.1,578.35Z"/><path class="cls-1" d="M627.68,818.63a48.65,48.65,0,0,0-13.49-5.28,21.5,21.5,0,0,0-7.21-.55,23.79,23.79,0,0,0-2.27-4,48.57,48.57,0,0,0-10-10.53,19.56,19.56,0,0,0-8-3.51c-2.39-.4-4.19,0-5,.81s-.65,2,.24,3.58l.25.45c3.34,5-.37,12.32-.37,12.32l-.44.91c-.55,1.09-1,2-1.22,2.39a200.61,200.61,0,0,1-39.09,49.13c7.78,15.57,15.23,28.93,22.25,40.3a244.35,244.35,0,0,0,56.15-67.49l.64-1.12s3.33-6.57,9.74-5.58c.62.09,1.12.18,1.63.22,1.81.22,2.93-.08,3.4-1.1s.14-2.84-1.11-4.92A19.58,19.58,0,0,0,627.68,818.63Z"/></g></svg>