<svg id="Layer_1" data-name="Layer 1" xmlns="http://www.w3.org/2000/svg" viewBox="0 0 1000 722.9"><defs><style>.cls-1{fill:#fff;}</style></defs><title>Client-Logos-Master</title><g id="Concord"><polygon class="cls-1" points="11.93 710.97 11.93 572.59 0 572.59 0 722.9 150.31 722.9 150.31 710.97 11.93 710.97"/><polygon class="cls-1" points="11.93 11.93 150.31 11.93 150.31 0 0 0 0 150.31 11.93 150.31 11.93 11.93"/><polygon class="cls-1" points="988.07 11.93 988.07 150.31 1000 150.31 1000 0 849.69 0 849.69 11.93 988.07 11.93"/><polygon class="cls-1" points="988.07 710.97 849.69 710.97 849.69 722.9 1000 722.9 1000 572.59 988.07 572.59 988.07 710.97"/><polygon class="cls-1" points="947.51 52.49 947.51 150.31 959.44 150.31 959.44 40.56 849.69 40.56 849.69 52.49 947.51 52.49"/><polygon class="cls-1" points="947.51 670.41 849.69 670.41 849.69 682.34 959.44 682.34 959.44 572.59 947.51 572.59 947.51 670.41"/><polygon class="cls-1" points="52.49 670.41 52.49 572.59 40.56 572.59 40.56 682.34 150.31 682.34 150.31 670.41 52.49 670.41"/><polygon class="cls-1" points="52.49 52.49 150.31 52.49 150.31 40.56 40.56 40.56 40.56 150.31 52.49 150.31 52.49 52.49"/><polygon class="cls-1" points="93.05 629.85 93.05 572.59 81.12 572.59 81.12 641.78 150.31 641.78 150.31 629.85 93.05 629.85"/><polygon class="cls-1" points="906.95 93.05 906.95 150.31 918.88 150.31 918.88 81.12 849.69 81.12 849.69 93.05 906.95 93.05"/><polygon class="cls-1" points="93.05 93.05 150.31 93.05 150.31 81.12 81.12 81.12 81.12 150.31 93.05 150.31 93.05 93.05"/><polygon class="cls-1" points="906.95 629.85 849.69 629.85 849.69 641.78 918.88 641.78 918.88 572.59 906.95 572.59 906.95 629.85"/><path class="cls-1" d="M175,241.84c0-24.57,18.37-43.3,43.54-43.3a41.71,41.71,0,0,1,24.81,7.63L238.53,221c-4.06-2.87-11.57-6.69-20-6.69-15.15,0-26,11.81-26,27.56,0,16,10.86,27.56,26,27.56,9.07,0,16.82-4.06,20.76-6.8L244,277.27c-5,3.7-13.36,7.88-25.53,7.88C192.36,285.15,175,266.42,175,241.84Z"/><path class="cls-1" d="M263,241.84c0-24.33,17.77-43.3,43.42-43.3s43.43,19,43.43,43.3c0,24.58-17.78,43.31-43.43,43.31S263,266.42,263,241.84Zm17.54,0c0,16,10.85,27.56,25.88,27.56s25.89-11.57,25.89-27.56c0-15.75-10.85-27.56-25.89-27.56S280.52,226.09,280.52,241.84Z"/><path class="cls-1" d="M389.79,226.81V283.6H373.2V200.09h17.06l35.67,57.26V200.09h16.58V283.6h-16.7Z"/><path class="cls-1" d="M465.89,241.84c0-24.57,18.37-43.3,43.55-43.3a41.71,41.71,0,0,1,24.81,7.63L529.48,221c-4.06-2.87-11.57-6.69-20-6.69-15.16,0-26,11.81-26,27.56,0,16,10.85,27.56,26,27.56,9.06,0,16.82-4.06,20.75-6.8L535,277.27c-5,3.7-13.37,7.88-25.53,7.88C483.31,285.15,465.89,266.42,465.89,241.84Z"/><path class="cls-1" d="M553.92,241.84c0-24.33,17.78-43.3,43.43-43.3s43.42,19,43.42,43.3c0,24.58-17.77,43.31-43.42,43.31S553.92,266.42,553.92,241.84Zm17.54,0c0,16,10.86,27.56,25.89,27.56s25.89-11.57,25.89-27.56c0-15.75-10.86-27.56-25.89-27.56S571.46,226.09,571.46,241.84Z"/><path class="cls-1" d="M664.27,200.09h25.17c18.25,0,28.27,11.09,28.27,24.81,0,10.14-5,17.9-12.64,22.07l19.8,36.63H706.26L690,250.91h-8.95V283.6H664.27ZM689,236.71c6.09,0,11.46-3.82,11.46-11.21,0-6.68-4.66-10.86-12.29-10.86h-7v22.07Z"/><path class="cls-1" d="M746,200.09h22.19c27.32,0,44.26,15.63,44.26,41.75,0,26.73-17.06,41.76-44.26,41.76H746Zm22.78,69c15.87,0,26.13-9.18,26.13-27.2,0-17.53-10.26-27.08-26.13-27.08h-6V269Z"/><path class="cls-1" d="M343,388.21l24-56.9h21.71v83.51H372.61V355.17L350.9,407.78H335.27l-21.71-52.61v59.65h-16.1V331.31h21.71Z"/><path class="cls-1" d="M416.15,383.44V331.31H433v52.13c0,10.62,6.08,17.3,16.82,17.3s16.82-6.68,16.82-17.3V331.31h16.82v52.13c0,19.68-12.05,32.93-33.64,32.93S416.15,403.12,416.15,383.44Z"/><path class="cls-1" d="M560.13,348l-14,6.32c-1.79-3.93-4.89-9.07-12.16-9.07-5.73,0-9.07,3.46-9.07,8,0,13.84,36.26,11.81,36.26,37.7,0,14.67-10.49,25.41-27.91,25.41-17.9,0-25.29-12.53-27.68-19.33l14.2-6.92c2.27,5.49,6.92,10.62,14.43,10.62,6.21,0,9.91-3.22,9.91-8.59,0-14.32-36-11.93-36-38.65,0-14.08,10.26-23.74,26.24-23.74C551.18,329.76,558.1,341.92,560.13,348Z"/><path class="cls-1" d="M585.06,331.31h16.82v83.51H585.06Z"/><path class="cls-1" d="M625.38,373.06c0-24.57,18.37-43.3,43.54-43.3,11.1,0,19.45,3.69,24.82,7.63L689,352.18c-4.05-2.86-11.57-6.68-20-6.68-15.15,0-26,11.81-26,27.56,0,16,10.85,27.56,26,27.56,9.07,0,16.82-4.06,20.76-6.8l4.77,14.67c-5,3.7-13.36,7.88-25.53,7.88C642.8,416.37,625.38,397.64,625.38,373.06Z"/><path class="cls-1" d="M348,462.53h16.82v33.88h34.71V462.53h16.82V546H399.57V511.56H364.86V546H348Z"/><path class="cls-1" d="M461.48,524.56,454.2,546H437.26l29.59-83.5h17.66L514.09,546H497.15l-7.28-21.47Zm14.2-44L466,510.6h19.44Z"/><path class="cls-1" d="M535,462.53h16.82v68.35H579V546H535Z"/><path class="cls-1" d="M601.16,462.53H618v68.35h27.21V546h-44Z"/></g></svg>